<svg width="24" height="24" viewBox="0 0 24 24" fill="none" xmlns="http://www.w3.org/2000/svg">
<g clip-path="url(#clip0_197_126)">
<path d="M23.5863 19.862H0.414055C0.18554 19.862 0.000244141 19.6768 0.000244141 19.4482V4.55175C0.000244141 4.32324 0.18554 4.13794 0.414055 4.13794H23.5864C23.8149 4.13794 24.0002 4.32324 24.0002 4.55175V19.4482C24.0001 19.6768 23.8149 19.862 23.5863 19.862Z" fill="#41479B"/>
<path d="M24.0002 4.55175C24.0002 4.32324 23.8149 4.13794 23.5863 4.13794H21.735L14.0691 9.16044V4.13794H9.93119V9.16044L2.26533 4.13794H0.414055C0.18554 4.13794 0.000244141 4.32324 0.000244141 4.55175V5.62195L6.5772 9.93101H0.000244141V14.0689H6.5772L0.000244141 18.378V19.4482C0.000244141 19.6768 0.18554 19.862 0.414055 19.862H2.26538L9.93128 14.8396V19.862H14.0692V14.8396L21.7351 19.862H23.5864C23.8149 19.862 24.0002 19.6768 24.0002 19.4482V18.378L17.4233 14.069H24.0002V9.93106H17.4232L24.0002 5.62195V4.55175Z" fill="#F5F5F5"/>
<path d="M24.0001 10.7586H13.2416V4.13794H10.7588V10.7586H0.000244141V13.2414H10.7588V19.862H13.2416V13.2414H24.0001V10.7586Z" fill="#FF4B55"/>
<path d="M8.38852 14.0691L0.012085 19.5064C0.0413817 19.7063 0.206147 19.8622 0.41413 19.8622H0.984081L9.90858 14.0691H8.38852V14.0691Z" fill="#FF4B55"/>
<path d="M16.2375 14.0691H14.7174L23.6289 19.8536C23.8366 19.8315 24.0005 19.6619 24.0005 19.4484V19.1081L16.2375 14.0691Z" fill="#FF4B55"/>
<path d="M0.000488281 5.00847L7.58385 9.93098H9.10391L0.241565 4.17822C0.100004 4.24399 0.000488281 4.38532 0.000488281 4.55167V5.00847Z" fill="#FF4B55"/>
<path d="M15.5896 9.93101L23.9862 4.48055C23.9513 4.28733 23.7901 4.13794 23.5868 4.13794H22.9939L14.0696 9.93101H15.5896Z" fill="#FF4B55"/>
</g>
<defs>
<clipPath id="clip0_197_126">
<rect width="24" height="24" fill="white"/>
</clipPath>
</defs>
</svg>
