<svg width="182" height="43" viewBox="0 0 182 43" fill="none" xmlns="http://www.w3.org/2000/svg">
<path d="M53.9682 34.8371C53.7151 35.334 53.6012 35.893 53.6012 36.5142C53.6012 37.1477 53.7278 37.7068 53.9809 38.1913C54.234 38.6882 54.6011 39.0609 55.0694 39.3342C55.5377 39.6075 56.0693 39.7441 56.6768 39.7441C57.3602 39.7441 57.9551 39.5453 58.4487 39.1478C58.9423 38.7503 59.2714 38.2285 59.4233 37.5825H58.7651C58.6386 38.0794 58.3728 38.4646 57.9931 38.7503C57.6007 39.036 57.1451 39.1727 56.6261 39.1727C56.1705 39.1727 55.7781 39.0733 55.4238 38.8621C55.0694 38.6509 54.7909 38.3528 54.5884 37.9801C54.3859 37.6074 54.272 37.1726 54.272 36.6757C54.272 36.6136 54.272 36.5639 54.2847 36.5266H59.5119C59.5119 36.4769 59.5245 36.3899 59.5245 36.2657C59.4992 35.657 59.36 35.1228 59.1069 34.6756C58.8537 34.2284 58.4993 33.8929 58.069 33.6569C57.626 33.4209 57.1198 33.2966 56.5629 33.2966C55.9807 33.2966 55.4744 33.4333 55.0187 33.7066C54.5631 33.9799 54.2214 34.3526 53.9682 34.8371ZM58.8537 35.9924H54.3226C54.3479 35.57 54.4745 35.1973 54.6897 34.8744C54.8922 34.5514 55.1706 34.3029 55.4997 34.129C55.8288 33.9551 56.1832 33.8557 56.5755 33.8557C57.2084 33.8557 57.7399 34.042 58.145 34.4147C58.55 34.7874 58.7904 35.3216 58.8537 35.9924Z" fill="#161616"/>
<path d="M60.8489 36.4024H64.9371V35.8806H60.8489V36.4024Z" fill="#161616"/>
<path d="M71.1051 39.1851C71.5861 38.8124 71.9025 38.2906 72.0291 37.6322H71.3836C71.2697 38.1043 71.0292 38.4894 70.6621 38.7627C70.2824 39.036 69.8394 39.1727 69.3079 39.1727C68.8396 39.1727 68.4219 39.0609 68.0675 38.8372C67.7131 38.6136 67.4347 38.2906 67.2322 37.8807C67.0297 37.4832 66.9284 37.0235 66.9284 36.5017C66.9284 35.9924 67.0297 35.5328 67.2322 35.1352C67.4347 34.7377 67.7131 34.4147 68.0675 34.1911C68.4219 33.9675 68.8396 33.8557 69.3079 33.8557C69.8394 33.8557 70.2824 34.0048 70.6621 34.2781C71.0292 34.5514 71.2697 34.924 71.3836 35.3961H72.0291C71.9025 34.7501 71.6114 34.2408 71.1304 33.8681C70.6495 33.4954 70.042 33.2966 69.3332 33.2966C68.7257 33.2966 68.1941 33.4333 67.7384 33.7066C67.2701 33.9799 66.9031 34.3526 66.65 34.8371C66.3968 35.3216 66.2703 35.8806 66.2703 36.5017C66.2703 37.1477 66.3968 37.7068 66.65 38.1913C66.9031 38.6882 67.2575 39.0609 67.7131 39.3342C68.1688 39.6075 68.7003 39.7441 69.3079 39.7441C70.0166 39.7441 70.6242 39.5578 71.1051 39.1851Z" fill="#161616"/>
<path d="M74.4379 39.3342C74.8935 39.6075 75.4251 39.7441 76.0326 39.7441C76.6275 39.7441 77.1591 39.6075 77.6274 39.3342C78.0957 39.0609 78.4627 38.6882 78.7285 38.1913C78.9816 37.7068 79.1209 37.1477 79.1209 36.5142C79.1209 35.893 78.9816 35.334 78.7285 34.8495C78.4627 34.365 78.0957 33.9799 77.6274 33.7066C77.1591 33.4333 76.6275 33.2966 76.0326 33.2966C75.4251 33.2966 74.8935 33.4333 74.4379 33.7066C73.9696 33.9799 73.6025 34.365 73.3494 34.8495C73.0836 35.334 72.9571 35.893 72.9571 36.5142C72.9571 37.1477 73.0836 37.7068 73.3494 38.1913C73.6025 38.6882 73.9696 39.0609 74.4379 39.3342ZM77.2983 38.8372C76.9186 39.0609 76.5009 39.1727 76.0326 39.1727C75.5517 39.1727 75.134 39.0609 74.767 38.8372C74.3999 38.6136 74.1215 38.3031 73.919 37.8931C73.7165 37.4956 73.6152 37.0359 73.6152 36.5142C73.6152 36.0048 73.7165 35.5452 73.919 35.1477C74.1215 34.7501 74.3999 34.4271 74.767 34.2035C75.134 33.9799 75.5517 33.8557 76.0326 33.8557C76.5009 33.8557 76.9186 33.9799 77.2983 34.2035C77.6653 34.4271 77.9564 34.7501 78.159 35.1477C78.3615 35.5452 78.4627 36.0048 78.4627 36.5142C78.4627 37.0359 78.3615 37.4956 78.159 37.8931C77.9564 38.3031 77.6653 38.6136 77.2983 38.8372Z" fill="#161616"/>
<path d="M89.2999 33.9923C88.8696 33.5327 88.3 33.2966 87.5913 33.2966C87.0217 33.2966 86.5408 33.4457 86.1611 33.719C85.7687 34.0048 85.4776 34.3899 85.2877 34.8744C85.1359 34.365 84.8701 33.9799 84.503 33.7066C84.1233 33.4333 83.6803 33.2966 83.1741 33.2966C82.6551 33.2966 82.2248 33.4333 81.8704 33.6942C81.516 33.9551 81.2503 34.3029 81.0857 34.7253L80.9845 33.3712H80.4276V39.6696H81.0604V36.4645C81.0604 35.6943 81.2376 35.0607 81.6046 34.5886C81.959 34.1166 82.4526 33.8805 83.0602 33.8805C83.6297 33.8805 84.0727 34.0793 84.3891 34.452C84.7055 34.8371 84.8701 35.3837 84.8701 36.1042V39.6696H85.5156V36.2409C85.5282 35.5203 85.7181 34.9489 86.0725 34.5265C86.4268 34.1041 86.9078 33.8805 87.5153 33.8805C88.0722 33.8805 88.5152 34.0793 88.8316 34.452C89.1354 34.8371 89.2999 35.3837 89.2999 36.1042V39.6696H89.9581V36.0669C89.9581 35.1477 89.7302 34.4644 89.2999 33.9923Z" fill="#161616"/>
<path d="M100.263 33.9923C99.833 33.5327 99.2634 33.2966 98.5546 33.2966C97.9851 33.2966 97.5041 33.4457 97.1244 33.719C96.7321 34.0048 96.441 34.3899 96.2511 34.8744C96.0992 34.365 95.8334 33.9799 95.4664 33.7066C95.0867 33.4333 94.6437 33.2966 94.1374 33.2966C93.6185 33.2966 93.1882 33.4333 92.8338 33.6942C92.4794 33.9551 92.2136 34.3029 92.0491 34.7253L91.9478 33.3712H91.3909V39.6696H92.0238V36.4645C92.0238 35.6943 92.201 35.0607 92.568 34.5886C92.9224 34.1166 93.416 33.8805 94.0235 33.8805C94.5931 33.8805 95.0361 34.0793 95.3525 34.452C95.6689 34.8371 95.8334 35.3837 95.8334 36.1042V39.6696H96.4789V36.2409C96.4916 35.5203 96.6814 34.9489 97.0358 34.5265C97.3902 34.1041 97.8712 33.8805 98.4787 33.8805C99.0356 33.8805 99.4786 34.0793 99.795 34.452C100.099 34.8371 100.263 35.3837 100.263 36.1042V39.6696H100.921V36.0669C100.921 35.1477 100.694 34.4644 100.263 33.9923Z" fill="#161616"/>
<path d="M102.506 34.8371C102.253 35.334 102.139 35.893 102.139 36.5142C102.139 37.1477 102.266 37.7068 102.519 38.1913C102.772 38.6882 103.139 39.0609 103.607 39.3342C104.076 39.6075 104.607 39.7441 105.215 39.7441C105.898 39.7441 106.493 39.5453 106.987 39.1478C107.48 38.7503 107.809 38.2285 107.961 37.5825H107.303C107.177 38.0794 106.911 38.4646 106.531 38.7503C106.139 39.036 105.683 39.1727 105.164 39.1727C104.708 39.1727 104.316 39.0733 103.962 38.8621C103.607 38.6509 103.329 38.3528 103.126 37.9801C102.924 37.6074 102.81 37.1726 102.81 36.6757C102.81 36.6136 102.81 36.5639 102.823 36.5266H108.05C108.05 36.4769 108.062 36.3899 108.062 36.2657C108.037 35.657 107.898 35.1228 107.645 34.6756C107.392 34.2284 107.037 33.8929 106.607 33.6569C106.164 33.4209 105.658 33.2966 105.101 33.2966C104.519 33.2966 104.012 33.4333 103.557 33.7066C103.101 33.9799 102.759 34.3526 102.506 34.8371ZM107.392 35.9924H102.861C102.886 35.57 103.012 35.1973 103.228 34.8744C103.43 34.5514 103.709 34.3029 104.038 34.129C104.367 33.9551 104.721 33.8557 105.113 33.8557C105.746 33.8557 106.278 34.042 106.683 34.4147C107.088 34.7874 107.328 35.3216 107.392 35.9924Z" fill="#161616"/>
<path d="M112.274 33.3712H111.982C111.426 33.3712 111.008 33.483 110.704 33.7066C110.4 33.9302 110.172 34.2408 110.021 34.6259L109.919 33.3712H109.362V39.6696H110.008V36.4769C110.008 35.7315 110.135 35.1352 110.413 34.6756C110.679 34.2159 111.16 33.9799 111.856 33.9799H112.274V33.3712Z" fill="#161616"/>
<path d="M117.468 39.1851C117.949 38.8124 118.265 38.2906 118.392 37.6322H117.746C117.632 38.1043 117.392 38.4894 117.025 38.7627C116.645 39.036 116.202 39.1727 115.67 39.1727C115.202 39.1727 114.784 39.0609 114.43 38.8372C114.076 38.6136 113.797 38.2906 113.595 37.8807C113.392 37.4832 113.291 37.0235 113.291 36.5017C113.291 35.9924 113.392 35.5328 113.595 35.1352C113.797 34.7377 114.076 34.4147 114.43 34.1911C114.784 33.9675 115.202 33.8557 115.67 33.8557C116.202 33.8557 116.645 34.0048 117.025 34.2781C117.392 34.5514 117.632 34.924 117.746 35.3961H118.392C118.265 34.7501 117.974 34.2408 117.493 33.8681C117.012 33.4954 116.405 33.2966 115.696 33.2966C115.088 33.2966 114.557 33.4333 114.101 33.7066C113.633 33.9799 113.266 34.3526 113.013 34.8371C112.759 35.3216 112.633 35.8806 112.633 36.5017C112.633 37.1477 112.759 37.7068 113.013 38.1913C113.266 38.6882 113.62 39.0609 114.076 39.3342C114.531 39.6075 115.063 39.7441 115.67 39.7441C116.379 39.7441 116.987 39.5578 117.468 39.1851Z" fill="#161616"/>
<path d="M119.687 34.8371C119.434 35.334 119.32 35.893 119.32 36.5142C119.32 37.1477 119.446 37.7068 119.699 38.1913C119.952 38.6882 120.32 39.0609 120.788 39.3342C121.256 39.6075 121.788 39.7441 122.395 39.7441C123.079 39.7441 123.674 39.5453 124.167 39.1478C124.661 38.7503 124.99 38.2285 125.142 37.5825H124.484C124.357 38.0794 124.091 38.4646 123.712 38.7503C123.319 39.036 122.864 39.1727 122.345 39.1727C121.889 39.1727 121.497 39.0733 121.142 38.8621C120.788 38.6509 120.509 38.3528 120.307 37.9801C120.104 37.6074 119.99 37.1726 119.99 36.6757C119.99 36.6136 119.99 36.5639 120.003 36.5266H125.23C125.23 36.4769 125.243 36.3899 125.243 36.2657C125.218 35.657 125.078 35.1228 124.825 34.6756C124.572 34.2284 124.218 33.8929 123.787 33.6569C123.344 33.4209 122.838 33.2966 122.281 33.2966C121.699 33.2966 121.193 33.4333 120.737 33.7066C120.282 33.9799 119.94 34.3526 119.687 34.8371ZM124.572 35.9924H120.041C120.066 35.57 120.193 35.1973 120.408 34.8744C120.611 34.5514 120.889 34.3029 121.218 34.129C121.547 33.9551 121.902 33.8557 122.294 33.8557C122.927 33.8557 123.458 34.042 123.863 34.4147C124.268 34.7874 124.509 35.3216 124.572 35.9924Z" fill="#161616"/>
<path d="M130.372 37.7316H129.727C129.739 38.3776 129.992 38.8745 130.486 39.2224C130.967 39.5702 131.625 39.7441 132.435 39.7441C133.131 39.7441 133.713 39.5826 134.194 39.2596C134.675 38.9366 134.916 38.4894 134.916 37.9428C134.916 37.5328 134.802 37.2098 134.574 36.9614C134.346 36.7254 134.068 36.5514 133.713 36.4396C133.359 36.3278 132.903 36.2284 132.359 36.1539C131.903 36.1042 131.562 36.0421 131.334 35.98C131.093 35.9303 130.891 35.8185 130.726 35.6694C130.562 35.5203 130.486 35.3092 130.486 35.0358C130.486 34.688 130.65 34.3899 130.98 34.1662C131.309 33.9426 131.739 33.8308 132.271 33.8308C132.777 33.8308 133.207 33.9551 133.549 34.1911C133.891 34.4271 134.093 34.7501 134.156 35.1477H134.802C134.739 34.5514 134.473 34.0917 134.017 33.7687C133.561 33.4457 132.967 33.2842 132.233 33.2842C131.777 33.2842 131.359 33.3712 131.005 33.5203C130.65 33.6693 130.359 33.8805 130.157 34.1538C129.954 34.4271 129.853 34.7377 129.853 35.0855C129.853 35.4831 129.954 35.7936 130.182 36.0173C130.397 36.2409 130.676 36.4024 131.017 36.5017C131.347 36.6011 131.79 36.6757 132.334 36.7502C132.764 36.8247 133.119 36.8869 133.384 36.9614C133.637 37.0359 133.853 37.1477 134.017 37.3092C134.182 37.4707 134.27 37.6943 134.27 37.9801C134.27 38.3528 134.093 38.6385 133.751 38.8621C133.397 39.0857 132.967 39.1975 132.435 39.1975C131.828 39.1975 131.334 39.0733 130.967 38.8124C130.587 38.5515 130.397 38.1913 130.372 37.7316Z" fill="#161616"/>
<path d="M141.499 33.3712H140.854V36.4645C140.854 37.2968 140.651 37.9552 140.272 38.4397C139.879 38.9242 139.348 39.1602 138.69 39.1602C138.082 39.1602 137.601 38.9739 137.272 38.5764C136.93 38.1788 136.766 37.6074 136.766 36.862V33.3712H136.12V36.8993C136.12 37.8434 136.335 38.5639 136.791 39.036C137.247 39.5081 137.842 39.7441 138.588 39.7441C139.133 39.7441 139.601 39.6199 139.981 39.3714C140.36 39.123 140.639 38.7751 140.841 38.3403L140.93 39.6696H141.499V33.3712Z" fill="#161616"/>
<path d="M147.677 33.6942C147.221 33.4333 146.702 33.2966 146.12 33.2966C145.538 33.2966 145.031 33.4333 144.614 33.7066C144.196 33.9799 143.88 34.3526 143.677 34.8122L143.576 33.3712H143.019V42.1541H143.664V38.2161C143.842 38.6882 144.145 39.0609 144.576 39.3342C145.006 39.6075 145.512 39.7441 146.12 39.7441C146.702 39.7441 147.221 39.6075 147.677 39.3342C148.132 39.0609 148.499 38.6882 148.752 38.1913C149.006 37.7068 149.145 37.1477 149.145 36.5142C149.145 35.8682 149.006 35.3092 148.752 34.8122C148.499 34.3277 148.132 33.9551 147.677 33.6942ZM147.322 38.8372C146.955 39.0609 146.537 39.1727 146.069 39.1727C145.588 39.1727 145.171 39.0609 144.804 38.8372C144.436 38.6136 144.158 38.3031 143.956 37.8931C143.753 37.4956 143.652 37.0235 143.652 36.5017C143.652 36.0048 143.753 35.5452 143.956 35.1477C144.158 34.7501 144.436 34.4271 144.804 34.2035C145.171 33.9799 145.588 33.8557 146.069 33.8557C146.537 33.8557 146.955 33.9799 147.322 34.2035C147.689 34.4271 147.98 34.7501 148.183 35.1477C148.385 35.5452 148.487 36.0048 148.487 36.5142C148.487 37.0359 148.385 37.4956 148.183 37.8931C147.98 38.3031 147.689 38.6136 147.322 38.8372Z" fill="#161616"/>
<path d="M150.599 34.8371C150.346 35.334 150.232 35.893 150.232 36.5142C150.232 37.1477 150.359 37.7068 150.612 38.1913C150.865 38.6882 151.232 39.0609 151.7 39.3342C152.169 39.6075 152.7 39.7441 153.308 39.7441C153.991 39.7441 154.586 39.5453 155.08 39.1478C155.573 38.7503 155.902 38.2285 156.054 37.5825H155.396C155.27 38.0794 155.004 38.4646 154.624 38.7503C154.232 39.036 153.776 39.1727 153.257 39.1727C152.801 39.1727 152.409 39.0733 152.055 38.8621C151.7 38.6509 151.422 38.3528 151.219 37.9801C151.017 37.6074 150.903 37.1726 150.903 36.6757C150.903 36.6136 150.903 36.5639 150.916 36.5266H156.143C156.143 36.4769 156.155 36.3899 156.155 36.2657C156.13 35.657 155.991 35.1228 155.738 34.6756C155.485 34.2284 155.13 33.8929 154.7 33.6569C154.257 33.4209 153.751 33.2966 153.194 33.2966C152.612 33.2966 152.105 33.4333 151.65 33.7066C151.194 33.9799 150.852 34.3526 150.599 34.8371ZM155.485 35.9924H150.954C150.979 35.57 151.105 35.1973 151.321 34.8744C151.523 34.5514 151.802 34.3029 152.131 34.129C152.46 33.9551 152.814 33.8557 153.206 33.8557C153.839 33.8557 154.371 34.042 154.776 34.4147C155.181 34.7874 155.421 35.3216 155.485 35.9924Z" fill="#161616"/>
<path d="M160.367 33.3712H160.075C159.519 33.3712 159.101 33.483 158.797 33.7066C158.493 33.9302 158.265 34.2408 158.114 34.6259L158.012 33.3712H157.455V39.6696H158.101V36.4769C158.101 35.7315 158.228 35.1352 158.506 34.6756C158.772 34.2159 159.253 33.9799 159.949 33.9799H160.367V33.3712Z" fill="#161616"/>
<path d="M166.195 34.0048C165.74 33.5327 165.119 33.2966 164.36 33.2966C163.778 33.2966 163.297 33.4457 162.917 33.719C162.525 34.0048 162.234 34.3899 162.044 34.8619V30.9736H161.398V39.6696H162.044V36.5639C162.044 35.744 162.234 35.098 162.639 34.6135C163.031 34.129 163.575 33.8805 164.259 33.8805C164.879 33.8805 165.36 34.0793 165.714 34.4768C166.069 34.8744 166.246 35.4334 166.246 36.1663V39.6696H166.891V36.1415C166.891 35.1973 166.651 34.4768 166.195 34.0048Z" fill="#161616"/>
<path d="M173.635 33.3712H172.99V36.4645C172.99 37.2968 172.787 37.9552 172.408 38.4397C172.015 38.9242 171.484 39.1602 170.826 39.1602C170.218 39.1602 169.737 38.9739 169.408 38.5764C169.066 38.1788 168.902 37.6074 168.902 36.862V33.3712H168.256V36.8993C168.256 37.8434 168.472 38.5639 168.927 39.036C169.383 39.5081 169.978 39.7441 170.724 39.7441C171.269 39.7441 171.737 39.6199 172.117 39.3714C172.496 39.123 172.775 38.7751 172.977 38.3403L173.066 39.6696H173.635V33.3712Z" fill="#161616"/>
<path d="M179.813 33.6942C179.357 33.4333 178.838 33.2966 178.256 33.2966C177.674 33.2966 177.167 33.4457 176.75 33.719C176.319 34.0048 176.003 34.3774 175.801 34.8371V30.9736H175.155V39.6696H175.712L175.813 38.2409C176.003 38.713 176.307 39.0733 176.737 39.3466C177.155 39.6199 177.661 39.7441 178.256 39.7441C178.838 39.7441 179.357 39.6075 179.813 39.3342C180.268 39.0609 180.635 38.6882 180.889 38.1913C181.142 37.7068 181.281 37.1477 181.281 36.5142C181.281 35.8682 181.142 35.3092 180.889 34.8122C180.635 34.3277 180.268 33.9551 179.813 33.6942ZM179.458 38.8372C179.091 39.0609 178.674 39.1727 178.205 39.1727C177.724 39.1727 177.307 39.0609 176.94 38.8372C176.573 38.6136 176.294 38.3031 176.092 37.8931C175.889 37.4956 175.788 37.0235 175.788 36.5017C175.788 36.0048 175.889 35.5452 176.092 35.1477C176.294 34.7501 176.573 34.4271 176.94 34.2035C177.307 33.9799 177.724 33.8557 178.205 33.8557C178.674 33.8557 179.091 33.9799 179.458 34.2035C179.825 34.4271 180.116 34.7501 180.319 35.1477C180.522 35.5452 180.623 36.0048 180.623 36.5142C180.623 37.0359 180.522 37.4956 180.319 37.8931C180.116 38.3031 179.825 38.6136 179.458 38.8372Z" fill="#161616"/>
<mask id="path-2-outside-1_94_107" maskUnits="userSpaceOnUse" x="-0.280884" y="-0.576981" width="182" height="31" fill="black">
<rect fill="white" x="-0.280884" y="-0.576981" width="182" height="31"/>
<path d="M18.5675 6.26511H13.6204L13.2001 8.3289C11.9067 6.80487 10.29 6.01111 8.2853 6.01111C6.83026 6.01111 5.5369 6.36036 4.37287 7.02712C3.20884 7.72564 2.33582 8.67815 1.68914 9.91642C1.04246 11.1547 0.719116 12.5835 0.719116 14.2027C0.719116 15.822 1.04246 17.2508 1.68914 18.4891C2.33582 19.7273 3.20884 20.6798 4.37287 21.3784C5.5369 22.0769 6.83026 22.3944 8.2853 22.3944C10.2577 22.3944 11.8744 21.7594 13.1031 20.4258V22.1404C13.1031 23.1564 12.7797 23.9184 12.1977 24.4264C11.5834 24.9662 10.7427 25.2202 9.708 25.2202C8.02662 25.2202 6.99193 24.5534 6.63626 23.1564H1.01012C1.04246 25.0932 1.81848 26.5854 3.30584 27.6332C4.79321 28.681 6.79793 29.189 9.28765 29.189C12.4564 29.189 14.8168 28.554 16.3042 27.2839C17.7915 26.0139 18.5675 24.3629 18.5675 22.3309V6.26511ZM12.1654 17.092C11.5834 17.7905 10.775 18.1398 9.74033 18.1398C8.70564 18.1398 7.89729 17.7905 7.31527 17.092C6.70092 16.3935 6.40992 15.441 6.40992 14.2662C6.40992 13.1232 6.70092 12.1707 7.31527 11.4404C7.89729 10.7419 8.70564 10.3609 9.74033 10.3609C10.775 10.3609 11.5834 10.7419 12.1654 11.4404C12.7474 12.1707 13.0384 13.1232 13.0384 14.2662C13.0384 15.441 12.7474 16.3935 12.1654 17.092Z"/>
<path d="M31.9505 6.26511H31.1421C29.9781 6.26511 29.0081 6.48737 28.2967 6.86837C27.553 7.28113 26.9387 7.88439 26.4537 8.67815L26.001 6.26511H20.8599V22.6484H26.4537V14.7742C26.4537 12.3612 27.5854 11.1229 29.8487 11.1229H31.9505V6.26511Z"/>
<path d="M51.6706 18.1398H51.3149C50.9269 18.1398 50.6682 18.0763 50.5066 17.9493C50.3449 17.8223 50.2802 17.5365 50.2802 17.1555V12.0755C50.2802 10.1069 49.6012 8.61465 48.2432 7.59863C46.8851 6.58262 44.9451 6.07461 42.4877 6.07461C40.095 6.07461 38.2196 6.55087 36.7969 7.47163C35.3742 8.42415 34.5659 9.72592 34.4365 11.4404H39.804C39.8363 10.9642 40.0626 10.5832 40.5153 10.2974C40.968 10.0117 41.5177 9.85292 42.229 9.85292C42.9727 9.85292 43.5871 10.0434 44.0397 10.3927C44.4924 10.7419 44.7511 11.1864 44.7511 11.7579V12.393H42.2937C39.6423 12.393 37.6053 12.901 36.2149 13.8535C34.7922 14.8377 34.1132 16.2348 34.1132 18.0128C34.1132 19.5686 34.6629 20.7751 35.8269 21.6006C36.9909 22.4261 38.5106 22.8389 40.386 22.8389C41.5824 22.8389 42.617 22.6166 43.4901 22.1404C44.3307 21.6641 45.0744 20.9338 45.7211 19.9813V20.1083C45.7211 20.9021 45.9475 21.5371 46.4648 21.9816C46.9498 22.4261 47.7582 22.6484 48.8575 22.6484H51.6706V18.1398ZM44.7511 15.7903V15.8538C44.7188 16.838 44.4277 17.6318 43.8457 18.2033C43.2637 18.7748 42.52 19.0606 41.5823 19.0606C41.0003 19.0606 40.5477 18.9336 40.2243 18.6796C39.901 18.4256 39.7393 18.0445 39.7393 17.6C39.7393 17.0603 39.9656 16.6158 40.4507 16.2983C40.9033 15.9808 41.55 15.7903 42.3907 15.7903H44.7511Z"/>
<path d="M68.989 7.85264C67.728 6.67787 66.1436 6.07461 64.2359 6.07461C63.0719 6.07461 62.1019 6.26511 61.3259 6.64612C60.5175 7.02712 59.8385 7.53513 59.2565 8.23364L58.8361 6.26511H53.9214V22.6484H59.5152V14.171C59.5152 12.9645 59.7738 12.0437 60.2912 11.4087C60.8085 10.7737 61.5845 10.4562 62.5546 10.4562C63.5246 10.4562 64.2036 10.7737 64.6563 11.3769C65.0766 12.012 65.303 12.9327 65.303 14.171V22.6484H70.8968V13.8852C70.8968 11.0277 70.2501 9.02741 68.989 7.85264Z"/>
<path d="M90.8967 0.423019H85.3029V8.07489C84.1065 6.74137 82.5545 6.07461 80.6145 6.07461C79.1594 6.07461 77.8661 6.42386 76.702 7.09063C75.538 7.78914 74.665 8.74165 74.0183 10.0117C73.3716 11.2817 73.0483 12.774 73.0483 14.425C73.0483 16.076 73.3716 17.5683 74.0183 18.8383C74.665 20.1083 75.538 21.0926 76.702 21.7911C77.8337 22.4896 79.1271 22.8389 80.6145 22.8389C82.6515 22.8389 84.2682 22.0769 85.4969 20.5211L85.9819 22.6484H90.8967V0.423019ZM84.4946 17.3778C83.9126 18.1398 83.1042 18.4891 82.0695 18.4891C81.0348 18.4891 80.2265 18.1398 79.6445 17.3778C79.0301 16.6475 78.7391 15.6633 78.7391 14.4567C78.7391 13.2502 79.0301 12.2977 79.6445 11.5357C80.2265 10.8054 81.0348 10.4244 82.0695 10.4244C83.1042 10.4244 83.9126 10.8054 84.4946 11.5357C85.0766 12.2977 85.3676 13.2502 85.3676 14.4567C85.3676 15.6633 85.0766 16.6475 84.4946 17.3778Z"/>
<path d="M107.331 7.09063C106.167 6.42386 104.873 6.07461 103.451 6.07461C101.511 6.07461 99.9263 6.74137 98.7622 8.07489V0.423019H93.1684V22.6484H98.0832L98.5682 20.5211C99.7646 22.0769 101.381 22.8389 103.451 22.8389C104.906 22.8389 106.199 22.4896 107.363 21.7911C108.495 21.0926 109.4 20.1083 110.047 18.8383C110.694 17.5683 111.017 16.076 111.017 14.425C111.017 12.774 110.694 11.2817 110.047 10.0117C109.4 8.74165 108.495 7.78914 107.331 7.09063ZM104.421 17.3778C103.806 18.1398 102.998 18.4891 101.996 18.4891C100.961 18.4891 100.153 18.1398 99.5706 17.3778C98.9886 16.6475 98.6976 15.6633 98.6976 14.4567C98.6976 13.2502 98.9886 12.2977 99.5706 11.5357C100.153 10.8054 100.961 10.4244 101.996 10.4244C102.998 10.4244 103.806 10.8054 104.421 11.5357C105.003 12.2977 105.326 13.2502 105.326 14.4567C105.326 15.6633 105.003 16.6475 104.421 17.3778Z"/>
<path d="M130.721 18.1398H130.366C129.978 18.1398 129.719 18.0763 129.557 17.9493C129.396 17.8223 129.331 17.5365 129.331 17.1555V12.0755C129.331 10.1069 128.652 8.61465 127.294 7.59863C125.936 6.58262 123.996 6.07461 121.538 6.07461C119.146 6.07461 117.27 6.55087 115.848 7.47163C114.425 8.42415 113.617 9.72592 113.487 11.4404H118.855C118.887 10.9642 119.113 10.5832 119.566 10.2974C120.019 10.0117 120.568 9.85292 121.28 9.85292C122.023 9.85292 122.638 10.0434 123.09 10.3927C123.543 10.7419 123.802 11.1864 123.802 11.7579V12.393H121.344C118.693 12.393 116.656 12.901 115.266 13.8535C113.843 14.8377 113.164 16.2348 113.164 18.0128C113.164 19.5686 113.714 20.7751 114.878 21.6006C116.042 22.4261 117.561 22.8389 119.437 22.8389C120.633 22.8389 121.668 22.6166 122.541 22.1404C123.381 21.6641 124.125 20.9338 124.772 19.9813V20.1083C124.772 20.9021 124.998 21.5371 125.516 21.9816C126.001 22.4261 126.809 22.6484 127.908 22.6484H130.721V18.1398ZM123.802 15.7903V15.8538C123.769 16.838 123.478 17.6318 122.896 18.2033C122.314 18.7748 121.571 19.0606 120.633 19.0606C120.051 19.0606 119.598 18.9336 119.275 18.6796C118.952 18.4256 118.79 18.0445 118.79 17.6C118.79 17.0603 119.016 16.6158 119.501 16.2983C119.954 15.9808 120.601 15.7903 121.441 15.7903H123.802Z"/>
<path d="M133.201 6.26511V10.8054H140.25L132.845 19.0288V22.6484H148.139V18.1081H140.379L147.783 9.88467V6.26511H133.201Z"/>
<path d="M167.939 18.1398H167.584C167.196 18.1398 166.937 18.0763 166.775 17.9493C166.614 17.8223 166.549 17.5365 166.549 17.1555V12.0755C166.549 10.1069 165.87 8.61465 164.512 7.59863C163.154 6.58262 161.214 6.07461 158.757 6.07461C156.364 6.07461 154.489 6.55087 153.066 7.47163C151.643 8.42415 150.835 9.72592 150.705 11.4404H156.073C156.105 10.9642 156.332 10.5832 156.784 10.2974C157.237 10.0117 157.787 9.85292 158.498 9.85292C159.242 9.85292 159.856 10.0434 160.309 10.3927C160.761 10.7419 161.02 11.1864 161.02 11.7579V12.393H158.563C155.911 12.393 153.874 12.901 152.484 13.8535C151.061 14.8377 150.382 16.2348 150.382 18.0128C150.382 19.5686 150.932 20.7751 152.096 21.6006C153.26 22.4261 154.78 22.8389 156.655 22.8389C157.851 22.8389 158.886 22.6166 159.759 22.1404C160.6 21.6641 161.343 20.9338 161.99 19.9813V20.1083C161.99 20.9021 162.216 21.5371 162.734 21.9816C163.219 22.4261 164.027 22.6484 165.126 22.6484H167.939V18.1398ZM161.02 15.7903V15.8538C160.988 16.838 160.697 17.6318 160.115 18.2033C159.533 18.7748 158.789 19.0606 157.851 19.0606C157.269 19.0606 156.817 18.9336 156.493 18.6796C156.17 18.4256 156.008 18.0445 156.008 17.6C156.008 17.0603 156.235 16.6158 156.72 16.2983C157.172 15.9808 157.819 15.7903 158.66 15.7903H161.02Z"/>
<path d="M181.281 6.26511H180.473C179.308 6.26511 178.338 6.48737 177.627 6.86837C176.883 7.28113 176.269 7.88439 175.784 8.67815L175.331 6.26511H170.19V22.6484H175.784V14.7742C175.784 12.3612 176.916 11.1229 179.179 11.1229H181.281V6.26511Z"/>
<path d="M18.711 6.26511H13.7639L13.3435 8.3289C12.0501 6.80487 10.4334 6.01111 8.42873 6.01111C6.97369 6.01111 5.68033 6.36036 4.5163 7.02712C3.35228 7.72564 2.47925 8.67815 1.83257 9.91642C1.18589 11.1547 0.862549 12.5835 0.862549 14.2027C0.862549 15.822 1.18589 17.2508 1.83257 18.4891C2.47925 19.7273 3.35228 20.6798 4.5163 21.3784C5.68033 22.0769 6.97369 22.3944 8.42873 22.3944C10.4011 22.3944 12.0178 21.7594 13.2465 20.4258V22.1404C13.2465 23.1564 12.9232 23.9184 12.3412 24.4264C11.7268 24.9662 10.8861 25.2202 9.85143 25.2202C8.17006 25.2202 7.13537 24.5534 6.77969 23.1564H1.15356C1.18589 25.0932 1.96191 26.5854 3.44928 27.6332C4.93665 28.681 6.94136 29.189 9.43109 29.189C12.5998 29.189 14.9602 28.554 16.4476 27.2839C17.935 26.0139 18.711 24.3629 18.711 22.3309V6.26511ZM12.3088 17.092C11.7268 17.7905 10.9185 18.1398 9.88376 18.1398C8.84907 18.1398 8.04072 17.7905 7.45871 17.092C6.84436 16.3935 6.55335 15.441 6.55335 14.2662C6.55335 13.1232 6.84436 12.1707 7.45871 11.4404C8.04072 10.7419 8.84907 10.3609 9.88376 10.3609C10.9185 10.3609 11.7268 10.7419 12.3088 11.4404C12.8908 12.1707 13.1818 13.1232 13.1818 14.2662C13.1818 15.441 12.8908 16.3935 12.3088 17.092Z"/>
</mask>
<path d="M18.5675 6.26511H13.6204L13.2001 8.3289C11.9067 6.80487 10.29 6.01111 8.2853 6.01111C6.83026 6.01111 5.5369 6.36036 4.37287 7.02712C3.20884 7.72564 2.33582 8.67815 1.68914 9.91642C1.04246 11.1547 0.719116 12.5835 0.719116 14.2027C0.719116 15.822 1.04246 17.2508 1.68914 18.4891C2.33582 19.7273 3.20884 20.6798 4.37287 21.3784C5.5369 22.0769 6.83026 22.3944 8.2853 22.3944C10.2577 22.3944 11.8744 21.7594 13.1031 20.4258V22.1404C13.1031 23.1564 12.7797 23.9184 12.1977 24.4264C11.5834 24.9662 10.7427 25.2202 9.708 25.2202C8.02662 25.2202 6.99193 24.5534 6.63626 23.1564H1.01012C1.04246 25.0932 1.81848 26.5854 3.30584 27.6332C4.79321 28.681 6.79793 29.189 9.28765 29.189C12.4564 29.189 14.8168 28.554 16.3042 27.2839C17.7915 26.0139 18.5675 24.3629 18.5675 22.3309V6.26511ZM12.1654 17.092C11.5834 17.7905 10.775 18.1398 9.74033 18.1398C8.70564 18.1398 7.89729 17.7905 7.31527 17.092C6.70092 16.3935 6.40992 15.441 6.40992 14.2662C6.40992 13.1232 6.70092 12.1707 7.31527 11.4404C7.89729 10.7419 8.70564 10.3609 9.74033 10.3609C10.775 10.3609 11.5834 10.7419 12.1654 11.4404C12.7474 12.1707 13.0384 13.1232 13.0384 14.2662C13.0384 15.441 12.7474 16.3935 12.1654 17.092Z" fill="#161616"/>
<path d="M31.9505 6.26511H31.1421C29.9781 6.26511 29.0081 6.48737 28.2967 6.86837C27.553 7.28113 26.9387 7.88439 26.4537 8.67815L26.001 6.26511H20.8599V22.6484H26.4537V14.7742C26.4537 12.3612 27.5854 11.1229 29.8487 11.1229H31.9505V6.26511Z" fill="#161616"/>
<path d="M51.6706 18.1398H51.3149C50.9269 18.1398 50.6682 18.0763 50.5066 17.9493C50.3449 17.8223 50.2802 17.5365 50.2802 17.1555V12.0755C50.2802 10.1069 49.6012 8.61465 48.2432 7.59863C46.8851 6.58262 44.9451 6.07461 42.4877 6.07461C40.095 6.07461 38.2196 6.55087 36.7969 7.47163C35.3742 8.42415 34.5659 9.72592 34.4365 11.4404H39.804C39.8363 10.9642 40.0626 10.5832 40.5153 10.2974C40.968 10.0117 41.5177 9.85292 42.229 9.85292C42.9727 9.85292 43.5871 10.0434 44.0397 10.3927C44.4924 10.7419 44.7511 11.1864 44.7511 11.7579V12.393H42.2937C39.6423 12.393 37.6053 12.901 36.2149 13.8535C34.7922 14.8377 34.1132 16.2348 34.1132 18.0128C34.1132 19.5686 34.6629 20.7751 35.8269 21.6006C36.9909 22.4261 38.5106 22.8389 40.386 22.8389C41.5824 22.8389 42.617 22.6166 43.4901 22.1404C44.3307 21.6641 45.0744 20.9338 45.7211 19.9813V20.1083C45.7211 20.9021 45.9475 21.5371 46.4648 21.9816C46.9498 22.4261 47.7582 22.6484 48.8575 22.6484H51.6706V18.1398ZM44.7511 15.7903V15.8538C44.7188 16.838 44.4277 17.6318 43.8457 18.2033C43.2637 18.7748 42.52 19.0606 41.5823 19.0606C41.0003 19.0606 40.5477 18.9336 40.2243 18.6796C39.901 18.4256 39.7393 18.0445 39.7393 17.6C39.7393 17.0603 39.9656 16.6158 40.4507 16.2983C40.9033 15.9808 41.55 15.7903 42.3907 15.7903H44.7511Z" fill="#161616"/>
<path d="M68.989 7.85264C67.728 6.67787 66.1436 6.07461 64.2359 6.07461C63.0719 6.07461 62.1019 6.26511 61.3259 6.64612C60.5175 7.02712 59.8385 7.53513 59.2565 8.23364L58.8361 6.26511H53.9214V22.6484H59.5152V14.171C59.5152 12.9645 59.7738 12.0437 60.2912 11.4087C60.8085 10.7737 61.5845 10.4562 62.5546 10.4562C63.5246 10.4562 64.2036 10.7737 64.6563 11.3769C65.0766 12.012 65.303 12.9327 65.303 14.171V22.6484H70.8968V13.8852C70.8968 11.0277 70.2501 9.02741 68.989 7.85264Z" fill="#161616"/>
<path d="M90.8967 0.423019H85.3029V8.07489C84.1065 6.74137 82.5545 6.07461 80.6145 6.07461C79.1594 6.07461 77.8661 6.42386 76.702 7.09063C75.538 7.78914 74.665 8.74165 74.0183 10.0117C73.3716 11.2817 73.0483 12.774 73.0483 14.425C73.0483 16.076 73.3716 17.5683 74.0183 18.8383C74.665 20.1083 75.538 21.0926 76.702 21.7911C77.8337 22.4896 79.1271 22.8389 80.6145 22.8389C82.6515 22.8389 84.2682 22.0769 85.4969 20.5211L85.9819 22.6484H90.8967V0.423019ZM84.4946 17.3778C83.9126 18.1398 83.1042 18.4891 82.0695 18.4891C81.0348 18.4891 80.2265 18.1398 79.6445 17.3778C79.0301 16.6475 78.7391 15.6633 78.7391 14.4567C78.7391 13.2502 79.0301 12.2977 79.6445 11.5357C80.2265 10.8054 81.0348 10.4244 82.0695 10.4244C83.1042 10.4244 83.9126 10.8054 84.4946 11.5357C85.0766 12.2977 85.3676 13.2502 85.3676 14.4567C85.3676 15.6633 85.0766 16.6475 84.4946 17.3778Z" fill="#161616"/>
<path d="M107.331 7.09063C106.167 6.42386 104.873 6.07461 103.451 6.07461C101.511 6.07461 99.9263 6.74137 98.7622 8.07489V0.423019H93.1684V22.6484H98.0832L98.5682 20.5211C99.7646 22.0769 101.381 22.8389 103.451 22.8389C104.906 22.8389 106.199 22.4896 107.363 21.7911C108.495 21.0926 109.4 20.1083 110.047 18.8383C110.694 17.5683 111.017 16.076 111.017 14.425C111.017 12.774 110.694 11.2817 110.047 10.0117C109.4 8.74165 108.495 7.78914 107.331 7.09063ZM104.421 17.3778C103.806 18.1398 102.998 18.4891 101.996 18.4891C100.961 18.4891 100.153 18.1398 99.5706 17.3778C98.9886 16.6475 98.6976 15.6633 98.6976 14.4567C98.6976 13.2502 98.9886 12.2977 99.5706 11.5357C100.153 10.8054 100.961 10.4244 101.996 10.4244C102.998 10.4244 103.806 10.8054 104.421 11.5357C105.003 12.2977 105.326 13.2502 105.326 14.4567C105.326 15.6633 105.003 16.6475 104.421 17.3778Z" fill="#161616"/>
<path d="M130.721 18.1398H130.366C129.978 18.1398 129.719 18.0763 129.557 17.9493C129.396 17.8223 129.331 17.5365 129.331 17.1555V12.0755C129.331 10.1069 128.652 8.61465 127.294 7.59863C125.936 6.58262 123.996 6.07461 121.538 6.07461C119.146 6.07461 117.27 6.55087 115.848 7.47163C114.425 8.42415 113.617 9.72592 113.487 11.4404H118.855C118.887 10.9642 119.113 10.5832 119.566 10.2974C120.019 10.0117 120.568 9.85292 121.28 9.85292C122.023 9.85292 122.638 10.0434 123.09 10.3927C123.543 10.7419 123.802 11.1864 123.802 11.7579V12.393H121.344C118.693 12.393 116.656 12.901 115.266 13.8535C113.843 14.8377 113.164 16.2348 113.164 18.0128C113.164 19.5686 113.714 20.7751 114.878 21.6006C116.042 22.4261 117.561 22.8389 119.437 22.8389C120.633 22.8389 121.668 22.6166 122.541 22.1404C123.381 21.6641 124.125 20.9338 124.772 19.9813V20.1083C124.772 20.9021 124.998 21.5371 125.516 21.9816C126.001 22.4261 126.809 22.6484 127.908 22.6484H130.721V18.1398ZM123.802 15.7903V15.8538C123.769 16.838 123.478 17.6318 122.896 18.2033C122.314 18.7748 121.571 19.0606 120.633 19.0606C120.051 19.0606 119.598 18.9336 119.275 18.6796C118.952 18.4256 118.79 18.0445 118.79 17.6C118.79 17.0603 119.016 16.6158 119.501 16.2983C119.954 15.9808 120.601 15.7903 121.441 15.7903H123.802Z" fill="#161616"/>
<path d="M133.201 6.26511V10.8054H140.25L132.845 19.0288V22.6484H148.139V18.1081H140.379L147.783 9.88467V6.26511H133.201Z" fill="#161616"/>
<path d="M167.939 18.1398H167.584C167.196 18.1398 166.937 18.0763 166.775 17.9493C166.614 17.8223 166.549 17.5365 166.549 17.1555V12.0755C166.549 10.1069 165.87 8.61465 164.512 7.59863C163.154 6.58262 161.214 6.07461 158.757 6.07461C156.364 6.07461 154.489 6.55087 153.066 7.47163C151.643 8.42415 150.835 9.72592 150.705 11.4404H156.073C156.105 10.9642 156.332 10.5832 156.784 10.2974C157.237 10.0117 157.787 9.85292 158.498 9.85292C159.242 9.85292 159.856 10.0434 160.309 10.3927C160.761 10.7419 161.02 11.1864 161.02 11.7579V12.393H158.563C155.911 12.393 153.874 12.901 152.484 13.8535C151.061 14.8377 150.382 16.2348 150.382 18.0128C150.382 19.5686 150.932 20.7751 152.096 21.6006C153.26 22.4261 154.78 22.8389 156.655 22.8389C157.851 22.8389 158.886 22.6166 159.759 22.1404C160.6 21.6641 161.343 20.9338 161.99 19.9813V20.1083C161.99 20.9021 162.216 21.5371 162.734 21.9816C163.219 22.4261 164.027 22.6484 165.126 22.6484H167.939V18.1398ZM161.02 15.7903V15.8538C160.988 16.838 160.697 17.6318 160.115 18.2033C159.533 18.7748 158.789 19.0606 157.851 19.0606C157.269 19.0606 156.817 18.9336 156.493 18.6796C156.17 18.4256 156.008 18.0445 156.008 17.6C156.008 17.0603 156.235 16.6158 156.72 16.2983C157.172 15.9808 157.819 15.7903 158.66 15.7903H161.02Z" fill="#161616"/>
<path d="M181.281 6.26511H180.473C179.308 6.26511 178.338 6.48737 177.627 6.86837C176.883 7.28113 176.269 7.88439 175.784 8.67815L175.331 6.26511H170.19V22.6484H175.784V14.7742C175.784 12.3612 176.916 11.1229 179.179 11.1229H181.281V6.26511Z" fill="#161616"/>
<path d="M18.711 6.26511H13.7639L13.3435 8.3289C12.0501 6.80487 10.4334 6.01111 8.42873 6.01111C6.97369 6.01111 5.68033 6.36036 4.5163 7.02712C3.35228 7.72564 2.47925 8.67815 1.83257 9.91642C1.18589 11.1547 0.862549 12.5835 0.862549 14.2027C0.862549 15.822 1.18589 17.2508 1.83257 18.4891C2.47925 19.7273 3.35228 20.6798 4.5163 21.3784C5.68033 22.0769 6.97369 22.3944 8.42873 22.3944C10.4011 22.3944 12.0178 21.7594 13.2465 20.4258V22.1404C13.2465 23.1564 12.9232 23.9184 12.3412 24.4264C11.7268 24.9662 10.8861 25.2202 9.85143 25.2202C8.17006 25.2202 7.13537 24.5534 6.77969 23.1564H1.15356C1.18589 25.0932 1.96191 26.5854 3.44928 27.6332C4.93665 28.681 6.94136 29.189 9.43109 29.189C12.5998 29.189 14.9602 28.554 16.4476 27.2839C17.935 26.0139 18.711 24.3629 18.711 22.3309V6.26511ZM12.3088 17.092C11.7268 17.7905 10.9185 18.1398 9.88376 18.1398C8.84907 18.1398 8.04072 17.7905 7.45871 17.092C6.84436 16.3935 6.55335 15.441 6.55335 14.2662C6.55335 13.1232 6.84436 12.1707 7.45871 11.4404C8.04072 10.7419 8.84907 10.3609 9.88376 10.3609C10.9185 10.3609 11.7268 10.7419 12.3088 11.4404C12.8908 12.1707 13.1818 13.1232 13.1818 14.2662C13.1818 15.441 12.8908 16.3935 12.3088 17.092Z" fill="#161616"/>
<path d="M18.5675 6.26511H13.6204L13.2001 8.3289C11.9067 6.80487 10.29 6.01111 8.2853 6.01111C6.83026 6.01111 5.5369 6.36036 4.37287 7.02712C3.20884 7.72564 2.33582 8.67815 1.68914 9.91642C1.04246 11.1547 0.719116 12.5835 0.719116 14.2027C0.719116 15.822 1.04246 17.2508 1.68914 18.4891C2.33582 19.7273 3.20884 20.6798 4.37287 21.3784C5.5369 22.0769 6.83026 22.3944 8.2853 22.3944C10.2577 22.3944 11.8744 21.7594 13.1031 20.4258V22.1404C13.1031 23.1564 12.7797 23.9184 12.1977 24.4264C11.5834 24.9662 10.7427 25.2202 9.708 25.2202C8.02662 25.2202 6.99193 24.5534 6.63626 23.1564H1.01012C1.04246 25.0932 1.81848 26.5854 3.30584 27.6332C4.79321 28.681 6.79793 29.189 9.28765 29.189C12.4564 29.189 14.8168 28.554 16.3042 27.2839C17.7915 26.0139 18.5675 24.3629 18.5675 22.3309V6.26511ZM12.1654 17.092C11.5834 17.7905 10.775 18.1398 9.74033 18.1398C8.70564 18.1398 7.89729 17.7905 7.31527 17.092C6.70092 16.3935 6.40992 15.441 6.40992 14.2662C6.40992 13.1232 6.70092 12.1707 7.31527 11.4404C7.89729 10.7419 8.70564 10.3609 9.74033 10.3609C10.775 10.3609 11.5834 10.7419 12.1654 11.4404C12.7474 12.1707 13.0384 13.1232 13.0384 14.2662C13.0384 15.441 12.7474 16.3935 12.1654 17.092Z" stroke="#161616" stroke-width="0.584733" mask="url(#path-2-outside-1_94_107)"/>
<path d="M31.9505 6.26511H31.1421C29.9781 6.26511 29.0081 6.48737 28.2967 6.86837C27.553 7.28113 26.9387 7.88439 26.4537 8.67815L26.001 6.26511H20.8599V22.6484H26.4537V14.7742C26.4537 12.3612 27.5854 11.1229 29.8487 11.1229H31.9505V6.26511Z" stroke="#161616" stroke-width="0.584733" mask="url(#path-2-outside-1_94_107)"/>
<path d="M51.6706 18.1398H51.3149C50.9269 18.1398 50.6682 18.0763 50.5066 17.9493C50.3449 17.8223 50.2802 17.5365 50.2802 17.1555V12.0755C50.2802 10.1069 49.6012 8.61465 48.2432 7.59863C46.8851 6.58262 44.9451 6.07461 42.4877 6.07461C40.095 6.07461 38.2196 6.55087 36.7969 7.47163C35.3742 8.42415 34.5659 9.72592 34.4365 11.4404H39.804C39.8363 10.9642 40.0626 10.5832 40.5153 10.2974C40.968 10.0117 41.5177 9.85292 42.229 9.85292C42.9727 9.85292 43.5871 10.0434 44.0397 10.3927C44.4924 10.7419 44.7511 11.1864 44.7511 11.7579V12.393H42.2937C39.6423 12.393 37.6053 12.901 36.2149 13.8535C34.7922 14.8377 34.1132 16.2348 34.1132 18.0128C34.1132 19.5686 34.6629 20.7751 35.8269 21.6006C36.9909 22.4261 38.5106 22.8389 40.386 22.8389C41.5824 22.8389 42.617 22.6166 43.4901 22.1404C44.3307 21.6641 45.0744 20.9338 45.7211 19.9813V20.1083C45.7211 20.9021 45.9475 21.5371 46.4648 21.9816C46.9498 22.4261 47.7582 22.6484 48.8575 22.6484H51.6706V18.1398ZM44.7511 15.7903V15.8538C44.7188 16.838 44.4277 17.6318 43.8457 18.2033C43.2637 18.7748 42.52 19.0606 41.5823 19.0606C41.0003 19.0606 40.5477 18.9336 40.2243 18.6796C39.901 18.4256 39.7393 18.0445 39.7393 17.6C39.7393 17.0603 39.9656 16.6158 40.4507 16.2983C40.9033 15.9808 41.55 15.7903 42.3907 15.7903H44.7511Z" stroke="#161616" stroke-width="0.584733" mask="url(#path-2-outside-1_94_107)"/>
<path d="M68.989 7.85264C67.728 6.67787 66.1436 6.07461 64.2359 6.07461C63.0719 6.07461 62.1019 6.26511 61.3259 6.64612C60.5175 7.02712 59.8385 7.53513 59.2565 8.23364L58.8361 6.26511H53.9214V22.6484H59.5152V14.171C59.5152 12.9645 59.7738 12.0437 60.2912 11.4087C60.8085 10.7737 61.5845 10.4562 62.5546 10.4562C63.5246 10.4562 64.2036 10.7737 64.6563 11.3769C65.0766 12.012 65.303 12.9327 65.303 14.171V22.6484H70.8968V13.8852C70.8968 11.0277 70.2501 9.02741 68.989 7.85264Z" stroke="#161616" stroke-width="0.584733" mask="url(#path-2-outside-1_94_107)"/>
<path d="M90.8967 0.423019H85.3029V8.07489C84.1065 6.74137 82.5545 6.07461 80.6145 6.07461C79.1594 6.07461 77.8661 6.42386 76.702 7.09063C75.538 7.78914 74.665 8.74165 74.0183 10.0117C73.3716 11.2817 73.0483 12.774 73.0483 14.425C73.0483 16.076 73.3716 17.5683 74.0183 18.8383C74.665 20.1083 75.538 21.0926 76.702 21.7911C77.8337 22.4896 79.1271 22.8389 80.6145 22.8389C82.6515 22.8389 84.2682 22.0769 85.4969 20.5211L85.9819 22.6484H90.8967V0.423019ZM84.4946 17.3778C83.9126 18.1398 83.1042 18.4891 82.0695 18.4891C81.0348 18.4891 80.2265 18.1398 79.6445 17.3778C79.0301 16.6475 78.7391 15.6633 78.7391 14.4567C78.7391 13.2502 79.0301 12.2977 79.6445 11.5357C80.2265 10.8054 81.0348 10.4244 82.0695 10.4244C83.1042 10.4244 83.9126 10.8054 84.4946 11.5357C85.0766 12.2977 85.3676 13.2502 85.3676 14.4567C85.3676 15.6633 85.0766 16.6475 84.4946 17.3778Z" stroke="#161616" stroke-width="0.584733" mask="url(#path-2-outside-1_94_107)"/>
<path d="M107.331 7.09063C106.167 6.42386 104.873 6.07461 103.451 6.07461C101.511 6.07461 99.9263 6.74137 98.7622 8.07489V0.423019H93.1684V22.6484H98.0832L98.5682 20.5211C99.7646 22.0769 101.381 22.8389 103.451 22.8389C104.906 22.8389 106.199 22.4896 107.363 21.7911C108.495 21.0926 109.4 20.1083 110.047 18.8383C110.694 17.5683 111.017 16.076 111.017 14.425C111.017 12.774 110.694 11.2817 110.047 10.0117C109.4 8.74165 108.495 7.78914 107.331 7.09063ZM104.421 17.3778C103.806 18.1398 102.998 18.4891 101.996 18.4891C100.961 18.4891 100.153 18.1398 99.5706 17.3778C98.9886 16.6475 98.6976 15.6633 98.6976 14.4567C98.6976 13.2502 98.9886 12.2977 99.5706 11.5357C100.153 10.8054 100.961 10.4244 101.996 10.4244C102.998 10.4244 103.806 10.8054 104.421 11.5357C105.003 12.2977 105.326 13.2502 105.326 14.4567C105.326 15.6633 105.003 16.6475 104.421 17.3778Z" stroke="#161616" stroke-width="0.584733" mask="url(#path-2-outside-1_94_107)"/>
<path d="M130.721 18.1398H130.366C129.978 18.1398 129.719 18.0763 129.557 17.9493C129.396 17.8223 129.331 17.5365 129.331 17.1555V12.0755C129.331 10.1069 128.652 8.61465 127.294 7.59863C125.936 6.58262 123.996 6.07461 121.538 6.07461C119.146 6.07461 117.27 6.55087 115.848 7.47163C114.425 8.42415 113.617 9.72592 113.487 11.4404H118.855C118.887 10.9642 119.113 10.5832 119.566 10.2974C120.019 10.0117 120.568 9.85292 121.28 9.85292C122.023 9.85292 122.638 10.0434 123.09 10.3927C123.543 10.7419 123.802 11.1864 123.802 11.7579V12.393H121.344C118.693 12.393 116.656 12.901 115.266 13.8535C113.843 14.8377 113.164 16.2348 113.164 18.0128C113.164 19.5686 113.714 20.7751 114.878 21.6006C116.042 22.4261 117.561 22.8389 119.437 22.8389C120.633 22.8389 121.668 22.6166 122.541 22.1404C123.381 21.6641 124.125 20.9338 124.772 19.9813V20.1083C124.772 20.9021 124.998 21.5371 125.516 21.9816C126.001 22.4261 126.809 22.6484 127.908 22.6484H130.721V18.1398ZM123.802 15.7903V15.8538C123.769 16.838 123.478 17.6318 122.896 18.2033C122.314 18.7748 121.571 19.0606 120.633 19.0606C120.051 19.0606 119.598 18.9336 119.275 18.6796C118.952 18.4256 118.79 18.0445 118.79 17.6C118.79 17.0603 119.016 16.6158 119.501 16.2983C119.954 15.9808 120.601 15.7903 121.441 15.7903H123.802Z" stroke="#161616" stroke-width="0.584733" mask="url(#path-2-outside-1_94_107)"/>
<path d="M133.201 6.26511V10.8054H140.25L132.845 19.0288V22.6484H148.139V18.1081H140.379L147.783 9.88467V6.26511H133.201Z" stroke="#161616" stroke-width="0.584733" mask="url(#path-2-outside-1_94_107)"/>
<path d="M167.939 18.1398H167.584C167.196 18.1398 166.937 18.0763 166.775 17.9493C166.614 17.8223 166.549 17.5365 166.549 17.1555V12.0755C166.549 10.1069 165.87 8.61465 164.512 7.59863C163.154 6.58262 161.214 6.07461 158.757 6.07461C156.364 6.07461 154.489 6.55087 153.066 7.47163C151.643 8.42415 150.835 9.72592 150.705 11.4404H156.073C156.105 10.9642 156.332 10.5832 156.784 10.2974C157.237 10.0117 157.787 9.85292 158.498 9.85292C159.242 9.85292 159.856 10.0434 160.309 10.3927C160.761 10.7419 161.02 11.1864 161.02 11.7579V12.393H158.563C155.911 12.393 153.874 12.901 152.484 13.8535C151.061 14.8377 150.382 16.2348 150.382 18.0128C150.382 19.5686 150.932 20.7751 152.096 21.6006C153.26 22.4261 154.78 22.8389 156.655 22.8389C157.851 22.8389 158.886 22.6166 159.759 22.1404C160.6 21.6641 161.343 20.9338 161.99 19.9813V20.1083C161.99 20.9021 162.216 21.5371 162.734 21.9816C163.219 22.4261 164.027 22.6484 165.126 22.6484H167.939V18.1398ZM161.02 15.7903V15.8538C160.988 16.838 160.697 17.6318 160.115 18.2033C159.533 18.7748 158.789 19.0606 157.851 19.0606C157.269 19.0606 156.817 18.9336 156.493 18.6796C156.17 18.4256 156.008 18.0445 156.008 17.6C156.008 17.0603 156.235 16.6158 156.72 16.2983C157.172 15.9808 157.819 15.7903 158.66 15.7903H161.02Z" stroke="#161616" stroke-width="0.584733" mask="url(#path-2-outside-1_94_107)"/>
<path d="M181.281 6.26511H180.473C179.308 6.26511 178.338 6.48737 177.627 6.86837C176.883 7.28113 176.269 7.88439 175.784 8.67815L175.331 6.26511H170.19V22.6484H175.784V14.7742C175.784 12.3612 176.916 11.1229 179.179 11.1229H181.281V6.26511Z" stroke="#161616" stroke-width="0.584733" mask="url(#path-2-outside-1_94_107)"/>
<path d="M18.711 6.26511H13.7639L13.3435 8.3289C12.0501 6.80487 10.4334 6.01111 8.42873 6.01111C6.97369 6.01111 5.68033 6.36036 4.5163 7.02712C3.35228 7.72564 2.47925 8.67815 1.83257 9.91642C1.18589 11.1547 0.862549 12.5835 0.862549 14.2027C0.862549 15.822 1.18589 17.2508 1.83257 18.4891C2.47925 19.7273 3.35228 20.6798 4.5163 21.3784C5.68033 22.0769 6.97369 22.3944 8.42873 22.3944C10.4011 22.3944 12.0178 21.7594 13.2465 20.4258V22.1404C13.2465 23.1564 12.9232 23.9184 12.3412 24.4264C11.7268 24.9662 10.8861 25.2202 9.85143 25.2202C8.17006 25.2202 7.13537 24.5534 6.77969 23.1564H1.15356C1.18589 25.0932 1.96191 26.5854 3.44928 27.6332C4.93665 28.681 6.94136 29.189 9.43109 29.189C12.5998 29.189 14.9602 28.554 16.4476 27.2839C17.935 26.0139 18.711 24.3629 18.711 22.3309V6.26511ZM12.3088 17.092C11.7268 17.7905 10.9185 18.1398 9.88376 18.1398C8.84907 18.1398 8.04072 17.7905 7.45871 17.092C6.84436 16.3935 6.55335 15.441 6.55335 14.2662C6.55335 13.1232 6.84436 12.1707 7.45871 11.4404C8.04072 10.7419 8.84907 10.3609 9.88376 10.3609C10.9185 10.3609 11.7268 10.7419 12.3088 11.4404C12.8908 12.1707 13.1818 13.1232 13.1818 14.2662C13.1818 15.441 12.8908 16.3935 12.3088 17.092Z" stroke="#161616" stroke-width="0.584733" mask="url(#path-2-outside-1_94_107)"/>
</svg>
