<svg width="18" height="18" viewBox="0 0 18 18" fill="none" xmlns="http://www.w3.org/2000/svg">
<path fill-rule="evenodd" clip-rule="evenodd" d="M9.00004 6.33335C8.21764 6.33335 7.58337 6.96762 7.58337 7.75002C7.58337 8.53242 8.21764 9.16669 9.00004 9.16669C9.78244 9.16669 10.4167 8.53242 10.4167 7.75002C10.4167 6.96762 9.78244 6.33335 9.00004 6.33335ZM6.08337 7.75002C6.08337 6.13919 7.38921 4.83335 9.00004 4.83335C10.6109 4.83335 11.9167 6.13919 11.9167 7.75002C11.9167 9.36085 10.6109 10.6667 9.00004 10.6667C7.38921 10.6667 6.08337 9.36085 6.08337 7.75002Z" fill="#161616"/>
<path fill-rule="evenodd" clip-rule="evenodd" d="M9.00012 0.75C6.72215 0.75 4.65863 1.67423 3.16649 3.16637C1.67436 4.6585 0.750122 6.72203 0.750122 9C0.750122 11.278 1.67436 13.3415 3.16649 14.8336C4.65863 16.3258 6.72215 17.25 9.00012 17.25C11.2781 17.25 13.3416 16.3258 14.8338 14.8336C16.3259 13.3415 17.2501 11.278 17.2501 9C17.2501 6.72203 16.3259 4.6585 14.8338 3.16637C13.3416 1.67423 11.2781 0.75 9.00012 0.75ZM12.6521 14.6779C11.6461 13.8874 10.3786 13.4167 9.00011 13.4167C7.62166 13.4167 6.35416 13.8874 5.34811 14.6779C6.40096 15.3566 7.65422 15.75 9.00012 15.75C10.346 15.75 11.5993 15.3566 12.6521 14.6779ZM4.22715 4.22703C5.44948 3.0047 7.13595 2.25 9.00012 2.25C10.8643 2.25 12.5508 3.0047 13.7731 4.22703C14.9954 5.44936 15.7501 7.13583 15.7501 9C15.7501 10.8322 15.0211 12.4927 13.8356 13.7096C12.5377 12.5927 10.8473 11.9167 9.00011 11.9167C7.15296 11.9167 5.46255 12.5927 4.16461 13.7096C2.97913 12.4927 2.25012 10.8322 2.25012 9C2.25012 7.13583 3.00482 5.44936 4.22715 4.22703ZM6.08337 7.75002C6.08337 6.13919 7.38921 4.83335 9.00004 4.83335C10.6109 4.83335 11.9167 6.13919 11.9167 7.75002C11.9167 9.36085 10.6109 10.6667 9.00004 10.6667C7.38921 10.6667 6.08337 9.36085 6.08337 7.75002ZM9.00004 6.33335C8.21764 6.33335 7.58337 6.96762 7.58337 7.75002C7.58337 8.53242 8.21764 9.16669 9.00004 9.16669C9.78244 9.16669 10.4167 8.53242 10.4167 7.75002C10.4167 6.96762 9.78244 6.33335 9.00004 6.33335Z" fill="#161616"/>
</svg>
