<svg width="180" height="53" viewBox="0 0 180 53" fill="none" xmlns="http://www.w3.org/2000/svg">
<path d="M179 46.5031C179 49.2743 176.709 51.5189 173.874 51.5189H6.13243C3.2995 51.5189 1 49.2743 1 46.5031V6.50357C1 3.73374 3.2995 1.4812 6.13243 1.4812H173.873C176.709 1.4812 178.999 3.73374 178.999 6.50357L179 46.5031Z" fill="#161616"/>
<path d="M173.333 1.54169C176.42 1.54169 178.932 3.99056 178.932 7.00006V46.0001C178.932 49.0096 176.42 51.4584 173.333 51.4584H6.66667C3.58 51.4584 1.06833 49.0096 1.06833 46.0001V7.00006C1.06833 3.99056 3.58 1.54169 6.66667 1.54169H173.333ZM173.333 0.500064H6.66667C3.00167 0.500064 0 3.42669 0 7.00006V46.0001C0 49.5734 3.00167 52.5001 6.66667 52.5001H173.333C176.998 52.5001 180 49.5734 180 46.0001V7.00006C180 3.42669 176.998 0.500064 173.333 0.500064Z" fill="#A6A6A6"/>
<path d="M40.1707 26.2192C40.132 22.0294 43.6894 19.991 43.852 19.8961C41.8374 17.0322 38.7147 16.6409 37.6174 16.6097C34.9947 16.3406 32.4507 18.1398 31.1147 18.1398C29.752 18.1398 27.6947 16.6357 25.4774 16.6799C22.624 16.7228 19.9547 18.3335 18.4907 20.8347C15.4694 25.9345 17.7227 33.429 20.6174 37.5513C22.0654 39.5702 23.7574 41.8244 25.972 41.7451C28.1387 41.658 28.948 40.3983 31.5627 40.3983C34.1534 40.3983 34.9134 41.7451 37.172 41.6944C39.4974 41.658 40.9614 39.6664 42.3587 37.6293C44.032 35.3153 44.704 33.0365 44.7307 32.9195C44.676 32.9013 40.2147 31.2411 40.1707 26.2192Z" fill="white"/>
<path d="M35.904 13.8979C37.0694 12.477 37.8667 10.5439 37.6454 8.58215C35.9587 8.65495 33.8494 9.71965 32.6347 11.1094C31.56 12.334 30.6 14.3412 30.848 16.2288C32.7427 16.3666 34.688 15.2967 35.904 13.8979Z" fill="white"/>
<path d="M71.5267 41.4552H68.4987L66.84 36.3735H61.0747L59.4947 41.4552H56.5467L62.2587 24.1548H65.7867L71.5267 41.4552ZM66.34 34.2415L64.84 29.724C64.6813 29.2625 64.384 28.1757 63.9453 26.4649H63.892C63.7173 27.2007 63.436 28.2875 63.0493 29.724L61.576 34.2415H66.34Z" fill="white"/>
<path d="M86.216 35.0645C86.216 37.1861 85.628 38.8631 84.452 40.0942C83.3987 41.1901 82.0907 41.7374 80.5293 41.7374C78.844 41.7374 77.6333 41.1472 76.896 39.9668H76.8427V46.5383H74V33.0872C74 31.7534 73.964 30.3845 73.8947 28.9805H76.3947L76.5533 30.9578H76.6067C77.5547 29.468 78.9933 28.7244 80.924 28.7244C82.4333 28.7244 83.6933 29.3055 84.7013 30.469C85.712 31.6338 86.216 33.1652 86.216 35.0645ZM83.32 35.1659C83.32 33.9517 83.04 32.9507 82.4773 32.1629C81.8627 31.3413 81.0373 30.9305 80.0027 30.9305C79.3013 30.9305 78.664 31.1593 78.0947 31.6104C77.524 32.0654 77.1506 32.6595 76.976 33.3953C76.888 33.7385 76.844 34.0193 76.844 34.2403V36.3203C76.844 37.2277 77.1293 37.9934 77.7 38.6187C78.2707 39.244 79.012 39.556 79.924 39.556C80.9947 39.556 81.828 39.153 82.424 38.3496C83.0213 37.5449 83.32 36.4841 83.32 35.1659Z" fill="white"/>
<path d="M100.932 35.0645C100.932 37.1861 100.344 38.8631 99.1667 40.0942C98.1147 41.1901 96.8067 41.7374 95.2453 41.7374C93.56 41.7374 92.3493 41.1472 91.6133 39.9668H91.56V46.5383H88.7173V33.0872C88.7173 31.7534 88.6813 30.3845 88.612 28.9805H91.112L91.2707 30.9578H91.324C92.2707 29.468 93.7093 28.7244 95.6413 28.7244C97.1493 28.7244 98.4093 29.3055 99.42 30.469C100.427 31.6338 100.932 33.1652 100.932 35.0645ZM98.036 35.1659C98.036 33.9517 97.7547 32.9507 97.192 32.1629C96.5773 31.3413 95.7547 30.9305 94.7187 30.9305C94.016 30.9305 93.38 31.1593 92.8093 31.6104C92.2387 32.0654 91.8667 32.6595 91.692 33.3953C91.6053 33.7385 91.56 34.0193 91.56 34.2403V36.3203C91.56 37.2277 91.8453 37.9934 92.4133 38.6187C92.984 39.2427 93.7253 39.556 94.64 39.556C95.7107 39.556 96.544 39.153 97.14 38.3496C97.7373 37.5449 98.036 36.4841 98.036 35.1659Z" fill="white"/>
<path d="M117.385 36.6037C117.385 38.0753 116.861 39.2726 115.809 40.1969C114.653 41.207 113.044 41.7114 110.976 41.7114C109.067 41.7114 107.536 41.3526 106.377 40.6337L107.036 38.3236C108.284 39.0594 109.653 39.4286 111.145 39.4286C112.216 39.4286 113.049 39.192 113.648 38.7214C114.244 38.2508 114.541 37.619 114.541 36.8312C114.541 36.1292 114.296 35.5377 113.804 35.058C113.315 34.5783 112.497 34.1324 111.356 33.7203C108.249 32.5906 106.697 30.9357 106.697 28.7595C106.697 27.3373 107.241 26.1712 108.331 25.2638C109.416 24.3551 110.864 23.9014 112.675 23.9014C114.289 23.9014 115.631 24.1757 116.701 24.723L115.991 26.9824C114.991 26.452 113.86 26.1868 112.595 26.1868C111.595 26.1868 110.813 26.4273 110.253 26.9057C109.78 27.3334 109.543 27.8547 109.543 28.4722C109.543 29.156 109.813 29.7215 110.357 30.1661C110.831 30.5769 111.691 31.0215 112.939 31.5012C114.465 32.1005 115.587 32.8012 116.308 33.6046C117.027 34.4054 117.385 35.4077 117.385 36.6037Z" fill="white"/>
<path d="M126.784 31.0604H123.651V37.1171C123.651 38.6576 124.203 39.4272 125.309 39.4272C125.817 39.4272 126.239 39.3843 126.572 39.2985L126.651 41.4032C126.091 41.6073 125.353 41.71 124.44 41.71C123.317 41.71 122.44 41.3759 121.807 40.709C121.176 40.0408 120.859 38.9202 120.859 37.3459V31.0578H118.992V28.9778H120.859V26.6937L123.651 25.8721V28.9778H126.784V31.0604Z" fill="white"/>
<path d="M140.921 35.1151C140.921 37.0326 140.359 38.6069 139.236 39.838C138.059 41.1055 136.496 41.7373 134.548 41.7373C132.671 41.7373 131.176 41.1302 130.061 39.916C128.947 38.7018 128.389 37.1691 128.389 35.3218C128.389 33.3887 128.963 31.8053 130.113 30.5742C131.261 29.3418 132.811 28.7256 134.759 28.7256C136.636 28.7256 138.147 29.3327 139.287 30.5482C140.377 31.7273 140.921 33.2496 140.921 35.1151ZM137.972 35.2048C137.972 34.0543 137.72 33.0676 137.209 32.2447C136.613 31.2489 135.761 30.7523 134.657 30.7523C133.515 30.7523 132.647 31.2502 132.051 32.2447C131.54 33.0689 131.288 34.0712 131.288 35.2568C131.288 36.4073 131.54 37.394 132.051 38.2156C132.665 39.2114 133.524 39.708 134.632 39.708C135.717 39.708 136.569 39.201 137.184 38.1896C137.708 37.3511 137.972 36.354 137.972 35.2048Z" fill="white"/>
<path d="M150.161 31.418C149.88 31.3673 149.58 31.3413 149.265 31.3413C148.265 31.3413 147.492 31.7092 146.948 32.4463C146.475 33.0963 146.237 33.9179 146.237 34.9098V41.4553H143.396L143.423 32.9091C143.423 31.4713 143.387 30.1622 143.316 28.9818H145.792L145.896 31.3686H145.975C146.275 30.5483 146.748 29.8879 147.396 29.3926C148.029 28.9467 148.713 28.7244 149.451 28.7244C149.713 28.7244 149.951 28.7426 150.161 28.7751V31.418Z" fill="white"/>
<path d="M162.875 34.6277C162.875 35.1243 162.841 35.5429 162.771 35.8848H154.243C154.276 37.1172 154.688 38.0597 155.48 38.7097C156.199 39.2908 157.128 39.582 158.269 39.582C159.532 39.582 160.684 39.3857 161.72 38.9918L162.165 40.9158C160.955 41.4306 159.525 41.6867 157.876 41.6867C155.892 41.6867 154.335 41.1173 153.201 39.9798C152.071 38.8423 151.504 37.3148 151.504 35.3986C151.504 33.5175 152.031 31.951 153.085 30.7017C154.189 29.3679 155.681 28.701 157.559 28.701C159.403 28.701 160.799 29.3679 161.747 30.7017C162.497 31.7612 162.875 33.0716 162.875 34.6277ZM160.164 33.9088C160.183 33.0872 159.997 32.3774 159.612 31.7781C159.12 31.0072 158.364 30.6224 157.347 30.6224C156.417 30.6224 155.661 30.9981 155.084 31.7521C154.611 32.3514 154.329 33.0703 154.243 33.9075H160.164V33.9088Z" fill="white"/>
<path d="M65.4 13.5118C65.4 15.0419 64.9294 16.1937 63.9894 16.9672C63.1187 17.6809 61.8814 18.0384 60.2787 18.0384C59.484 18.0384 58.804 18.0046 58.2347 17.937V9.5767C58.9773 9.4597 59.7773 9.3999 60.6413 9.3999C62.168 9.3999 63.3187 9.7236 64.0947 10.371C64.964 11.1029 65.4 12.1494 65.4 13.5118ZM63.9267 13.5495C63.9267 12.5576 63.6574 11.7971 63.1187 11.2667C62.58 10.7376 61.7934 10.4724 60.7574 10.4724C60.3174 10.4724 59.9427 10.501 59.632 10.5608V16.9165C59.804 16.9425 60.1187 16.9542 60.576 16.9542C61.6454 16.9542 62.4707 16.6643 63.052 16.0845C63.6334 15.5047 63.9267 14.6597 63.9267 13.5495Z" fill="white"/>
<path d="M73.212 14.8482C73.212 15.7907 72.936 16.5629 72.384 17.1687C71.8054 17.7914 71.0387 18.1021 70.0814 18.1021C69.1587 18.1021 68.424 17.8044 67.876 17.2064C67.3294 16.6097 67.056 15.857 67.056 14.9496C67.056 14.0006 67.3374 13.2219 67.9027 12.6174C68.468 12.0129 69.228 11.71 70.1854 11.71C71.108 11.71 71.8494 12.0077 72.4107 12.6044C72.944 13.1842 73.212 13.933 73.212 14.8482ZM71.7627 14.8924C71.7627 14.3269 71.6374 13.842 71.388 13.4377C71.0947 12.9489 70.6774 12.7045 70.1347 12.7045C69.5734 12.7045 69.1467 12.9489 68.8534 13.4377C68.6027 13.842 68.4787 14.3347 68.4787 14.9171C68.4787 15.4826 68.604 15.9675 68.8534 16.3718C69.156 16.8606 69.5774 17.105 70.1214 17.105C70.6547 17.105 71.0734 16.8567 71.3747 16.3588C71.6334 15.9467 71.7627 15.4579 71.7627 14.8924Z" fill="white"/>
<path d="M83.6867 11.8348L81.72 17.963H80.44L79.6253 15.3019C79.4187 14.6376 79.2507 13.9772 79.12 13.322H79.0947C78.9733 13.9954 78.8053 14.6545 78.5893 15.3019L77.724 17.963H76.4293L74.58 11.8348H76.016L76.7267 14.7481C76.8987 15.4371 77.04 16.0936 77.1533 16.715H77.1787C77.2827 16.2028 77.4547 15.5502 77.6973 14.7611L78.5893 11.8361H79.728L80.5827 14.6987C80.7893 15.3968 80.9573 16.0689 81.0867 16.7163H81.1253C81.22 16.0858 81.3627 15.4137 81.552 14.6987L82.3147 11.8361H83.6867V11.8348Z" fill="white"/>
<path d="M90.9307 17.963H89.5333V14.453C89.5333 13.3714 89.112 12.8306 88.2667 12.8306C87.852 12.8306 87.5173 12.9788 87.2574 13.2765C87 13.5742 86.8694 13.9252 86.8694 14.3269V17.9617H85.472V13.5859C85.472 13.0477 85.4547 12.464 85.4214 11.8322H86.6494L86.7147 12.7903H86.7534C86.916 12.4926 87.1587 12.2469 87.4774 12.0506C87.856 11.8218 88.28 11.7061 88.744 11.7061C89.3307 11.7061 89.8187 11.8907 90.2067 12.2612C90.6893 12.7149 90.9307 13.3922 90.9307 14.2918V17.963Z" fill="white"/>
<path d="M94.784 17.963H93.388V9.02289H94.784V17.963Z" fill="white"/>
<path d="M103.011 14.8482C103.011 15.7907 102.735 16.5629 102.183 17.1687C101.604 17.7914 100.836 18.1021 99.88 18.1021C98.956 18.1021 98.2213 17.8044 97.6747 17.2064C97.128 16.6097 96.8547 15.857 96.8547 14.9496C96.8547 14.0006 97.136 13.2219 97.7013 12.6174C98.2667 12.0129 99.0267 11.71 99.9827 11.71C100.907 11.71 101.647 12.0077 102.209 12.6044C102.743 13.1842 103.011 13.933 103.011 14.8482ZM101.56 14.8924C101.56 14.3269 101.435 13.842 101.185 13.4377C100.893 12.9489 100.475 12.7045 99.9333 12.7045C99.3707 12.7045 98.944 12.9489 98.652 13.4377C98.4013 13.842 98.2773 14.3347 98.2773 14.9171C98.2773 15.4826 98.4027 15.9675 98.652 16.3718C98.9547 16.8606 99.376 17.105 99.92 17.105C100.453 17.105 100.871 16.8567 101.172 16.3588C101.432 15.9467 101.56 15.4579 101.56 14.8924Z" fill="white"/>
<path d="M109.773 17.963H108.519L108.415 17.2571H108.376C107.947 17.82 107.335 18.1021 106.54 18.1021C105.947 18.1021 105.467 17.9162 105.105 17.547C104.777 17.2116 104.613 16.7943 104.613 16.299C104.613 15.5502 104.933 14.9795 105.577 14.5843C106.22 14.1891 107.124 13.9954 108.288 14.0045V13.8901C108.288 13.0828 107.853 12.6798 106.983 12.6798C106.363 12.6798 105.816 12.8319 105.344 13.1335L105.06 12.2391C105.644 11.8868 106.365 11.71 107.216 11.71C108.859 11.71 109.683 12.555 109.683 14.245V16.5018C109.683 17.1141 109.713 17.6016 109.773 17.963ZM108.323 15.857V14.9119C106.781 14.8859 106.011 15.298 106.011 16.1469C106.011 16.4667 106.099 16.7059 106.279 16.8658C106.459 17.0257 106.688 17.105 106.961 17.105C107.268 17.105 107.555 17.0101 107.816 16.8216C108.079 16.6318 108.24 16.3913 108.3 16.0962C108.315 16.0299 108.323 15.9493 108.323 15.857Z" fill="white"/>
<path d="M117.713 17.963H116.473L116.408 16.9789H116.369C115.973 17.7277 115.299 18.1021 114.351 18.1021C113.593 18.1021 112.963 17.8122 112.463 17.2324C111.963 16.6526 111.713 15.8999 111.713 14.9756C111.713 13.9837 111.984 13.1803 112.528 12.5667C113.055 11.9947 113.7 11.7087 114.468 11.7087C115.312 11.7087 115.903 11.9856 116.239 12.5407H116.265V9.02289H117.664V16.312C117.664 16.9087 117.68 17.4586 117.713 17.963ZM116.265 15.3786V14.3568C116.265 14.18 116.252 14.037 116.227 13.9278C116.148 13.6002 115.979 13.3246 115.721 13.1023C115.461 12.88 115.148 12.7682 114.787 12.7682C114.265 12.7682 113.857 12.9697 113.557 13.374C113.26 13.7783 113.109 14.2944 113.109 14.9249C113.109 15.5307 113.252 16.0221 113.539 16.4004C113.841 16.8034 114.249 17.0049 114.76 17.0049C115.219 17.0049 115.585 16.8372 115.864 16.5005C116.133 16.1898 116.265 15.8154 116.265 15.3786Z" fill="white"/>
<path d="M129.664 14.8482C129.664 15.7907 129.388 16.5629 128.836 17.1687C128.257 17.7914 127.492 18.1021 126.533 18.1021C125.612 18.1021 124.877 17.8044 124.328 17.2064C123.781 16.6097 123.508 15.857 123.508 14.9496C123.508 14.0006 123.789 13.2219 124.355 12.6174C124.92 12.0129 125.68 11.71 126.639 11.71C127.56 11.71 128.303 12.0077 128.863 12.6044C129.396 13.1842 129.664 13.933 129.664 14.8482ZM128.216 14.8924C128.216 14.3269 128.091 13.842 127.841 13.4377C127.547 12.9489 127.131 12.7045 126.587 12.7045C126.027 12.7045 125.6 12.9489 125.305 13.4377C125.055 13.842 124.931 14.3347 124.931 14.9171C124.931 15.4826 125.056 15.9675 125.305 16.3718C125.608 16.8606 126.029 17.105 126.573 17.105C127.107 17.105 127.527 16.8567 127.828 16.3588C128.085 15.9467 128.216 15.4579 128.216 14.8924Z" fill="white"/>
<path d="M137.177 17.963H135.781V14.453C135.781 13.3714 135.36 12.8306 134.513 12.8306C134.099 12.8306 133.764 12.9788 133.505 13.2765C133.247 13.5742 133.117 13.9252 133.117 14.3269V17.9617H131.719V13.5859C131.719 13.0477 131.703 12.464 131.669 11.8322H132.896L132.961 12.7903H133C133.164 12.4926 133.407 12.2469 133.724 12.0506C134.104 11.8218 134.527 11.7061 134.992 11.7061C135.577 11.7061 136.065 11.8907 136.453 12.2612C136.937 12.7149 137.177 13.3922 137.177 14.2918V17.963Z" fill="white"/>
<path d="M146.581 12.8553H145.043V15.8323C145.043 16.5889 145.316 16.9672 145.857 16.9672C146.108 16.9672 146.316 16.9464 146.48 16.9035L146.516 17.937C146.24 18.0384 145.877 18.0891 145.431 18.0891C144.879 18.0891 144.449 17.9253 144.139 17.5977C143.827 17.2701 143.672 16.7189 143.672 15.9454V12.8553H142.753V11.8348H143.672V10.7116L145.041 10.3086V11.8335H146.58V12.8553H146.581Z" fill="white"/>
<path d="M153.979 17.963H152.58V14.479C152.58 13.3805 152.159 12.8306 151.315 12.8306C150.667 12.8306 150.224 13.1491 149.981 13.7861C149.94 13.92 149.916 14.0838 149.916 14.2762V17.9617H148.52V9.02289H149.916V12.7162H149.943C150.383 12.0441 151.013 11.7087 151.831 11.7087C152.409 11.7087 152.888 11.8933 153.268 12.2638C153.741 12.7253 153.979 13.4117 153.979 14.3191V17.963Z" fill="white"/>
<path d="M161.609 14.609C161.609 14.8534 161.591 15.0588 161.557 15.2265H157.367C157.385 15.8323 157.585 16.2938 157.973 16.6136C158.328 16.8996 158.785 17.0426 159.345 17.0426C159.965 17.0426 160.531 16.9464 161.04 16.7527L161.259 17.6991C160.663 17.9513 159.961 18.0774 159.149 18.0774C158.176 18.0774 157.409 17.7979 156.855 17.2389C156.297 16.6799 156.021 15.9298 156.021 14.9886C156.021 14.0643 156.279 13.2947 156.797 12.6811C157.339 12.0259 158.071 11.6983 158.995 11.6983C159.899 11.6983 160.585 12.0259 161.049 12.6811C161.424 13.2011 161.609 13.8446 161.609 14.609ZM160.276 14.2567C160.287 13.8524 160.195 13.504 160.005 13.2102C159.763 12.8319 159.393 12.6421 158.893 12.6421C158.437 12.6421 158.065 12.8267 157.781 13.1972C157.549 13.4923 157.412 13.8446 157.367 14.2567H160.276Z" fill="white"/>
</svg>
