<svg width="35" height="42" viewBox="0 0 35 42" fill="none" xmlns="http://www.w3.org/2000/svg">
<path fill-rule="evenodd" clip-rule="evenodd" d="M10.3 0.42859H10.2292H10.2292C8.84923 0.428569 7.71034 0.428551 6.78258 0.504352C5.81899 0.583081 4.93321 0.752048 4.10121 1.17598C2.81095 1.83339 1.76194 2.8824 1.10453 4.17266C0.680599 5.00466 0.511631 5.89044 0.432902 6.85403C0.357102 7.78179 0.357119 8.92068 0.35714 10.3006V10.3006V10.3714V31.6286V31.6994V31.6994C0.357119 33.0794 0.357102 34.2183 0.432902 35.146C0.511631 36.1096 0.680599 36.9954 1.10453 37.8274C1.76194 39.1176 2.81095 40.1666 4.10121 40.8241C4.93321 41.248 5.81899 41.417 6.78258 41.4957C7.71034 41.5715 8.84923 41.5715 10.2292 41.5714H10.3H24.7H24.7708C26.1508 41.5715 27.2897 41.5715 28.2174 41.4957C29.181 41.417 30.0668 41.248 30.8988 40.8241C32.189 40.1666 33.2381 39.1176 33.8955 37.8274C34.3194 36.9954 34.4884 36.1096 34.5671 35.146C34.6429 34.2183 34.6429 33.0794 34.6429 31.6994V31.6286V10.3714V10.3006C34.6429 8.92068 34.6429 7.78179 34.5671 6.85403C34.4884 5.89044 34.3194 5.00466 33.8955 4.17266C33.2381 2.8824 32.189 1.83339 30.8988 1.17598C30.0668 0.752048 29.181 0.583081 28.2174 0.504352C27.2897 0.428551 26.1508 0.428569 24.7708 0.42859H24.7708H24.7H10.3ZM5.65775 4.23085C5.92586 4.09424 6.31021 3.98294 7.06178 3.92154C7.83336 3.8585 8.83158 3.85716 10.3 3.85716H24.7C26.1684 3.85716 27.1666 3.8585 27.9382 3.92154C28.6898 3.98294 29.0741 4.09424 29.3422 4.23085C29.9874 4.55956 30.5119 5.08407 30.8406 5.7292C30.9772 5.99731 31.0885 6.38166 31.1499 7.13323C31.2129 7.90481 31.2143 8.90303 31.2143 10.3714V31.6286C31.2143 33.097 31.2129 34.0952 31.1499 34.8668C31.0885 35.6184 30.9772 36.0027 30.8406 36.2708C30.5119 36.916 29.9874 37.4405 29.3422 37.7692C29.0741 37.9058 28.6898 38.0171 27.9382 38.0785C27.1666 38.1415 26.1684 38.1429 24.7 38.1429H10.3C8.83158 38.1429 7.83336 38.1415 7.06178 38.0785C6.31021 38.0171 5.92586 37.9058 5.65775 37.7692C5.01262 37.4405 4.48811 36.916 4.15941 36.2708C4.02279 36.0027 3.91149 35.6184 3.85009 34.8668C3.78705 34.0952 3.78571 33.097 3.78571 31.6286V10.3714C3.78571 8.90303 3.78705 7.90481 3.85009 7.13323C3.91149 6.38166 4.02279 5.99731 4.15941 5.7292C4.48811 5.08407 5.01262 4.55956 5.65775 4.23085ZM17.5 29.5714C16.0798 29.5714 14.9286 30.7227 14.9286 32.1429C14.9286 33.563 16.0798 34.7143 17.5 34.7143C18.9202 34.7143 20.0714 33.563 20.0714 32.1429C20.0714 30.7227 18.9202 29.5714 17.5 29.5714Z" fill="#161616"/>
</svg>
