<svg width="38" height="37" viewBox="0 0 38 37" fill="none" xmlns="http://www.w3.org/2000/svg">
<path fill-rule="evenodd" clip-rule="evenodd" d="M11.1143 28.2857H13.2313L12.5782 33.4286H7C6.05322 33.4286 5.28571 34.1961 5.28571 35.1428C5.28571 36.0896 6.05322 36.8571 7 36.8571H31C31.9468 36.8571 32.7143 36.0896 32.7143 35.1428C32.7143 34.1961 31.9468 33.4286 31 33.4286H25.4218L24.7687 28.2857H26.8857C30.7261 28.2857 32.6463 28.2857 34.1131 27.5383C35.4033 26.8809 36.4523 25.8319 37.1098 24.5416C37.8571 23.0748 37.8571 21.1546 37.8571 17.3143V11.8285C37.8571 7.98819 37.8571 6.06801 37.1098 4.60118C36.4523 3.31093 35.4033 2.26192 34.1131 1.6045C32.6463 0.857117 30.7261 0.857117 26.8857 0.857117H11.1143C7.27392 0.857117 5.35374 0.857117 3.88692 1.6045C2.59666 2.26192 1.54765 3.31093 0.890237 4.60118C0.142853 6.06801 0.142853 7.98818 0.142853 11.8285V17.3143C0.142853 21.1546 0.142853 23.0748 0.890236 24.5416C1.54765 25.8319 2.59666 26.8809 3.88692 27.5383C5.35374 28.2857 7.27392 28.2857 11.1143 28.2857ZM34.4286 17.3143V11.8285C34.4286 9.85179 34.4259 8.57543 34.3465 7.60398C34.2704 6.67257 34.1413 6.32724 34.0549 6.15772C33.7262 5.5126 33.2017 4.98809 32.5565 4.65938C32.387 4.57301 32.0417 4.44383 31.1103 4.36773C30.1388 4.28836 28.8625 4.28569 26.8857 4.28569L11.1143 4.28569C9.13753 4.28569 7.86116 4.28836 6.88972 4.36773C5.9583 4.44382 5.61298 4.573 5.44346 4.65938C4.79833 4.98809 4.27382 5.51259 3.94512 6.15772C3.85874 6.32724 3.72956 6.67257 3.65346 7.60398C3.57409 8.57542 3.57142 9.85179 3.57142 11.8285L3.57142 17.3143C3.57142 19.291 3.57409 20.5674 3.65346 21.5388C3.72956 22.4702 3.85874 22.8156 3.94512 22.9851C4.27382 23.6302 4.79833 24.1547 5.44345 24.4834C5.61298 24.5698 5.9583 24.699 6.88972 24.7751C7.86116 24.8545 9.13753 24.8571 11.1143 24.8571L26.8857 24.8571C28.8625 24.8571 30.1388 24.8545 31.1103 24.7751C32.0417 24.699 32.387 24.5698 32.5565 24.4834C33.2017 24.1547 33.7262 23.6302 34.0549 22.9851C34.1413 22.8156 34.2704 22.4702 34.3465 21.5388C34.4259 20.5674 34.4286 19.291 34.4286 17.3143ZM21.9657 33.4285L21.3126 28.2857H16.6874L16.0343 33.4285H21.9657Z" fill="#161616"/>
</svg>
