<svg width="180" height="53" viewBox="0 0 180 53" fill="none" xmlns="http://www.w3.org/2000/svg">
<path d="M173.095 52.5001H6.6575C2.99754 52.5001 0 49.5734 0 46.0001V7.00006C0 3.42669 2.99754 0.500064 6.6575 0.500064H173.095C176.755 0.500064 179.753 3.42669 179.753 7.00006V46.0001C179.753 49.5734 176.755 52.5001 173.095 52.5001Z" fill="#161616"/>
<path d="M173.095 1.54169C176.177 1.54169 178.686 3.99056 178.686 7.00006V46.0001C178.686 49.0096 176.177 51.4584 173.095 51.4584H6.6575C3.57508 51.4584 1.06686 49.0096 1.06686 46.0001V7.00006C1.06686 3.99056 3.57508 1.54169 6.6575 1.54169H173.095ZM173.095 0.500064H6.6575C2.99754 0.500064 0 3.42669 0 7.00006V46.0001C0 49.5734 2.99754 52.5001 6.6575 52.5001H173.095C176.755 52.5001 179.753 49.5734 179.753 46.0001V7.00006C179.753 3.42669 176.755 0.500064 173.095 0.500064Z" fill="#A6A6A6"/>
<path d="M63.1364 13.8169C63.1364 14.9024 62.8036 15.7718 62.1478 16.4202C61.3938 17.1888 60.4118 17.5756 59.2085 17.5756C58.0584 17.5756 57.0764 17.1823 56.2709 16.4072C55.4636 15.6207 55.0609 14.6554 55.0609 13.5001C55.0609 12.3447 55.4636 11.3794 56.2709 10.5994C57.0764 9.81781 58.0584 9.42456 59.2085 9.42456C59.781 9.42456 60.327 9.53994 60.8479 9.75444C61.3672 9.97056 61.7899 10.2631 62.0962 10.6238L61.4005 11.3096C60.8662 10.6937 60.1389 10.3898 59.2085 10.3898C58.3697 10.3898 57.6423 10.6758 57.0248 11.2527C56.414 11.8312 56.1078 12.5803 56.1078 13.5001C56.1078 14.4198 56.414 15.1754 57.0248 15.7539C57.6423 16.3243 58.3697 16.6168 59.2085 16.6168C60.0989 16.6168 60.8479 16.3243 61.4388 15.7474C61.8282 15.3656 62.0496 14.8391 62.1078 14.1663H59.2085V13.2271H63.0765C63.1231 13.4302 63.1364 13.6268 63.1364 13.8169Z" fill="white" stroke="white" stroke-width="0.16" stroke-miterlimit="10"/>
<path d="M69.273 10.5604H65.6396V13.0304H68.9151V13.9696H65.6396V16.4396H69.273V17.3968H64.611V9.60327H69.273V10.5604Z" fill="white" stroke="white" stroke-width="0.16" stroke-miterlimit="10"/>
<path d="M73.6037 17.3968H72.5751V10.5604H70.3465V9.60327H75.8339V10.5604H73.6037V17.3968Z" fill="white" stroke="white" stroke-width="0.16" stroke-miterlimit="10"/>
<path d="M79.8051 17.3968V9.60327H80.8321V17.3968H79.8051Z" fill="white" stroke="white" stroke-width="0.16" stroke-miterlimit="10"/>
<path d="M85.3841 17.3968H84.3639V10.5604H82.1269V9.60327H87.621V10.5604H85.3841V17.3968Z" fill="white" stroke="white" stroke-width="0.16" stroke-miterlimit="10"/>
<path d="M98.0101 16.3942C97.2228 17.1823 96.2475 17.5756 95.0841 17.5756C93.914 17.5756 92.9387 17.1823 92.1515 16.3942C91.3659 15.6077 90.9748 14.6424 90.9748 13.5001C90.9748 12.3577 91.3659 11.3924 92.1515 10.6059C92.9387 9.81781 93.914 9.42456 95.0841 9.42456C96.2408 9.42456 97.2162 9.81781 98.0034 10.6124C98.7957 11.4054 99.1868 12.3642 99.1868 13.5001C99.1868 14.6424 98.7957 15.6077 98.0101 16.3942ZM92.9121 15.7409C93.5046 16.3243 94.2253 16.6168 95.0841 16.6168C95.9363 16.6168 96.6636 16.3243 97.2495 15.7409C97.8403 15.1576 98.1399 14.4084 98.1399 13.5001C98.1399 12.5917 97.8403 11.8426 97.2495 11.2592C96.6636 10.6758 95.9363 10.3833 95.0841 10.3833C94.2253 10.3833 93.5046 10.6758 92.9121 11.2592C92.3212 11.8426 92.0217 12.5917 92.0217 13.5001C92.0217 14.4084 92.3212 15.1576 92.9121 15.7409Z" fill="white" stroke="white" stroke-width="0.16" stroke-miterlimit="10"/>
<path d="M100.63 17.3968V9.60327H101.878L105.759 15.6645H105.804L105.759 14.1663V9.60327H106.786V17.3968H105.714L101.65 11.0365H101.605L101.65 12.5413V17.3968H100.63Z" fill="white" stroke="white" stroke-width="0.16" stroke-miterlimit="10"/>
<path d="M90.7218 28.7783C87.5944 28.7783 85.0396 31.1021 85.0396 34.3082C85.0396 37.4883 87.5944 39.8365 90.7218 39.8365C93.8558 39.8365 96.4106 37.4883 96.4106 34.3082C96.4106 31.1021 93.8558 28.7783 90.7218 28.7783ZM90.7218 37.659C89.0058 37.659 87.5295 36.2761 87.5295 34.3082C87.5295 32.3143 89.0058 30.9558 90.7218 30.9558C92.4377 30.9558 93.9207 32.3143 93.9207 34.3082C93.9207 36.2761 92.4377 37.659 90.7218 37.659ZM78.3238 28.7783C75.1898 28.7783 72.6417 31.1021 72.6417 34.3082C72.6417 37.4883 75.1898 39.8365 78.3238 39.8365C81.4562 39.8365 84.006 37.4883 84.006 34.3082C84.006 31.1021 81.4562 28.7783 78.3238 28.7783ZM78.3238 37.659C76.6062 37.659 75.1249 36.2761 75.1249 34.3082C75.1249 32.3143 76.6062 30.9558 78.3238 30.9558C80.0398 30.9558 81.5161 32.3143 81.5161 34.3082C81.5161 36.2761 80.0398 37.659 78.3238 37.659ZM63.5708 30.4732V32.823H69.3179C69.1498 34.136 68.7004 35.1012 68.0114 35.774C67.1725 36.5865 65.866 37.4883 63.5708 37.4883C60.034 37.4883 57.2645 34.7015 57.2645 31.2483C57.2645 27.7952 60.034 25.0083 63.5708 25.0083C65.4832 25.0083 66.8746 25.738 67.9015 26.6837L69.5975 25.0278C68.1612 23.6888 66.2505 22.6602 63.5708 22.6602C58.7208 22.6602 54.6448 26.5131 54.6448 31.2483C54.6448 35.9836 58.7208 39.8365 63.5708 39.8365C66.1922 39.8365 68.1612 38.998 69.709 37.425C71.2952 35.8763 71.7895 33.6988 71.7895 31.9406C71.7895 31.3946 71.7429 30.8925 71.6597 30.4732H63.5708ZM123.898 32.2948C123.43 31.0582 121.987 28.7783 119.048 28.7783C116.135 28.7783 113.71 31.0192 113.71 34.3082C113.71 37.4055 116.11 39.8365 119.327 39.8365C121.929 39.8365 123.43 38.2878 124.048 37.386L122.117 36.1298C121.473 37.0496 120.596 37.659 119.327 37.659C118.067 37.659 117.164 37.0951 116.584 35.9836L124.159 32.9237L123.898 32.2948ZM116.175 34.136C116.11 32.004 117.871 30.912 119.133 30.912C120.121 30.912 120.96 31.3946 121.24 32.0852L116.175 34.136ZM110.019 39.5001H112.508V23.2501H110.019V39.5001ZM105.941 30.0101H105.858C105.298 29.3633 104.232 28.7783 102.88 28.7783C100.044 28.7783 97.4508 31.2093 97.4508 34.3261C97.4508 37.425 100.044 39.8365 102.88 39.8365C104.232 39.8365 105.298 39.2466 105.858 38.5803H105.941V39.3733C105.941 41.4875 104.784 42.6233 102.918 42.6233C101.397 42.6233 100.453 41.5508 100.064 40.649L97.8986 41.5313C98.5227 42.9971 100.175 44.8008 102.918 44.8008C105.838 44.8008 108.301 43.1238 108.301 39.0435V29.1147H105.941V30.0101ZM103.093 37.659C101.377 37.659 99.9407 36.2566 99.9407 34.3261C99.9407 32.3777 101.377 30.9558 103.093 30.9558C104.784 30.9558 106.117 32.3777 106.117 34.3261C106.117 36.2566 104.784 37.659 103.093 37.659ZM135.555 23.2501H129.6V39.5001H132.083V33.343H135.555C138.313 33.343 141.018 31.3946 141.018 28.2957C141.018 25.1985 138.306 23.2501 135.555 23.2501ZM135.62 31.0826H132.083V25.5105H135.62C137.474 25.5105 138.533 27.0136 138.533 28.2957C138.533 29.5535 137.474 31.0826 135.62 31.0826ZM150.97 28.7475C149.176 28.7475 147.311 29.521 146.543 31.2353L148.747 32.1372C149.221 31.2353 150.093 30.9428 151.015 30.9428C152.304 30.9428 153.61 31.6985 153.63 33.0326V33.2032C153.181 32.9497 152.219 32.5743 151.035 32.5743C148.662 32.5743 146.244 33.85 146.244 36.2306C146.244 38.4081 148.188 39.8105 150.373 39.8105C152.044 39.8105 152.966 39.0743 153.545 38.218H153.63V39.4741H156.029V33.2406C156.029 30.3595 153.825 28.7475 150.97 28.7475ZM150.671 37.6525C149.859 37.6525 148.727 37.2592 148.727 36.2761C148.727 35.0183 150.138 34.5357 151.36 34.5357C152.453 34.5357 152.966 34.7713 153.63 35.0817C153.435 36.5865 152.109 37.6525 150.671 37.6525ZM164.766 29.1033L161.912 36.1477H161.827L158.876 29.1033H156.198L160.632 38.9476L158.102 44.4255H160.697L167.529 29.1033H164.766ZM142.382 39.5001H144.872V23.2501H142.382V39.5001Z" fill="white"/>
<path d="M13.8942 10.3004C13.5031 10.7002 13.2767 11.3226 13.2767 12.1286V40.8781C13.2767 41.6841 13.5031 42.3064 13.8942 42.7062L13.9907 42.7939L30.4914 26.6902V26.3099L13.9907 10.2062L13.8942 10.3004Z" fill="url(#paint0_linear_224_960)"/>
<path d="M35.9855 32.0608L30.4913 26.6902V26.3099L35.9921 20.9393L36.1153 21.0092L42.6296 24.628C44.4887 25.655 44.4887 27.345 42.6296 28.3785L36.1153 31.9909L35.9855 32.0608Z" fill="url(#paint1_linear_224_960)"/>
<path d="M36.1153 31.991L30.4914 26.5001L13.8942 42.7062C14.5117 43.34 15.5186 43.4163 16.6637 42.7826L36.1153 31.991Z" fill="url(#paint2_linear_224_960)"/>
<path d="M36.1153 21.0092L16.6637 10.2176C15.5186 9.59032 14.5117 9.66669 13.8942 10.3004L30.4914 26.5001L36.1153 21.0092Z" fill="url(#paint3_linear_224_960)"/>
<defs>
<linearGradient id="paint0_linear_224_960" x1="29.0263" y1="41.1775" x2="7.21544" y2="18.8381" gradientUnits="userSpaceOnUse">
<stop stop-color="#00A0FF"/>
<stop offset="0.0066" stop-color="#00A1FF"/>
<stop offset="0.2601" stop-color="#00BEFF"/>
<stop offset="0.5122" stop-color="#00D2FF"/>
<stop offset="0.7604" stop-color="#00DFFF"/>
<stop offset="1" stop-color="#00E3FF"/>
</linearGradient>
<linearGradient id="paint1_linear_224_960" x1="45.0505" y1="26.4982" x2="12.8323" y2="26.4982" gradientUnits="userSpaceOnUse">
<stop stop-color="#FFE000"/>
<stop offset="0.4087" stop-color="#FFBD00"/>
<stop offset="0.7754" stop-color="#FFA500"/>
<stop offset="1" stop-color="#FF9C00"/>
</linearGradient>
<linearGradient id="paint2_linear_224_960" x1="33.0572" y1="23.5152" x2="3.47986" y2="-6.77884" gradientUnits="userSpaceOnUse">
<stop stop-color="#FF3A44"/>
<stop offset="1" stop-color="#C31162"/>
</linearGradient>
<linearGradient id="paint3_linear_224_960" x1="9.71636" y1="52.271" x2="22.924" y2="38.7435" gradientUnits="userSpaceOnUse">
<stop stop-color="#32A071"/>
<stop offset="0.0685" stop-color="#2DA771"/>
<stop offset="0.4762" stop-color="#15CF74"/>
<stop offset="0.8009" stop-color="#06E775"/>
<stop offset="1" stop-color="#00F076"/>
</linearGradient>
</defs>
</svg>
