<svg width="101" height="101" viewBox="0 0 101 101" fill="none" xmlns="http://www.w3.org/2000/svg">
<path d="M4.04 6.10352e-05H0V4.04006H4.04V6.10352e-05Z" fill="#161616"/>
<path d="M8.08 6.10352e-05H4.04V4.04006H8.08V6.10352e-05Z" fill="#161616"/>
<path d="M12.12 6.10352e-05H8.08V4.04006H12.12V6.10352e-05Z" fill="#161616"/>
<path d="M16.16 6.10352e-05H12.12V4.04006H16.16V6.10352e-05Z" fill="#161616"/>
<path d="M20.2 6.10352e-05H16.16V4.04006H20.2V6.10352e-05Z" fill="#161616"/>
<path d="M24.24 6.10352e-05H20.2V4.04006H24.24V6.10352e-05Z" fill="#161616"/>
<path d="M28.28 6.10352e-05H24.24V4.04006H28.28V6.10352e-05Z" fill="#161616"/>
<path d="M36.36 6.10352e-05H32.32V4.04006H36.36V6.10352e-05Z" fill="#161616"/>
<path d="M40.4 6.10352e-05H36.36V4.04006H40.4V6.10352e-05Z" fill="#161616"/>
<path d="M56.56 6.10352e-05H52.52V4.04006H56.56V6.10352e-05Z" fill="#161616"/>
<path d="M68.68 6.10352e-05H64.64V4.04006H68.68V6.10352e-05Z" fill="#161616"/>
<path d="M76.76 6.10352e-05H72.72V4.04006H76.76V6.10352e-05Z" fill="#161616"/>
<path d="M80.8 6.10352e-05H76.76V4.04006H80.8V6.10352e-05Z" fill="#161616"/>
<path d="M84.84 6.10352e-05H80.8V4.04006H84.84V6.10352e-05Z" fill="#161616"/>
<path d="M88.88 6.10352e-05H84.84V4.04006H88.88V6.10352e-05Z" fill="#161616"/>
<path d="M92.92 6.10352e-05H88.88V4.04006H92.92V6.10352e-05Z" fill="#161616"/>
<path d="M96.96 6.10352e-05H92.92V4.04006H96.96V6.10352e-05Z" fill="#161616"/>
<path d="M101 6.10352e-05H96.96V4.04006H101V6.10352e-05Z" fill="#161616"/>
<path d="M4.04 4.04006H0V8.08006H4.04V4.04006Z" fill="#161616"/>
<path d="M28.28 4.04006H24.24L24.24 8.08006H28.28V4.04006Z" fill="#161616"/>
<path d="M52.52 4.04006H48.48V8.08006H52.52V4.04006Z" fill="#161616"/>
<path d="M56.56 4.04006H52.52V8.08006H56.56V4.04006Z" fill="#161616"/>
<path d="M68.68 4.04006H64.64V8.08006H68.68V4.04006Z" fill="#161616"/>
<path d="M76.76 4.04006H72.72V8.08006H76.76V4.04006Z" fill="#161616"/>
<path d="M101 4.04006H96.96V8.08006H101V4.04006Z" fill="#161616"/>
<path d="M4.04 8.08006H0V12.1201H4.04V8.08006Z" fill="#161616"/>
<path d="M12.12 8.08006H8.08V12.1201H12.12V8.08006Z" fill="#161616"/>
<path d="M16.16 8.08006H12.12V12.1201H16.16V8.08006Z" fill="#161616"/>
<path d="M20.2 8.08006H16.16V12.1201H20.2V8.08006Z" fill="#161616"/>
<path d="M28.28 8.08006H24.24V12.1201H28.28V8.08006Z" fill="#161616"/>
<path d="M40.4 8.08006H36.36V12.1201H40.4V8.08006Z" fill="#161616"/>
<path d="M44.44 8.08006H40.4V12.1201H44.44V8.08006Z" fill="#161616"/>
<path d="M48.48 8.08006H44.44V12.1201H48.48V8.08006Z" fill="#161616"/>
<path d="M52.52 8.08006H48.48V12.1201H52.52V8.08006Z" fill="#161616"/>
<path d="M56.56 8.08006H52.52V12.1201H56.56V8.08006Z" fill="#161616"/>
<path d="M68.68 8.08006H64.64V12.1201H68.68V8.08006Z" fill="#161616"/>
<path d="M76.76 8.08006H72.72V12.1201H76.76V8.08006Z" fill="#161616"/>
<path d="M84.84 8.08006H80.8V12.1201H84.84V8.08006Z" fill="#161616"/>
<path d="M88.88 8.08006H84.84V12.1201H88.88V8.08006Z" fill="#161616"/>
<path d="M92.92 8.08006H88.88V12.1201H92.92V8.08006Z" fill="#161616"/>
<path d="M101 8.08006H96.96V12.1201H101V8.08006Z" fill="#161616"/>
<path d="M4.04 12.1201H0V16.1601H4.04V12.1201Z" fill="#161616"/>
<path d="M12.12 12.1201H8.08V16.1601H12.12V12.1201Z" fill="#161616"/>
<path d="M16.16 12.1201H12.12V16.1601H16.16V12.1201Z" fill="#161616"/>
<path d="M20.2 12.1201H16.16V16.1601H20.2V12.1201Z" fill="#161616"/>
<path d="M28.28 12.1201H24.24V16.1601H28.28V12.1201Z" fill="#161616"/>
<path d="M40.4 12.1201H36.36V16.1601H40.4V12.1201Z" fill="#161616"/>
<path d="M44.44 12.1201H40.4V16.1601H44.44V12.1201Z" fill="#161616"/>
<path d="M56.56 12.1201H52.52V16.1601H56.56V12.1201Z" fill="#161616"/>
<path d="M76.76 12.1201H72.72V16.1601H76.76V12.1201Z" fill="#161616"/>
<path d="M84.84 12.1201H80.8V16.1601H84.84V12.1201Z" fill="#161616"/>
<path d="M88.88 12.1201H84.84V16.1601H88.88V12.1201Z" fill="#161616"/>
<path d="M92.92 12.1201H88.88V16.1601H92.92V12.1201Z" fill="#161616"/>
<path d="M101 12.1201H96.96V16.1601H101V12.1201Z" fill="#161616"/>
<path d="M4.04 16.1601H0V20.2001H4.04V16.1601Z" fill="#161616"/>
<path d="M12.12 16.1601H8.08V20.2001H12.12V16.1601Z" fill="#161616"/>
<path d="M16.16 16.1601H12.12V20.2001H16.16V16.1601Z" fill="#161616"/>
<path d="M20.2 16.1601H16.16V20.2001H20.2V16.1601Z" fill="#161616"/>
<path d="M28.28 16.1601H24.24V20.2001H28.28V16.1601Z" fill="#161616"/>
<path d="M36.36 16.1601H32.32V20.2001H36.36V16.1601Z" fill="#161616"/>
<path d="M44.44 16.1601H40.4V20.2001H44.44V16.1601Z" fill="#161616"/>
<path d="M48.48 16.1601H44.44V20.2001H48.48V16.1601Z" fill="#161616"/>
<path d="M52.52 16.1601H48.48V20.2001H52.52V16.1601Z" fill="#161616"/>
<path d="M60.6 16.1601H56.56V20.2001H60.6V16.1601Z" fill="#161616"/>
<path d="M76.76 16.1601H72.72V20.2001H76.76V16.1601Z" fill="#161616"/>
<path d="M84.84 16.1601H80.8V20.2001H84.84V16.1601Z" fill="#161616"/>
<path d="M88.88 16.1601H84.84V20.2001H88.88V16.1601Z" fill="#161616"/>
<path d="M92.92 16.1601H88.88V20.2001H92.92V16.1601Z" fill="#161616"/>
<path d="M101 16.1601H96.96V20.2001H101V16.1601Z" fill="#161616"/>
<path d="M4.04 20.2001H0V24.2401H4.04V20.2001Z" fill="#161616"/>
<path d="M28.28 20.2001H24.24V24.2401H28.28V20.2001Z" fill="#161616"/>
<path d="M60.6 20.2001H56.56V24.2401H60.6V20.2001Z" fill="#161616"/>
<path d="M76.76 20.2001H72.72V24.2401H76.76V20.2001Z" fill="#161616"/>
<path d="M101 20.2001H96.96V24.2401H101V20.2001Z" fill="#161616"/>
<path d="M4.04 24.2401H0V28.2801H4.04V24.2401Z" fill="#161616"/>
<path d="M8.08 24.2401L4.04 24.2401V28.2801H8.08V24.2401Z" fill="#161616"/>
<path d="M12.12 24.2401H8.08V28.2801H12.12V24.2401Z" fill="#161616"/>
<path d="M16.16 24.2401H12.12V28.2801H16.16V24.2401Z" fill="#161616"/>
<path d="M20.2 24.2401H16.16V28.2801H20.2V24.2401Z" fill="#161616"/>
<path d="M24.24 24.2401L20.2 24.2401V28.2801H24.24L24.24 24.2401Z" fill="#161616"/>
<path d="M28.28 24.2401H24.24L24.24 28.2801H28.28V24.2401Z" fill="#161616"/>
<path d="M36.36 24.2401H32.32V28.2801H36.36V24.2401Z" fill="#161616"/>
<path d="M44.44 24.2401H40.4V28.2801H44.44V24.2401Z" fill="#161616"/>
<path d="M52.52 24.2401H48.48V28.2801H52.52V24.2401Z" fill="#161616"/>
<path d="M60.6 24.2401H56.56V28.2801H60.6V24.2401Z" fill="#161616"/>
<path d="M68.68 24.2401H64.64V28.2801H68.68V24.2401Z" fill="#161616"/>
<path d="M76.76 24.2401H72.72V28.2801H76.76V24.2401Z" fill="#161616"/>
<path d="M80.8 24.2401L76.76 24.2401V28.2801H80.8V24.2401Z" fill="#161616"/>
<path d="M84.84 24.2401H80.8V28.2801H84.84V24.2401Z" fill="#161616"/>
<path d="M88.88 24.2401H84.84V28.2801H88.88V24.2401Z" fill="#161616"/>
<path d="M92.92 24.2401H88.88V28.2801H92.92V24.2401Z" fill="#161616"/>
<path d="M96.96 24.2401L92.92 24.2401V28.2801H96.96V24.2401Z" fill="#161616"/>
<path d="M101 24.2401H96.96V28.2801H101V24.2401Z" fill="#161616"/>
<path d="M36.36 28.2801H32.32V32.3201H36.36V28.2801Z" fill="#161616"/>
<path d="M44.44 28.2801H40.4V32.3201H44.44V28.2801Z" fill="#161616"/>
<path d="M52.52 28.2801H48.48V32.3201H52.52V28.2801Z" fill="#161616"/>
<path d="M56.56 28.2801H52.52V32.3201H56.56V28.2801Z" fill="#161616"/>
<path d="M64.64 28.2801H60.6L60.6 32.3201H64.64V28.2801Z" fill="#161616"/>
<path d="M68.68 28.2801H64.64V32.3201H68.68V28.2801Z" fill="#161616"/>
<path d="M4.04 32.3201H0V36.3601H4.04V32.3201Z" fill="#161616"/>
<path d="M16.16 32.3201H12.12V36.3601H16.16V32.3201Z" fill="#161616"/>
<path d="M20.2 32.3201H16.16V36.3601H20.2V32.3201Z" fill="#161616"/>
<path d="M24.24 32.3201H20.2V36.3601H24.24V32.3201Z" fill="#161616"/>
<path d="M28.28 32.3201H24.24V36.3601H28.28V32.3201Z" fill="#161616"/>
<path d="M32.32 32.3201H28.28V36.3601H32.32V32.3201Z" fill="#161616"/>
<path d="M36.36 32.3201H32.32V36.3601H36.36V32.3201Z" fill="#161616"/>
<path d="M40.4 32.3201H36.36V36.3601H40.4V32.3201Z" fill="#161616"/>
<path d="M56.56 32.3201H52.52V36.3601H56.56V32.3201Z" fill="#161616"/>
<path d="M68.68 32.3201H64.64V36.3601H68.68V32.3201Z" fill="#161616"/>
<path d="M72.72 32.3201H68.68V36.3601H72.72V32.3201Z" fill="#161616"/>
<path d="M76.76 32.3201H72.72V36.3601H76.76V32.3201Z" fill="#161616"/>
<path d="M84.84 32.3201H80.8V36.3601H84.84V32.3201Z" fill="#161616"/>
<path d="M101 32.3201H96.96V36.3601H101V32.3201Z" fill="#161616"/>
<path d="M8.08 36.3601H4.04V40.4001H8.08V36.3601Z" fill="#161616"/>
<path d="M16.16 36.3601H12.12V40.4001H16.16V36.3601Z" fill="#161616"/>
<path d="M20.2 36.3601H16.16V40.4001H20.2V36.3601Z" fill="#161616"/>
<path d="M32.32 36.3601H28.28V40.4001H32.32V36.3601Z" fill="#161616"/>
<path d="M36.36 36.3601H32.32V40.4001H36.36V36.3601Z" fill="#161616"/>
<path d="M52.52 36.3601H48.48V40.4001H52.52V36.3601Z" fill="#161616"/>
<path d="M64.64 36.3601H60.6V40.4001H64.64V36.3601Z" fill="#161616"/>
<path d="M72.72 36.3601H68.68V40.4001H72.72V36.3601Z" fill="#161616"/>
<path d="M76.76 36.3601H72.72V40.4001H76.76V36.3601Z" fill="#161616"/>
<path d="M84.84 36.3601H80.8V40.4001H84.84V36.3601Z" fill="#161616"/>
<path d="M88.88 36.3601H84.84V40.4001H88.88V36.3601Z" fill="#161616"/>
<path d="M92.92 36.3601H88.88V40.4001H92.92V36.3601Z" fill="#161616"/>
<path d="M96.96 36.3601H92.92V40.4001H96.96V36.3601Z" fill="#161616"/>
<path d="M101 36.3601H96.96V40.4001H101V36.3601Z" fill="#161616"/>
<path d="M4.04 40.4001H0V44.4401H4.04V40.4001Z" fill="#161616"/>
<path d="M8.08 40.4001H4.04V44.4401H8.08V40.4001Z" fill="#161616"/>
<path d="M16.16 40.4001H12.12V44.4401H16.16V40.4001Z" fill="#161616"/>
<path d="M20.2 40.4001H16.16V44.4401H20.2V40.4001Z" fill="#161616"/>
<path d="M24.24 40.4001H20.2V44.4401H24.24V40.4001Z" fill="#161616"/>
<path d="M28.28 40.4001H24.24V44.4401H28.28V40.4001Z" fill="#161616"/>
<path d="M32.32 40.4001H28.28V44.4401H32.32V40.4001Z" fill="#161616"/>
<path d="M40.4 40.4001H36.36V44.4401H40.4V40.4001Z" fill="#161616"/>
<path d="M48.48 40.4001H44.44V44.4401H48.48V40.4001Z" fill="#161616"/>
<path d="M52.52 40.4001H48.48V44.4401H52.52V40.4001Z" fill="#161616"/>
<path d="M60.6 40.4001H56.56V44.4401H60.6L60.6 40.4001Z" fill="#161616"/>
<path d="M68.68 40.4001H64.64V44.4401H68.68V40.4001Z" fill="#161616"/>
<path d="M72.72 40.4001H68.68V44.4401H72.72V40.4001Z" fill="#161616"/>
<path d="M76.76 40.4001H72.72V44.4401H76.76V40.4001Z" fill="#161616"/>
<path d="M80.8 40.4001H76.76V44.4401H80.8V40.4001Z" fill="#161616"/>
<path d="M84.84 40.4001H80.8V44.4401H84.84V40.4001Z" fill="#161616"/>
<path d="M88.88 40.4001H84.84V44.4401H88.88V40.4001Z" fill="#161616"/>
<path d="M92.92 40.4001H88.88V44.4401H92.92V40.4001Z" fill="#161616"/>
<path d="M96.96 40.4001H92.92V44.4401H96.96V40.4001Z" fill="#161616"/>
<path d="M4.04 44.4401H0V48.4801H4.04V44.4401Z" fill="#161616"/>
<path d="M20.2 44.4401H16.16V48.4801H20.2V44.4401Z" fill="#161616"/>
<path d="M24.24 44.4401H20.2V48.4801H24.24V44.4401Z" fill="#161616"/>
<path d="M32.32 44.4401H28.28V48.4801H32.32V44.4401Z" fill="#161616"/>
<path d="M40.4 44.4401H36.36V48.4801H40.4V44.4401Z" fill="#161616"/>
<path d="M44.44 44.4401H40.4V48.4801H44.44V44.4401Z" fill="#161616"/>
<path d="M60.6 44.4401H56.56V48.4801H60.6V44.4401Z" fill="#161616"/>
<path d="M64.64 44.4401H60.6V48.4801H64.64V44.4401Z" fill="#161616"/>
<path d="M84.84 44.4401H80.8V48.4801H84.84V44.4401Z" fill="#161616"/>
<path d="M92.92 44.4401H88.88V48.4801H92.92V44.4401Z" fill="#161616"/>
<path d="M96.96 44.4401H92.92V48.4801H96.96V44.4401Z" fill="#161616"/>
<path d="M4.04 48.4801H0V52.5201H4.04V48.4801Z" fill="#161616"/>
<path d="M16.16 48.4801H12.12V52.5201H16.16V48.4801Z" fill="#161616"/>
<path d="M20.2 48.4801H16.16V52.5201H20.2V48.4801Z" fill="#161616"/>
<path d="M24.24 48.4801H20.2V52.5201H24.24V48.4801Z" fill="#161616"/>
<path d="M28.28 48.4801H24.24V52.5201H28.28V48.4801Z" fill="#161616"/>
<path d="M32.32 48.4801H28.28V52.5201H32.32V48.4801Z" fill="#161616"/>
<path d="M36.36 48.4801H32.32V52.5201H36.36V48.4801Z" fill="#161616"/>
<path d="M44.44 48.4801H40.4V52.5201H44.44V48.4801Z" fill="#161616"/>
<path d="M48.48 48.4801H44.44V52.5201H48.48V48.4801Z" fill="#161616"/>
<path d="M56.56 48.4801H52.52V52.5201H56.56V48.4801Z" fill="#161616"/>
<path d="M60.6 48.4801H56.56V52.5201H60.6V48.4801Z" fill="#161616"/>
<path d="M68.68 48.4801H64.64V52.5201H68.68V48.4801Z" fill="#161616"/>
<path d="M80.8 48.4801H76.76V52.5201H80.8V48.4801Z" fill="#161616"/>
<path d="M88.88 48.4801H84.84V52.5201H88.88V48.4801Z" fill="#161616"/>
<path d="M92.92 48.4801H88.88V52.5201H92.92V48.4801Z" fill="#161616"/>
<path d="M101 48.4801H96.96V52.5201H101V48.4801Z" fill="#161616"/>
<path d="M4.04 52.5201H0V56.5601H4.04V52.5201Z" fill="#161616"/>
<path d="M8.08 52.5201H4.04V56.5601H8.08V52.5201Z" fill="#161616"/>
<path d="M32.32 52.5201H28.28V56.5601H32.32V52.5201Z" fill="#161616"/>
<path d="M36.36 52.5201H32.32V56.5601H36.36V52.5201Z" fill="#161616"/>
<path d="M40.4 52.5201H36.36V56.5601H40.4V52.5201Z" fill="#161616"/>
<path d="M52.52 52.5201H48.48V56.5601H52.52V52.5201Z" fill="#161616"/>
<path d="M60.6 52.5201H56.56V56.5601H60.6V52.5201Z" fill="#161616"/>
<path d="M64.64 52.5201H60.6V56.5601H64.64V52.5201Z" fill="#161616"/>
<path d="M68.68 52.5201H64.64V56.5601H68.68V52.5201Z" fill="#161616"/>
<path d="M72.72 52.5201H68.68V56.5601H72.72V52.5201Z" fill="#161616"/>
<path d="M84.84 52.5201H80.8V56.5601H84.84V52.5201Z" fill="#161616"/>
<path d="M92.92 52.5201H88.88V56.5601H92.92V52.5201Z" fill="#161616"/>
<path d="M96.96 52.5201H92.92V56.5601H96.96V52.5201Z" fill="#161616"/>
<path d="M101 52.5201H96.96V56.5601H101V52.5201Z" fill="#161616"/>
<path d="M4.04 56.5601H0V60.6001H4.04V56.5601Z" fill="#161616"/>
<path d="M8.08 56.5601H4.04V60.6001H8.08V56.5601Z" fill="#161616"/>
<path d="M12.12 56.5601H8.08V60.6001H12.12V56.5601Z" fill="#161616"/>
<path d="M28.28 56.5601H24.24V60.6001H28.28V56.5601Z" fill="#161616"/>
<path d="M40.4 56.5601H36.36V60.6001H40.4V56.5601Z" fill="#161616"/>
<path d="M48.48 56.5601H44.44V60.6001H48.48V56.5601Z" fill="#161616"/>
<path d="M52.52 56.5601H48.48V60.6001H52.52V56.5601Z" fill="#161616"/>
<path d="M60.6 56.5601H56.56V60.6001H60.6V56.5601Z" fill="#161616"/>
<path d="M72.72 56.5601H68.68V60.6001H72.72V56.5601Z" fill="#161616"/>
<path d="M80.8 56.5601H76.76V60.6001H80.8V56.5601Z" fill="#161616"/>
<path d="M84.84 56.5601H80.8V60.6001H84.84V56.5601Z" fill="#161616"/>
<path d="M92.92 56.5601H88.88V60.6001H92.92V56.5601Z" fill="#161616"/>
<path d="M8.08 60.6001H4.04V64.6401H8.08V60.6001Z" fill="#161616"/>
<path d="M32.32 60.6001L28.28 60.6001V64.6401H32.32V60.6001Z" fill="#161616"/>
<path d="M52.52 60.6001H48.48V64.6401H52.52V60.6001Z" fill="#161616"/>
<path d="M60.6 60.6001H56.56V64.6401H60.6V60.6001Z" fill="#161616"/>
<path d="M64.64 60.6001L60.6 60.6001V64.6401H64.64V60.6001Z" fill="#161616"/>
<path d="M76.76 60.6001H72.72V64.6401H76.76V60.6001Z" fill="#161616"/>
<path d="M84.84 60.6001H80.8V64.6401H84.84V60.6001Z" fill="#161616"/>
<path d="M96.96 60.6001L92.92 60.6001V64.6401H96.96V60.6001Z" fill="#161616"/>
<path d="M4.04 64.6401H0V68.6801H4.04V64.6401Z" fill="#161616"/>
<path d="M24.24 64.6401H20.2V68.6801H24.24V64.6401Z" fill="#161616"/>
<path d="M28.28 64.6401H24.24V68.6801H28.28V64.6401Z" fill="#161616"/>
<path d="M32.32 64.6401H28.28V68.6801H32.32V64.6401Z" fill="#161616"/>
<path d="M40.4 64.6401H36.36V68.6801H40.4V64.6401Z" fill="#161616"/>
<path d="M44.44 64.6401H40.4V68.6801H44.44V64.6401Z" fill="#161616"/>
<path d="M52.52 64.6401H48.48V68.6801H52.52V64.6401Z" fill="#161616"/>
<path d="M64.64 64.6401H60.6L60.6 68.6801H64.64V64.6401Z" fill="#161616"/>
<path d="M68.68 64.6401H64.64V68.6801H68.68V64.6401Z" fill="#161616"/>
<path d="M72.72 64.6401H68.68V68.6801H72.72V64.6401Z" fill="#161616"/>
<path d="M76.76 64.6401H72.72V68.6801H76.76V64.6401Z" fill="#161616"/>
<path d="M80.8 64.6401H76.76V68.6801H80.8V64.6401Z" fill="#161616"/>
<path d="M84.84 64.6401H80.8V68.6801H84.84V64.6401Z" fill="#161616"/>
<path d="M88.88 64.6401H84.84V68.6801H88.88V64.6401Z" fill="#161616"/>
<path d="M96.96 64.6401H92.92V68.6801H96.96V64.6401Z" fill="#161616"/>
<path d="M36.36 68.6801H32.32V72.7201H36.36V68.6801Z" fill="#161616"/>
<path d="M44.44 68.6801H40.4V72.7201H44.44V68.6801Z" fill="#161616"/>
<path d="M52.52 68.6801H48.48V72.7201H52.52V68.6801Z" fill="#161616"/>
<path d="M64.64 68.6801H60.6V72.7201H64.64V68.6801Z" fill="#161616"/>
<path d="M68.68 68.6801H64.64V72.7201H68.68V68.6801Z" fill="#161616"/>
<path d="M84.84 68.6801H80.8V72.7201H84.84V68.6801Z" fill="#161616"/>
<path d="M88.88 68.6801H84.84V72.7201H88.88V68.6801Z" fill="#161616"/>
<path d="M92.92 68.6801H88.88V72.7201H92.92V68.6801Z" fill="#161616"/>
<path d="M4.04 72.7201H0V76.7601H4.04V72.7201Z" fill="#161616"/>
<path d="M8.08 72.7201H4.04V76.7601H8.08V72.7201Z" fill="#161616"/>
<path d="M12.12 72.7201H8.08V76.7601H12.12V72.7201Z" fill="#161616"/>
<path d="M16.16 72.7201H12.12V76.7601H16.16V72.7201Z" fill="#161616"/>
<path d="M20.2 72.7201H16.16V76.7601H20.2V72.7201Z" fill="#161616"/>
<path d="M24.24 72.7201H20.2V76.7601H24.24V72.7201Z" fill="#161616"/>
<path d="M28.28 72.7201H24.24V76.7601H28.28V72.7201Z" fill="#161616"/>
<path d="M36.36 72.7201H32.32V76.7601H36.36V72.7201Z" fill="#161616"/>
<path d="M52.52 72.7201H48.48V76.7601H52.52V72.7201Z" fill="#161616"/>
<path d="M64.64 72.7201H60.6V76.7601H64.64V72.7201Z" fill="#161616"/>
<path d="M68.68 72.7201H64.64V76.7601H68.68V72.7201Z" fill="#161616"/>
<path d="M76.76 72.7201H72.72V76.7601H76.76V72.7201Z" fill="#161616"/>
<path d="M84.84 72.7201H80.8V76.7601H84.84V72.7201Z" fill="#161616"/>
<path d="M88.88 72.7201H84.84V76.7601H88.88V72.7201Z" fill="#161616"/>
<path d="M92.92 72.7201H88.88V76.7601H92.92V72.7201Z" fill="#161616"/>
<path d="M101 72.7201H96.96V76.7601H101V72.7201Z" fill="#161616"/>
<path d="M4.04 76.7601H0V80.8001H4.04V76.7601Z" fill="#161616"/>
<path d="M28.28 76.7601H24.24L24.24 80.8001H28.28V76.7601Z" fill="#161616"/>
<path d="M36.36 76.7601H32.32V80.8001H36.36V76.7601Z" fill="#161616"/>
<path d="M44.44 76.7601H40.4V80.8001H44.44V76.7601Z" fill="#161616"/>
<path d="M60.6 76.7601H56.56V80.8001H60.6L60.6 76.7601Z" fill="#161616"/>
<path d="M68.68 76.7601H64.64V80.8001H68.68V76.7601Z" fill="#161616"/>
<path d="M84.84 76.7601H80.8V80.8001H84.84V76.7601Z" fill="#161616"/>
<path d="M92.92 76.7601H88.88V80.8001H92.92V76.7601Z" fill="#161616"/>
<path d="M4.04 80.8001H0V84.8401H4.04V80.8001Z" fill="#161616"/>
<path d="M12.12 80.8001H8.08V84.8401H12.12V80.8001Z" fill="#161616"/>
<path d="M16.16 80.8001H12.12V84.8401H16.16V80.8001Z" fill="#161616"/>
<path d="M20.2 80.8001H16.16V84.8401H20.2V80.8001Z" fill="#161616"/>
<path d="M28.28 80.8001H24.24V84.8401H28.28V80.8001Z" fill="#161616"/>
<path d="M36.36 80.8001H32.32V84.8401H36.36V80.8001Z" fill="#161616"/>
<path d="M40.4 80.8001H36.36V84.8401H40.4V80.8001Z" fill="#161616"/>
<path d="M44.44 80.8001H40.4V84.8401H44.44V80.8001Z" fill="#161616"/>
<path d="M56.56 80.8001H52.52V84.8401H56.56V80.8001Z" fill="#161616"/>
<path d="M60.6 80.8001H56.56V84.8401H60.6V80.8001Z" fill="#161616"/>
<path d="M68.68 80.8001H64.64V84.8401H68.68V80.8001Z" fill="#161616"/>
<path d="M72.72 80.8001H68.68V84.8401H72.72V80.8001Z" fill="#161616"/>
<path d="M76.76 80.8001H72.72V84.8401H76.76V80.8001Z" fill="#161616"/>
<path d="M80.8 80.8001H76.76V84.8401H80.8V80.8001Z" fill="#161616"/>
<path d="M84.84 80.8001H80.8V84.8401H84.84V80.8001Z" fill="#161616"/>
<path d="M101 80.8001H96.96V84.8401H101V80.8001Z" fill="#161616"/>
<path d="M4.04 84.8401H0V88.8801H4.04V84.8401Z" fill="#161616"/>
<path d="M12.12 84.8401H8.08V88.8801H12.12V84.8401Z" fill="#161616"/>
<path d="M16.16 84.8401H12.12V88.8801H16.16V84.8401Z" fill="#161616"/>
<path d="M20.2 84.8401H16.16V88.8801H20.2V84.8401Z" fill="#161616"/>
<path d="M28.28 84.8401H24.24V88.8801H28.28V84.8401Z" fill="#161616"/>
<path d="M36.36 84.8401H32.32V88.8801H36.36V84.8401Z" fill="#161616"/>
<path d="M52.52 84.8401H48.48V88.8801H52.52V84.8401Z" fill="#161616"/>
<path d="M68.68 84.8401H64.64V88.8801H68.68V84.8401Z" fill="#161616"/>
<path d="M72.72 84.8401H68.68V88.8801H72.72V84.8401Z" fill="#161616"/>
<path d="M88.88 84.8401H84.84V88.8801H88.88V84.8401Z" fill="#161616"/>
<path d="M4.04 88.8801H0V92.9201H4.04V88.8801Z" fill="#161616"/>
<path d="M12.12 88.8801H8.08V92.9201H12.12V88.8801Z" fill="#161616"/>
<path d="M16.16 88.8801H12.12V92.9201H16.16V88.8801Z" fill="#161616"/>
<path d="M20.2 88.8801H16.16V92.9201H20.2V88.8801Z" fill="#161616"/>
<path d="M28.28 88.8801H24.24V92.9201H28.28V88.8801Z" fill="#161616"/>
<path d="M48.48 88.8801H44.44V92.9201H48.48V88.8801Z" fill="#161616"/>
<path d="M52.52 88.8801H48.48V92.9201H52.52V88.8801Z" fill="#161616"/>
<path d="M60.6 88.8801H56.56V92.9201H60.6V88.8801Z" fill="#161616"/>
<path d="M64.64 88.8801H60.6V92.9201H64.64V88.8801Z" fill="#161616"/>
<path d="M68.68 88.8801H64.64V92.9201H68.68V88.8801Z" fill="#161616"/>
<path d="M80.8 88.8801H76.76V92.9201H80.8V88.8801Z" fill="#161616"/>
<path d="M84.84 88.8801H80.8V92.9201H84.84V88.8801Z" fill="#161616"/>
<path d="M92.92 88.8801H88.88V92.9201H92.92V88.8801Z" fill="#161616"/>
<path d="M96.96 88.8801H92.92V92.9201H96.96V88.8801Z" fill="#161616"/>
<path d="M101 88.8801H96.96V92.9201H101V88.8801Z" fill="#161616"/>
<path d="M4.04 92.9201H0V96.9601H4.04V92.9201Z" fill="#161616"/>
<path d="M28.28 92.9201H24.24V96.9601H28.28V92.9201Z" fill="#161616"/>
<path d="M40.4 92.9201H36.36V96.9601H40.4V92.9201Z" fill="#161616"/>
<path d="M44.44 92.9201H40.4V96.9601H44.44V92.9201Z" fill="#161616"/>
<path d="M48.48 92.9201H44.44V96.9601H48.48V92.9201Z" fill="#161616"/>
<path d="M56.56 92.9201H52.52V96.9601H56.56V92.9201Z" fill="#161616"/>
<path d="M60.6 92.9201H56.56V96.9601H60.6V92.9201Z" fill="#161616"/>
<path d="M72.72 92.9201H68.68V96.9601H72.72V92.9201Z" fill="#161616"/>
<path d="M76.76 92.9201H72.72V96.9601H76.76V92.9201Z" fill="#161616"/>
<path d="M80.8 92.9201H76.76V96.9601H80.8V92.9201Z" fill="#161616"/>
<path d="M84.84 92.9201H80.8V96.9601H84.84V92.9201Z" fill="#161616"/>
<path d="M92.92 92.9201H88.88V96.9601H92.92V92.9201Z" fill="#161616"/>
<path d="M96.96 92.9201H92.92V96.9601H96.96V92.9201Z" fill="#161616"/>
<path d="M101 92.9201H96.96V96.9601H101V92.9201Z" fill="#161616"/>
<path d="M4.04 96.9601H0V101H4.04V96.9601Z" fill="#161616"/>
<path d="M8.08 96.9601H4.04V101H8.08V96.9601Z" fill="#161616"/>
<path d="M12.12 96.9601H8.08V101H12.12V96.9601Z" fill="#161616"/>
<path d="M16.16 96.9601H12.12V101H16.16V96.9601Z" fill="#161616"/>
<path d="M20.2 96.9601H16.16V101H20.2V96.9601Z" fill="#161616"/>
<path d="M24.24 96.9601H20.2V101H24.24L24.24 96.9601Z" fill="#161616"/>
<path d="M28.28 96.9601H24.24L24.24 101H28.28V96.9601Z" fill="#161616"/>
<path d="M36.36 96.9601H32.32V101H36.36V96.9601Z" fill="#161616"/>
<path d="M48.48 96.9601H44.44V101H48.48V96.9601Z" fill="#161616"/>
<path d="M52.52 96.9601H48.48V101H52.52V96.9601Z" fill="#161616"/>
<path d="M68.68 96.9601H64.64V101H68.68V96.9601Z" fill="#161616"/>
<path d="M88.88 96.9601H84.84V101H88.88V96.9601Z" fill="#161616"/>
<path d="M101 96.9601H96.96V101H101V96.9601Z" fill="#161616"/>
<mask id="mask0_224_1265" style="mask-type:alpha" maskUnits="userSpaceOnUse" x="0" y="0" width="101" height="101">
<path d="M4.04 6.10352e-05H0V4.04006H4.04V6.10352e-05Z" fill="black"/>
<path d="M8.08 6.10352e-05H4.04V4.04006H8.08V6.10352e-05Z" fill="black"/>
<path d="M12.12 6.10352e-05H8.08V4.04006H12.12V6.10352e-05Z" fill="black"/>
<path d="M16.16 6.10352e-05H12.12V4.04006H16.16V6.10352e-05Z" fill="black"/>
<path d="M20.2 6.10352e-05H16.16V4.04006H20.2V6.10352e-05Z" fill="black"/>
<path d="M24.24 6.10352e-05H20.2V4.04006H24.24V6.10352e-05Z" fill="black"/>
<path d="M28.28 6.10352e-05H24.24V4.04006H28.28V6.10352e-05Z" fill="black"/>
<path d="M36.36 6.10352e-05H32.32V4.04006H36.36V6.10352e-05Z" fill="black"/>
<path d="M40.4 6.10352e-05H36.36V4.04006H40.4V6.10352e-05Z" fill="black"/>
<path d="M56.56 6.10352e-05H52.52V4.04006H56.56V6.10352e-05Z" fill="black"/>
<path d="M68.68 6.10352e-05H64.64V4.04006H68.68V6.10352e-05Z" fill="black"/>
<path d="M76.76 6.10352e-05H72.72V4.04006H76.76V6.10352e-05Z" fill="black"/>
<path d="M80.8 6.10352e-05H76.76V4.04006H80.8V6.10352e-05Z" fill="black"/>
<path d="M84.84 6.10352e-05H80.8V4.04006H84.84V6.10352e-05Z" fill="black"/>
<path d="M88.88 6.10352e-05H84.84V4.04006H88.88V6.10352e-05Z" fill="black"/>
<path d="M92.92 6.10352e-05H88.88V4.04006H92.92V6.10352e-05Z" fill="black"/>
<path d="M96.96 6.10352e-05H92.92V4.04006H96.96V6.10352e-05Z" fill="black"/>
<path d="M101 6.10352e-05H96.96V4.04006H101V6.10352e-05Z" fill="black"/>
<path d="M4.04 4.04006H0V8.08006H4.04V4.04006Z" fill="black"/>
<path d="M28.28 4.04006H24.24L24.24 8.08006H28.28V4.04006Z" fill="black"/>
<path d="M52.52 4.04006H48.48V8.08006H52.52V4.04006Z" fill="black"/>
<path d="M56.56 4.04006H52.52V8.08006H56.56V4.04006Z" fill="black"/>
<path d="M68.68 4.04006H64.64V8.08006H68.68V4.04006Z" fill="black"/>
<path d="M76.76 4.04006H72.72V8.08006H76.76V4.04006Z" fill="black"/>
<path d="M101 4.04006H96.96V8.08006H101V4.04006Z" fill="black"/>
<path d="M4.04 8.08006H0V12.1201H4.04V8.08006Z" fill="black"/>
<path d="M12.12 8.08006H8.08V12.1201H12.12V8.08006Z" fill="black"/>
<path d="M16.16 8.08006H12.12V12.1201H16.16V8.08006Z" fill="black"/>
<path d="M20.2 8.08006H16.16V12.1201H20.2V8.08006Z" fill="black"/>
<path d="M28.28 8.08006H24.24V12.1201H28.28V8.08006Z" fill="black"/>
<path d="M40.4 8.08006H36.36V12.1201H40.4V8.08006Z" fill="black"/>
<path d="M44.44 8.08006H40.4V12.1201H44.44V8.08006Z" fill="black"/>
<path d="M48.48 8.08006H44.44V12.1201H48.48V8.08006Z" fill="black"/>
<path d="M52.52 8.08006H48.48V12.1201H52.52V8.08006Z" fill="black"/>
<path d="M56.56 8.08006H52.52V12.1201H56.56V8.08006Z" fill="black"/>
<path d="M68.68 8.08006H64.64V12.1201H68.68V8.08006Z" fill="black"/>
<path d="M76.76 8.08006H72.72V12.1201H76.76V8.08006Z" fill="black"/>
<path d="M84.84 8.08006H80.8V12.1201H84.84V8.08006Z" fill="black"/>
<path d="M88.88 8.08006H84.84V12.1201H88.88V8.08006Z" fill="black"/>
<path d="M92.92 8.08006H88.88V12.1201H92.92V8.08006Z" fill="black"/>
<path d="M101 8.08006H96.96V12.1201H101V8.08006Z" fill="black"/>
<path d="M4.04 12.1201H0V16.1601H4.04V12.1201Z" fill="black"/>
<path d="M12.12 12.1201H8.08V16.1601H12.12V12.1201Z" fill="black"/>
<path d="M16.16 12.1201H12.12V16.1601H16.16V12.1201Z" fill="black"/>
<path d="M20.2 12.1201H16.16V16.1601H20.2V12.1201Z" fill="black"/>
<path d="M28.28 12.1201H24.24V16.1601H28.28V12.1201Z" fill="black"/>
<path d="M40.4 12.1201H36.36V16.1601H40.4V12.1201Z" fill="black"/>
<path d="M44.44 12.1201H40.4V16.1601H44.44V12.1201Z" fill="black"/>
<path d="M56.56 12.1201H52.52V16.1601H56.56V12.1201Z" fill="black"/>
<path d="M76.76 12.1201H72.72V16.1601H76.76V12.1201Z" fill="black"/>
<path d="M84.84 12.1201H80.8V16.1601H84.84V12.1201Z" fill="black"/>
<path d="M88.88 12.1201H84.84V16.1601H88.88V12.1201Z" fill="black"/>
<path d="M92.92 12.1201H88.88V16.1601H92.92V12.1201Z" fill="black"/>
<path d="M101 12.1201H96.96V16.1601H101V12.1201Z" fill="black"/>
<path d="M4.04 16.1601H0V20.2001H4.04V16.1601Z" fill="black"/>
<path d="M12.12 16.1601H8.08V20.2001H12.12V16.1601Z" fill="black"/>
<path d="M16.16 16.1601H12.12V20.2001H16.16V16.1601Z" fill="black"/>
<path d="M20.2 16.1601H16.16V20.2001H20.2V16.1601Z" fill="black"/>
<path d="M28.28 16.1601H24.24V20.2001H28.28V16.1601Z" fill="black"/>
<path d="M36.36 16.1601H32.32V20.2001H36.36V16.1601Z" fill="black"/>
<path d="M44.44 16.1601H40.4V20.2001H44.44V16.1601Z" fill="black"/>
<path d="M48.48 16.1601H44.44V20.2001H48.48V16.1601Z" fill="black"/>
<path d="M52.52 16.1601H48.48V20.2001H52.52V16.1601Z" fill="black"/>
<path d="M60.6 16.1601H56.56V20.2001H60.6V16.1601Z" fill="black"/>
<path d="M76.76 16.1601H72.72V20.2001H76.76V16.1601Z" fill="black"/>
<path d="M84.84 16.1601H80.8V20.2001H84.84V16.1601Z" fill="black"/>
<path d="M88.88 16.1601H84.84V20.2001H88.88V16.1601Z" fill="black"/>
<path d="M92.92 16.1601H88.88V20.2001H92.92V16.1601Z" fill="black"/>
<path d="M101 16.1601H96.96V20.2001H101V16.1601Z" fill="black"/>
<path d="M4.04 20.2001H0V24.2401H4.04V20.2001Z" fill="black"/>
<path d="M28.28 20.2001H24.24V24.2401H28.28V20.2001Z" fill="black"/>
<path d="M60.6 20.2001H56.56V24.2401H60.6V20.2001Z" fill="black"/>
<path d="M76.76 20.2001H72.72V24.2401H76.76V20.2001Z" fill="black"/>
<path d="M101 20.2001H96.96V24.2401H101V20.2001Z" fill="black"/>
<path d="M4.04 24.2401H0V28.2801H4.04V24.2401Z" fill="black"/>
<path d="M8.08 24.2401L4.04 24.2401V28.2801H8.08V24.2401Z" fill="black"/>
<path d="M12.12 24.2401H8.08V28.2801H12.12V24.2401Z" fill="black"/>
<path d="M16.16 24.2401H12.12V28.2801H16.16V24.2401Z" fill="black"/>
<path d="M20.2 24.2401H16.16V28.2801H20.2V24.2401Z" fill="black"/>
<path d="M24.24 24.2401L20.2 24.2401V28.2801H24.24L24.24 24.2401Z" fill="black"/>
<path d="M28.28 24.2401H24.24L24.24 28.2801H28.28V24.2401Z" fill="black"/>
<path d="M36.36 24.2401H32.32V28.2801H36.36V24.2401Z" fill="black"/>
<path d="M44.44 24.2401H40.4V28.2801H44.44V24.2401Z" fill="black"/>
<path d="M52.52 24.2401H48.48V28.2801H52.52V24.2401Z" fill="black"/>
<path d="M60.6 24.2401H56.56V28.2801H60.6V24.2401Z" fill="black"/>
<path d="M68.68 24.2401H64.64V28.2801H68.68V24.2401Z" fill="black"/>
<path d="M76.76 24.2401H72.72V28.2801H76.76V24.2401Z" fill="black"/>
<path d="M80.8 24.2401L76.76 24.2401V28.2801H80.8V24.2401Z" fill="black"/>
<path d="M84.84 24.2401H80.8V28.2801H84.84V24.2401Z" fill="black"/>
<path d="M88.88 24.2401H84.84V28.2801H88.88V24.2401Z" fill="black"/>
<path d="M92.92 24.2401H88.88V28.2801H92.92V24.2401Z" fill="black"/>
<path d="M96.96 24.2401L92.92 24.2401V28.2801H96.96V24.2401Z" fill="black"/>
<path d="M101 24.2401H96.96V28.2801H101V24.2401Z" fill="black"/>
<path d="M36.36 28.2801H32.32V32.3201H36.36V28.2801Z" fill="black"/>
<path d="M44.44 28.2801H40.4V32.3201H44.44V28.2801Z" fill="black"/>
<path d="M52.52 28.2801H48.48V32.3201H52.52V28.2801Z" fill="black"/>
<path d="M56.56 28.2801H52.52V32.3201H56.56V28.2801Z" fill="black"/>
<path d="M64.64 28.2801H60.6L60.6 32.3201H64.64V28.2801Z" fill="black"/>
<path d="M68.68 28.2801H64.64V32.3201H68.68V28.2801Z" fill="black"/>
<path d="M4.04 32.3201H0V36.3601H4.04V32.3201Z" fill="black"/>
<path d="M16.16 32.3201H12.12V36.3601H16.16V32.3201Z" fill="black"/>
<path d="M20.2 32.3201H16.16V36.3601H20.2V32.3201Z" fill="black"/>
<path d="M24.24 32.3201H20.2V36.3601H24.24V32.3201Z" fill="black"/>
<path d="M28.28 32.3201H24.24V36.3601H28.28V32.3201Z" fill="black"/>
<path d="M32.32 32.3201H28.28V36.3601H32.32V32.3201Z" fill="black"/>
<path d="M36.36 32.3201H32.32V36.3601H36.36V32.3201Z" fill="black"/>
<path d="M40.4 32.3201H36.36V36.3601H40.4V32.3201Z" fill="black"/>
<path d="M56.56 32.3201H52.52V36.3601H56.56V32.3201Z" fill="black"/>
<path d="M68.68 32.3201H64.64V36.3601H68.68V32.3201Z" fill="black"/>
<path d="M72.72 32.3201H68.68V36.3601H72.72V32.3201Z" fill="black"/>
<path d="M76.76 32.3201H72.72V36.3601H76.76V32.3201Z" fill="black"/>
<path d="M84.84 32.3201H80.8V36.3601H84.84V32.3201Z" fill="black"/>
<path d="M101 32.3201H96.96V36.3601H101V32.3201Z" fill="black"/>
<path d="M8.08 36.3601H4.04V40.4001H8.08V36.3601Z" fill="black"/>
<path d="M16.16 36.3601H12.12V40.4001H16.16V36.3601Z" fill="black"/>
<path d="M20.2 36.3601H16.16V40.4001H20.2V36.3601Z" fill="black"/>
<path d="M32.32 36.3601H28.28V40.4001H32.32V36.3601Z" fill="black"/>
<path d="M36.36 36.3601H32.32V40.4001H36.36V36.3601Z" fill="black"/>
<path d="M52.52 36.3601H48.48V40.4001H52.52V36.3601Z" fill="black"/>
<path d="M64.64 36.3601H60.6V40.4001H64.64V36.3601Z" fill="black"/>
<path d="M72.72 36.3601H68.68V40.4001H72.72V36.3601Z" fill="black"/>
<path d="M76.76 36.3601H72.72V40.4001H76.76V36.3601Z" fill="black"/>
<path d="M84.84 36.3601H80.8V40.4001H84.84V36.3601Z" fill="black"/>
<path d="M88.88 36.3601H84.84V40.4001H88.88V36.3601Z" fill="black"/>
<path d="M92.92 36.3601H88.88V40.4001H92.92V36.3601Z" fill="black"/>
<path d="M96.96 36.3601H92.92V40.4001H96.96V36.3601Z" fill="black"/>
<path d="M101 36.3601H96.96V40.4001H101V36.3601Z" fill="black"/>
<path d="M4.04 40.4001H0V44.4401H4.04V40.4001Z" fill="black"/>
<path d="M8.08 40.4001H4.04V44.4401H8.08V40.4001Z" fill="black"/>
<path d="M16.16 40.4001H12.12V44.4401H16.16V40.4001Z" fill="black"/>
<path d="M20.2 40.4001H16.16V44.4401H20.2V40.4001Z" fill="black"/>
<path d="M24.24 40.4001H20.2V44.4401H24.24V40.4001Z" fill="black"/>
<path d="M28.28 40.4001H24.24V44.4401H28.28V40.4001Z" fill="black"/>
<path d="M32.32 40.4001H28.28V44.4401H32.32V40.4001Z" fill="black"/>
<path d="M40.4 40.4001H36.36V44.4401H40.4V40.4001Z" fill="black"/>
<path d="M48.48 40.4001H44.44V44.4401H48.48V40.4001Z" fill="black"/>
<path d="M52.52 40.4001H48.48V44.4401H52.52V40.4001Z" fill="black"/>
<path d="M60.6 40.4001H56.56V44.4401H60.6L60.6 40.4001Z" fill="black"/>
<path d="M68.68 40.4001H64.64V44.4401H68.68V40.4001Z" fill="black"/>
<path d="M72.72 40.4001H68.68V44.4401H72.72V40.4001Z" fill="black"/>
<path d="M76.76 40.4001H72.72V44.4401H76.76V40.4001Z" fill="black"/>
<path d="M80.8 40.4001H76.76V44.4401H80.8V40.4001Z" fill="black"/>
<path d="M84.84 40.4001H80.8V44.4401H84.84V40.4001Z" fill="black"/>
<path d="M88.88 40.4001H84.84V44.4401H88.88V40.4001Z" fill="black"/>
<path d="M92.92 40.4001H88.88V44.4401H92.92V40.4001Z" fill="black"/>
<path d="M96.96 40.4001H92.92V44.4401H96.96V40.4001Z" fill="black"/>
<path d="M4.04 44.4401H0V48.4801H4.04V44.4401Z" fill="black"/>
<path d="M20.2 44.4401H16.16V48.4801H20.2V44.4401Z" fill="black"/>
<path d="M24.24 44.4401H20.2V48.4801H24.24V44.4401Z" fill="black"/>
<path d="M32.32 44.4401H28.28V48.4801H32.32V44.4401Z" fill="black"/>
<path d="M40.4 44.4401H36.36V48.4801H40.4V44.4401Z" fill="black"/>
<path d="M44.44 44.4401H40.4V48.4801H44.44V44.4401Z" fill="black"/>
<path d="M60.6 44.4401H56.56V48.4801H60.6V44.4401Z" fill="black"/>
<path d="M64.64 44.4401H60.6V48.4801H64.64V44.4401Z" fill="black"/>
<path d="M84.84 44.4401H80.8V48.4801H84.84V44.4401Z" fill="black"/>
<path d="M92.92 44.4401H88.88V48.4801H92.92V44.4401Z" fill="black"/>
<path d="M96.96 44.4401H92.92V48.4801H96.96V44.4401Z" fill="black"/>
<path d="M4.04 48.4801H0V52.5201H4.04V48.4801Z" fill="black"/>
<path d="M16.16 48.4801H12.12V52.5201H16.16V48.4801Z" fill="black"/>
<path d="M20.2 48.4801H16.16V52.5201H20.2V48.4801Z" fill="black"/>
<path d="M24.24 48.4801H20.2V52.5201H24.24V48.4801Z" fill="black"/>
<path d="M28.28 48.4801H24.24V52.5201H28.28V48.4801Z" fill="black"/>
<path d="M32.32 48.4801H28.28V52.5201H32.32V48.4801Z" fill="black"/>
<path d="M36.36 48.4801H32.32V52.5201H36.36V48.4801Z" fill="black"/>
<path d="M44.44 48.4801H40.4V52.5201H44.44V48.4801Z" fill="black"/>
<path d="M48.48 48.4801H44.44V52.5201H48.48V48.4801Z" fill="black"/>
<path d="M56.56 48.4801H52.52V52.5201H56.56V48.4801Z" fill="black"/>
<path d="M60.6 48.4801H56.56V52.5201H60.6V48.4801Z" fill="black"/>
<path d="M68.68 48.4801H64.64V52.5201H68.68V48.4801Z" fill="black"/>
<path d="M80.8 48.4801H76.76V52.5201H80.8V48.4801Z" fill="black"/>
<path d="M88.88 48.4801H84.84V52.5201H88.88V48.4801Z" fill="black"/>
<path d="M92.92 48.4801H88.88V52.5201H92.92V48.4801Z" fill="black"/>
<path d="M101 48.4801H96.96V52.5201H101V48.4801Z" fill="black"/>
<path d="M4.04 52.5201H0V56.5601H4.04V52.5201Z" fill="black"/>
<path d="M8.08 52.5201H4.04V56.5601H8.08V52.5201Z" fill="black"/>
<path d="M32.32 52.5201H28.28V56.5601H32.32V52.5201Z" fill="black"/>
<path d="M36.36 52.5201H32.32V56.5601H36.36V52.5201Z" fill="black"/>
<path d="M40.4 52.5201H36.36V56.5601H40.4V52.5201Z" fill="black"/>
<path d="M52.52 52.5201H48.48V56.5601H52.52V52.5201Z" fill="black"/>
<path d="M60.6 52.5201H56.56V56.5601H60.6V52.5201Z" fill="black"/>
<path d="M64.64 52.5201H60.6V56.5601H64.64V52.5201Z" fill="black"/>
<path d="M68.68 52.5201H64.64V56.5601H68.68V52.5201Z" fill="black"/>
<path d="M72.72 52.5201H68.68V56.5601H72.72V52.5201Z" fill="black"/>
<path d="M84.84 52.5201H80.8V56.5601H84.84V52.5201Z" fill="black"/>
<path d="M92.92 52.5201H88.88V56.5601H92.92V52.5201Z" fill="black"/>
<path d="M96.96 52.5201H92.92V56.5601H96.96V52.5201Z" fill="black"/>
<path d="M101 52.5201H96.96V56.5601H101V52.5201Z" fill="black"/>
<path d="M4.04 56.5601H0V60.6001H4.04V56.5601Z" fill="black"/>
<path d="M8.08 56.5601H4.04V60.6001H8.08V56.5601Z" fill="black"/>
<path d="M12.12 56.5601H8.08V60.6001H12.12V56.5601Z" fill="black"/>
<path d="M28.28 56.5601H24.24V60.6001H28.28V56.5601Z" fill="black"/>
<path d="M40.4 56.5601H36.36V60.6001H40.4V56.5601Z" fill="black"/>
<path d="M48.48 56.5601H44.44V60.6001H48.48V56.5601Z" fill="black"/>
<path d="M52.52 56.5601H48.48V60.6001H52.52V56.5601Z" fill="black"/>
<path d="M60.6 56.5601H56.56V60.6001H60.6V56.5601Z" fill="black"/>
<path d="M72.72 56.5601H68.68V60.6001H72.72V56.5601Z" fill="black"/>
<path d="M80.8 56.5601H76.76V60.6001H80.8V56.5601Z" fill="black"/>
<path d="M84.84 56.5601H80.8V60.6001H84.84V56.5601Z" fill="black"/>
<path d="M92.92 56.5601H88.88V60.6001H92.92V56.5601Z" fill="black"/>
<path d="M8.08 60.6001H4.04V64.6401H8.08V60.6001Z" fill="black"/>
<path d="M32.32 60.6001L28.28 60.6001V64.6401H32.32V60.6001Z" fill="black"/>
<path d="M52.52 60.6001H48.48V64.6401H52.52V60.6001Z" fill="black"/>
<path d="M60.6 60.6001H56.56V64.6401H60.6V60.6001Z" fill="black"/>
<path d="M64.64 60.6001L60.6 60.6001V64.6401H64.64V60.6001Z" fill="black"/>
<path d="M76.76 60.6001H72.72V64.6401H76.76V60.6001Z" fill="black"/>
<path d="M84.84 60.6001H80.8V64.6401H84.84V60.6001Z" fill="black"/>
<path d="M96.96 60.6001L92.92 60.6001V64.6401H96.96V60.6001Z" fill="black"/>
<path d="M4.04 64.6401H0V68.6801H4.04V64.6401Z" fill="black"/>
<path d="M24.24 64.6401H20.2V68.6801H24.24V64.6401Z" fill="black"/>
<path d="M28.28 64.6401H24.24V68.6801H28.28V64.6401Z" fill="black"/>
<path d="M32.32 64.6401H28.28V68.6801H32.32V64.6401Z" fill="black"/>
<path d="M40.4 64.6401H36.36V68.6801H40.4V64.6401Z" fill="black"/>
<path d="M44.44 64.6401H40.4V68.6801H44.44V64.6401Z" fill="black"/>
<path d="M52.52 64.6401H48.48V68.6801H52.52V64.6401Z" fill="black"/>
<path d="M64.64 64.6401H60.6L60.6 68.6801H64.64V64.6401Z" fill="black"/>
<path d="M68.68 64.6401H64.64V68.6801H68.68V64.6401Z" fill="black"/>
<path d="M72.72 64.6401H68.68V68.6801H72.72V64.6401Z" fill="black"/>
<path d="M76.76 64.6401H72.72V68.6801H76.76V64.6401Z" fill="black"/>
<path d="M80.8 64.6401H76.76V68.6801H80.8V64.6401Z" fill="black"/>
<path d="M84.84 64.6401H80.8V68.6801H84.84V64.6401Z" fill="black"/>
<path d="M88.88 64.6401H84.84V68.6801H88.88V64.6401Z" fill="black"/>
<path d="M96.96 64.6401H92.92V68.6801H96.96V64.6401Z" fill="black"/>
<path d="M36.36 68.6801H32.32V72.7201H36.36V68.6801Z" fill="black"/>
<path d="M44.44 68.6801H40.4V72.7201H44.44V68.6801Z" fill="black"/>
<path d="M52.52 68.6801H48.48V72.7201H52.52V68.6801Z" fill="black"/>
<path d="M64.64 68.6801H60.6V72.7201H64.64V68.6801Z" fill="black"/>
<path d="M68.68 68.6801H64.64V72.7201H68.68V68.6801Z" fill="black"/>
<path d="M84.84 68.6801H80.8V72.7201H84.84V68.6801Z" fill="black"/>
<path d="M88.88 68.6801H84.84V72.7201H88.88V68.6801Z" fill="black"/>
<path d="M92.92 68.6801H88.88V72.7201H92.92V68.6801Z" fill="black"/>
<path d="M4.04 72.7201H0V76.7601H4.04V72.7201Z" fill="black"/>
<path d="M8.08 72.7201H4.04V76.7601H8.08V72.7201Z" fill="black"/>
<path d="M12.12 72.7201H8.08V76.7601H12.12V72.7201Z" fill="black"/>
<path d="M16.16 72.7201H12.12V76.7601H16.16V72.7201Z" fill="black"/>
<path d="M20.2 72.7201H16.16V76.7601H20.2V72.7201Z" fill="black"/>
<path d="M24.24 72.7201H20.2V76.7601H24.24V72.7201Z" fill="black"/>
<path d="M28.28 72.7201H24.24V76.7601H28.28V72.7201Z" fill="black"/>
<path d="M36.36 72.7201H32.32V76.7601H36.36V72.7201Z" fill="black"/>
<path d="M52.52 72.7201H48.48V76.7601H52.52V72.7201Z" fill="black"/>
<path d="M64.64 72.7201H60.6V76.7601H64.64V72.7201Z" fill="black"/>
<path d="M68.68 72.7201H64.64V76.7601H68.68V72.7201Z" fill="black"/>
<path d="M76.76 72.7201H72.72V76.7601H76.76V72.7201Z" fill="black"/>
<path d="M84.84 72.7201H80.8V76.7601H84.84V72.7201Z" fill="black"/>
<path d="M88.88 72.7201H84.84V76.7601H88.88V72.7201Z" fill="black"/>
<path d="M92.92 72.7201H88.88V76.7601H92.92V72.7201Z" fill="black"/>
<path d="M101 72.7201H96.96V76.7601H101V72.7201Z" fill="black"/>
<path d="M4.04 76.7601H0V80.8001H4.04V76.7601Z" fill="black"/>
<path d="M28.28 76.7601H24.24L24.24 80.8001H28.28V76.7601Z" fill="black"/>
<path d="M36.36 76.7601H32.32V80.8001H36.36V76.7601Z" fill="black"/>
<path d="M44.44 76.7601H40.4V80.8001H44.44V76.7601Z" fill="black"/>
<path d="M60.6 76.7601H56.56V80.8001H60.6L60.6 76.7601Z" fill="black"/>
<path d="M68.68 76.7601H64.64V80.8001H68.68V76.7601Z" fill="black"/>
<path d="M84.84 76.7601H80.8V80.8001H84.84V76.7601Z" fill="black"/>
<path d="M92.92 76.7601H88.88V80.8001H92.92V76.7601Z" fill="black"/>
<path d="M4.04 80.8001H0V84.8401H4.04V80.8001Z" fill="black"/>
<path d="M12.12 80.8001H8.08V84.8401H12.12V80.8001Z" fill="black"/>
<path d="M16.16 80.8001H12.12V84.8401H16.16V80.8001Z" fill="black"/>
<path d="M20.2 80.8001H16.16V84.8401H20.2V80.8001Z" fill="black"/>
<path d="M28.28 80.8001H24.24V84.8401H28.28V80.8001Z" fill="black"/>
<path d="M36.36 80.8001H32.32V84.8401H36.36V80.8001Z" fill="black"/>
<path d="M40.4 80.8001H36.36V84.8401H40.4V80.8001Z" fill="black"/>
<path d="M44.44 80.8001H40.4V84.8401H44.44V80.8001Z" fill="black"/>
<path d="M56.56 80.8001H52.52V84.8401H56.56V80.8001Z" fill="black"/>
<path d="M60.6 80.8001H56.56V84.8401H60.6V80.8001Z" fill="black"/>
<path d="M68.68 80.8001H64.64V84.8401H68.68V80.8001Z" fill="black"/>
<path d="M72.72 80.8001H68.68V84.8401H72.72V80.8001Z" fill="black"/>
<path d="M76.76 80.8001H72.72V84.8401H76.76V80.8001Z" fill="black"/>
<path d="M80.8 80.8001H76.76V84.8401H80.8V80.8001Z" fill="black"/>
<path d="M84.84 80.8001H80.8V84.8401H84.84V80.8001Z" fill="black"/>
<path d="M101 80.8001H96.96V84.8401H101V80.8001Z" fill="black"/>
<path d="M4.04 84.8401H0V88.8801H4.04V84.8401Z" fill="black"/>
<path d="M12.12 84.8401H8.08V88.8801H12.12V84.8401Z" fill="black"/>
<path d="M16.16 84.8401H12.12V88.8801H16.16V84.8401Z" fill="black"/>
<path d="M20.2 84.8401H16.16V88.8801H20.2V84.8401Z" fill="black"/>
<path d="M28.28 84.8401H24.24V88.8801H28.28V84.8401Z" fill="black"/>
<path d="M36.36 84.8401H32.32V88.8801H36.36V84.8401Z" fill="black"/>
<path d="M52.52 84.8401H48.48V88.8801H52.52V84.8401Z" fill="black"/>
<path d="M68.68 84.8401H64.64V88.8801H68.68V84.8401Z" fill="black"/>
<path d="M72.72 84.8401H68.68V88.8801H72.72V84.8401Z" fill="black"/>
<path d="M88.88 84.8401H84.84V88.8801H88.88V84.8401Z" fill="black"/>
<path d="M4.04 88.8801H0V92.9201H4.04V88.8801Z" fill="black"/>
<path d="M12.12 88.8801H8.08V92.9201H12.12V88.8801Z" fill="black"/>
<path d="M16.16 88.8801H12.12V92.9201H16.16V88.8801Z" fill="black"/>
<path d="M20.2 88.8801H16.16V92.9201H20.2V88.8801Z" fill="black"/>
<path d="M28.28 88.8801H24.24V92.9201H28.28V88.8801Z" fill="black"/>
<path d="M48.48 88.8801H44.44V92.9201H48.48V88.8801Z" fill="black"/>
<path d="M52.52 88.8801H48.48V92.9201H52.52V88.8801Z" fill="black"/>
<path d="M60.6 88.8801H56.56V92.9201H60.6V88.8801Z" fill="black"/>
<path d="M64.64 88.8801H60.6V92.9201H64.64V88.8801Z" fill="black"/>
<path d="M68.68 88.8801H64.64V92.9201H68.68V88.8801Z" fill="black"/>
<path d="M80.8 88.8801H76.76V92.9201H80.8V88.8801Z" fill="black"/>
<path d="M84.84 88.8801H80.8V92.9201H84.84V88.8801Z" fill="black"/>
<path d="M92.92 88.8801H88.88V92.9201H92.92V88.8801Z" fill="black"/>
<path d="M96.96 88.8801H92.92V92.9201H96.96V88.8801Z" fill="black"/>
<path d="M101 88.8801H96.96V92.9201H101V88.8801Z" fill="black"/>
<path d="M4.04 92.9201H0V96.9601H4.04V92.9201Z" fill="black"/>
<path d="M28.28 92.9201H24.24V96.9601H28.28V92.9201Z" fill="black"/>
<path d="M40.4 92.9201H36.36V96.9601H40.4V92.9201Z" fill="black"/>
<path d="M44.44 92.9201H40.4V96.9601H44.44V92.9201Z" fill="black"/>
<path d="M48.48 92.9201H44.44V96.9601H48.48V92.9201Z" fill="black"/>
<path d="M56.56 92.9201H52.52V96.9601H56.56V92.9201Z" fill="black"/>
<path d="M60.6 92.9201H56.56V96.9601H60.6V92.9201Z" fill="black"/>
<path d="M72.72 92.9201H68.68V96.9601H72.72V92.9201Z" fill="black"/>
<path d="M76.76 92.9201H72.72V96.9601H76.76V92.9201Z" fill="black"/>
<path d="M80.8 92.9201H76.76V96.9601H80.8V92.9201Z" fill="black"/>
<path d="M84.84 92.9201H80.8V96.9601H84.84V92.9201Z" fill="black"/>
<path d="M92.92 92.9201H88.88V96.9601H92.92V92.9201Z" fill="black"/>
<path d="M96.96 92.9201H92.92V96.9601H96.96V92.9201Z" fill="black"/>
<path d="M101 92.9201H96.96V96.9601H101V92.9201Z" fill="black"/>
<path d="M4.04 96.9601H0V101H4.04V96.9601Z" fill="black"/>
<path d="M8.08 96.9601H4.04V101H8.08V96.9601Z" fill="black"/>
<path d="M12.12 96.9601H8.08V101H12.12V96.9601Z" fill="black"/>
<path d="M16.16 96.9601H12.12V101H16.16V96.9601Z" fill="black"/>
<path d="M20.2 96.9601H16.16V101H20.2V96.9601Z" fill="black"/>
<path d="M24.24 96.9601H20.2V101H24.24L24.24 96.9601Z" fill="black"/>
<path d="M28.28 96.9601H24.24L24.24 101H28.28V96.9601Z" fill="black"/>
<path d="M36.36 96.9601H32.32V101H36.36V96.9601Z" fill="black"/>
<path d="M48.48 96.9601H44.44V101H48.48V96.9601Z" fill="black"/>
<path d="M52.52 96.9601H48.48V101H52.52V96.9601Z" fill="black"/>
<path d="M68.68 96.9601H64.64V101H68.68V96.9601Z" fill="black"/>
<path d="M88.88 96.9601H84.84V101H88.88V96.9601Z" fill="black"/>
<path d="M101 96.9601H96.96V101H101V96.9601Z" fill="black"/>
</mask>
<g mask="url(#mask0_224_1265)">
</g>
</svg>
