<svg width="34" height="46" viewBox="0 0 34 46" fill="none" xmlns="http://www.w3.org/2000/svg">
<path fill-rule="evenodd" clip-rule="evenodd" d="M16 14.4286C16.9468 14.4286 17.7143 15.1961 17.7143 16.1429V22.6692L23.4591 24.8234C24.3456 25.1559 24.7947 26.144 24.4623 27.0305C24.1298 27.917 23.1417 28.3662 22.2552 28.0337L15.3981 25.4623C14.729 25.2114 14.2857 24.5717 14.2857 23.8572V16.1429C14.2857 15.1961 15.0532 14.4286 16 14.4286Z" fill="#161616"/>
<path fill-rule="evenodd" clip-rule="evenodd" d="M17.7143 16.1429C17.7143 15.1961 16.9468 14.4286 16 14.4286C15.0532 14.4286 14.2857 15.1961 14.2857 16.1429V23.8572C14.2857 24.5717 14.729 25.2114 15.3981 25.4623L22.2552 28.0337C23.1417 28.3662 24.1298 27.917 24.4623 27.0305C24.7947 26.144 24.3456 25.1559 23.4591 24.8234L17.7143 22.6692V16.1429Z" fill="#161616"/>
<path fill-rule="evenodd" clip-rule="evenodd" d="M0.571426 21.2857C0.571426 16.4853 0.571426 14.0851 1.50566 12.2515C2.32743 10.6387 3.63869 9.32744 5.25151 8.50567C5.8845 8.18314 6.58504 7.97196 7.42857 7.83369C7.42854 6.93618 7.42879 6.1615 7.48097 5.52282C7.53635 4.84509 7.6586 4.171 7.98911 3.52235C8.48217 2.55466 9.26893 1.7679 10.2366 1.27484C10.8853 0.944331 11.5594 0.822075 12.2371 0.766702C12.8792 0.714239 13.6588 0.714265 14.5625 0.714296H17.4375C18.3412 0.714265 19.1208 0.714239 19.7629 0.766702C20.4406 0.822075 21.1147 0.944331 21.7634 1.27484C22.7311 1.7679 23.5178 2.55466 24.0109 3.52235C24.3414 4.171 24.4637 4.84509 24.519 5.52282C24.5712 6.1615 24.5715 6.93618 24.5714 7.83369C25.415 7.97196 26.1155 8.18314 26.7485 8.50567C28.3613 9.32744 29.6726 10.6387 30.4943 12.2515C30.8176 12.8859 31.029 13.5882 31.1672 14.4342C31.6476 14.4466 31.9541 14.4867 32.2068 14.6154C32.5294 14.7798 32.7917 15.042 32.956 15.3646C33.1429 15.7313 33.1429 16.2113 33.1429 17.1714V18.5429C33.1429 19.503 33.1429 19.983 32.956 20.3497C32.7917 20.6723 32.5294 20.9345 32.2068 21.0989C32.0033 21.2026 31.7648 21.2488 31.4286 21.2693V24.7143C31.4286 29.5147 31.4286 31.915 30.4943 33.7485C29.6726 35.3613 28.3613 36.6726 26.7485 37.4944C26.1155 37.8169 25.415 38.0281 24.5714 38.1663C24.5715 39.0638 24.5712 39.8385 24.519 40.4772C24.4637 41.1549 24.3414 41.829 24.0109 42.4777C23.5178 43.4454 22.7311 44.2321 21.7634 44.7252C21.1147 45.0557 20.4406 45.1779 19.7629 45.2333C19.1208 45.2858 18.3412 45.2858 17.4375 45.2857H14.5625C13.6588 45.2858 12.8792 45.2858 12.2371 45.2333C11.5594 45.1779 10.8853 45.0557 10.2366 44.7252C9.26893 44.2321 8.48217 43.4454 7.98911 42.4777C7.6586 41.829 7.53635 41.1549 7.48097 40.4772C7.42879 39.8385 7.42854 39.0638 7.42857 38.1663C6.58504 38.0281 5.8845 37.8169 5.25151 37.4944C3.63869 36.6726 2.32743 35.3613 1.50566 33.7485C0.571426 31.915 0.571426 29.5147 0.571426 24.7143V21.2857ZM17.7143 11H14.2857C11.8289 11 10.1925 11.0027 8.93521 11.1054C7.71793 11.2049 7.16092 11.3808 6.80805 11.5605C5.84036 12.0536 5.0536 12.8404 4.56054 13.8081C4.38074 14.1609 4.20485 14.7179 4.10539 15.9352C4.00266 17.1925 4 18.8289 4 21.2857V24.7143C4 27.1711 4.00266 28.8075 4.10539 30.0648C4.20485 31.2821 4.38074 31.8391 4.56054 32.192C5.0536 33.1597 5.84036 33.9464 6.80805 34.4395C7.16092 34.6193 7.71793 34.7952 8.93521 34.8946C10.1925 34.9973 11.8289 35 14.2857 35H17.7143C20.1711 35 21.8075 34.9973 23.0648 34.8946C24.2821 34.7952 24.8391 34.6193 25.192 34.4395C26.1596 33.9464 26.9464 33.1597 27.4395 32.192C27.6193 31.8391 27.7952 31.2821 27.8946 30.0648C27.9973 28.8075 28 27.1711 28 24.7143V21.2857C28 18.8289 27.9973 17.1925 27.8946 15.9352C27.7952 14.7179 27.6193 14.1609 27.4395 13.8081C26.9464 12.8404 26.1596 12.0536 25.192 11.5605C24.8391 11.3808 24.2821 11.2049 23.0648 11.1054C21.8075 11.0027 20.1711 11 17.7143 11ZM14.2857 38.4286H17.7143C19.0232 38.4286 20.1536 38.4286 21.1428 38.4096C21.1421 39.2173 21.137 39.7675 21.1018 40.198C21.0638 40.6637 20.9992 40.8364 20.956 40.9211C20.7917 41.2437 20.5294 41.506 20.2068 41.6703C20.1221 41.7135 19.9494 41.7781 19.4837 41.8161C18.998 41.8558 18.3598 41.8572 17.3714 41.8572H14.6286C13.6402 41.8572 13.002 41.8558 12.5163 41.8161C12.0506 41.7781 11.8779 41.7135 11.7932 41.6703C11.4706 41.506 11.2083 41.2437 11.044 40.9211C11.0008 40.8364 10.9362 40.6637 10.8982 40.198C10.863 39.7675 10.8579 39.2173 10.8572 38.4096C11.8464 38.4286 12.9768 38.4286 14.2857 38.4286ZM17.7143 7.57144H14.2857C12.9768 7.57144 11.8464 7.57145 10.8572 7.59038C10.8579 6.78274 10.863 6.2325 10.8982 5.80202C10.9362 5.33631 11.0008 5.16365 11.044 5.07889C11.2083 4.75632 11.4706 4.49407 11.7932 4.32972C11.8779 4.28653 12.0506 4.22194 12.5163 4.18389C13.002 4.1442 13.6402 4.14287 14.6286 4.14287H17.3714C18.3598 4.14287 18.998 4.1442 19.4837 4.18389C19.9494 4.22194 20.1221 4.28653 20.2068 4.32972C20.5294 4.49407 20.7917 4.75632 20.956 5.07889C20.9992 5.16365 21.0638 5.33631 21.1018 5.80202C21.137 6.2325 21.1421 6.78273 21.1428 7.59038C20.1536 7.57144 19.0232 7.57144 17.7143 7.57144Z" fill="#161616"/>
</svg>
