<svg width="43" height="36" viewBox="0 0 43 36" fill="none" xmlns="http://www.w3.org/2000/svg">
<path fill-rule="evenodd" clip-rule="evenodd" d="M31.1 0.857117C34.9404 0.857117 36.8605 0.857117 38.3274 1.6045C39.6176 2.26192 40.6666 3.31093 41.324 4.60118C42.0714 6.06801 42.0714 7.98818 42.0714 11.8285V19.0285C42.0714 22.8689 42.0714 24.7891 41.324 26.2559C40.6666 27.5462 39.6176 28.5952 38.3274 29.2526C36.8605 30 34.9404 30 31.1 30L29.2142 30L31.1568 32.3311C32.0872 33.4476 31.2932 35.1428 29.8398 35.1428H13.1599C11.7065 35.1428 10.9125 33.4476 11.843 32.3311L13.7856 30L11.9 30C8.05964 30 6.13946 30 4.67264 29.2526C3.38238 28.5952 2.33337 27.5462 1.67596 26.2559C0.928574 24.7891 0.928574 22.8689 0.928574 19.0285V11.8285C0.928574 7.98818 0.928574 6.068 1.67596 4.60118C2.33337 3.31093 3.38238 2.26192 4.67264 1.6045C6.13946 0.857117 8.05964 0.857117 11.9 0.857117H31.1ZM38.6429 11.8285V19.0285C38.6429 21.0053 38.6402 22.2817 38.5608 23.2531C38.4847 24.1845 38.3555 24.5299 38.2692 24.6994C37.9405 25.3445 37.416 25.869 36.7708 26.1977C36.6013 26.2841 36.256 26.4133 35.3246 26.4894C34.3531 26.5687 33.0768 26.5714 31.1 26.5714L11.9 26.5714C9.92325 26.5714 8.64688 26.5687 7.67544 26.4894C6.74402 26.4133 6.3987 26.2841 6.22918 26.1977C5.58405 25.869 5.05954 25.3445 4.73084 24.6994C4.64446 24.5298 4.51528 24.1845 4.43918 23.2531C4.35981 22.2817 4.35714 21.0053 4.35714 19.0285L4.35714 11.8285C4.35714 9.85179 4.35981 8.57542 4.43918 7.60398C4.51528 6.67256 4.64446 6.32724 4.73084 6.15772C5.05954 5.51259 5.58405 4.98809 6.22918 4.65938C6.3987 4.573 6.74402 4.44382 7.67544 4.36772C8.64688 4.28835 9.92325 4.28569 11.9 4.28569L31.1 4.28569C33.0768 4.28569 34.3531 4.28835 35.3246 4.36772C36.256 4.44382 36.6013 4.573 36.7708 4.65938C37.416 4.98809 37.9405 5.51259 38.2692 6.15772C38.3555 6.32724 38.4847 6.67257 38.5608 7.60398C38.6402 8.57542 38.6429 9.85179 38.6429 11.8285Z" fill="#161616"/>
</svg>
