<svg width="43" height="34" viewBox="0 0 43 34" fill="none" xmlns="http://www.w3.org/2000/svg">
<path fill-rule="evenodd" clip-rule="evenodd" d="M16.8451 0.571427L17.1378 0.571506H25.8621L26.1548 0.571427C28.3325 0.570532 29.837 0.569914 31.1998 1.03998C32.4008 1.45425 33.4948 2.13035 34.4025 3.01935C35.4324 4.02806 36.1046 5.37397 37.0777 7.32216L37.2086 7.584L38.8452 10.8572H41.2143C42.1611 10.8572 42.9286 11.6247 42.9286 12.5715V13.1778C42.9286 14.7769 41.7799 16.0254 40.3571 16.3085V22.8572H40.3572V26.6287L40.3572 26.6683L40.3572 26.7523V30.1944L40.3572 30.2316C40.3573 30.4136 40.3574 30.6399 40.341 30.8406C40.3218 31.0753 40.2719 31.4213 40.0863 31.7857C39.8479 32.2534 39.4677 32.6337 39 32.872C38.6355 33.0577 38.2895 33.1076 38.0549 33.1267C37.8542 33.1431 37.6279 33.143 37.4458 33.143L37.4086 33.1429H36.4486L36.4114 33.143C36.2294 33.143 36.0031 33.1431 35.8023 33.1267C35.5677 33.1076 35.2217 33.0577 34.8573 32.872C34.3895 32.6337 34.0093 32.2534 33.771 31.7857C33.5853 31.4213 33.5354 31.0753 33.5162 30.8406C33.4998 30.6399 33.4999 30.4136 33.5 30.2316L33.5 30.1944V29.7144H9.50004V30.1944L9.50005 30.2316V30.2316C9.50013 30.4137 9.50023 30.6399 9.48383 30.8406C9.46466 31.0753 9.41481 31.4213 9.22911 31.7857C8.9908 32.2534 8.61053 32.6337 8.14281 32.872C7.77836 33.0577 7.43239 33.1076 7.19773 33.1267C6.99702 33.1431 6.77071 33.143 6.58868 33.143L6.55147 33.1429H5.59146L5.55425 33.143C5.37222 33.143 5.14591 33.1431 4.94519 33.1267C4.71054 33.1076 4.36457 33.0577 4.00012 32.872C3.5324 32.6337 3.15213 32.2534 2.91382 31.7857C2.72812 31.4213 2.67827 31.0753 2.6591 30.8406C2.6427 30.6399 2.6428 30.4136 2.64288 30.2316L2.64289 30.1944V26.8832L2.64288 26.803L2.64289 26.7658V24.2013L2.64282 23.9477L2.64282 16.3085C1.22012 16.0254 0.0714417 14.7769 0.0714417 13.1778V12.5715C0.0714417 11.6247 0.838954 10.8572 1.78573 10.8572H4.15477L5.79138 7.584L5.92222 7.32214L5.92222 7.32213C6.89531 5.37396 7.56757 4.02806 8.59747 3.01935C9.50514 2.13035 10.5991 1.45425 11.8002 1.03998C13.163 0.569914 14.6674 0.570532 16.8451 0.571427ZM6.10074 25.4351C6.0756 25.1275 6.07195 24.727 6.07147 24.1072V21.1429H6.0714V16.0354C6.19375 16.058 6.34476 16.0842 6.52728 16.113C7.0784 16.2 7.91978 16.3115 9.13051 16.4216C11.5507 16.6416 15.4612 16.8572 21.5 16.8572C27.5388 16.8572 31.4493 16.6416 33.8695 16.4216C35.0802 16.3115 35.9216 16.2 36.4727 16.113C36.6552 16.0842 36.8062 16.058 36.9285 16.0354V23.8858C36.9285 24.6341 36.9272 25.0923 36.8992 25.4351C36.8862 25.5948 36.8698 25.6914 36.8559 25.7501C36.8494 25.778 36.8439 25.7952 36.8405 25.8044C36.8374 25.8134 36.8355 25.8171 36.8351 25.8178C36.7529 25.9791 36.6218 26.1102 36.4605 26.1924C36.46 26.1926 36.4578 26.1938 36.4529 26.1957L36.4472 26.1978C36.4379 26.2011 36.4207 26.2066 36.3928 26.2132C36.3342 26.227 36.2375 26.2434 36.0779 26.2565C35.7351 26.2845 35.2769 26.2858 34.5285 26.2858H8.4714C7.72304 26.2858 7.26487 26.2845 6.92208 26.2565C6.7624 26.2434 6.66578 26.227 6.60711 26.2132C6.5792 26.2066 6.56203 26.2011 6.55275 26.1978C6.54383 26.1946 6.54009 26.1927 6.5394 26.1924C6.37812 26.1102 6.247 25.9791 6.16482 25.8178C6.16447 25.8171 6.16256 25.8134 6.15938 25.8044C6.15607 25.7952 6.15056 25.778 6.14399 25.7501C6.13017 25.6914 6.11378 25.5948 6.10074 25.4351ZM35.9459 12.7252L34.1419 9.1173C32.9856 6.80458 32.5703 6.02396 32.0034 5.46878C31.4588 4.93539 30.8025 4.52973 30.0818 4.28116C29.3317 4.02244 28.4478 4.00008 25.8621 4.00008H17.1378C14.5521 4.00008 13.6682 4.02244 12.9181 4.28116C12.1975 4.52973 11.5411 4.93539 10.9965 5.46878C10.4297 6.02396 10.0143 6.80458 8.85798 9.1173L7.05406 12.7251C7.0567 12.7256 7.05935 12.726 7.06201 12.7264C7.52874 12.8001 8.29451 12.9029 9.44092 13.0071C11.735 13.2157 15.5388 13.4286 21.5 13.4286C27.4612 13.4286 31.265 13.2157 33.5591 13.0071C34.7055 12.9029 35.4713 12.8001 35.938 12.7264C35.9406 12.726 35.9433 12.7256 35.9459 12.7252ZM33.7126 22.844C34.6521 22.7265 35.3185 21.8697 35.201 20.9303C35.0836 19.9908 34.2268 19.3244 33.2874 19.4419L29.8588 19.8704C28.9193 19.9879 28.2529 20.8446 28.3704 21.7841C28.4878 22.7236 29.3446 23.39 30.284 23.2725L33.7126 22.844ZM7.79899 20.9303C7.68156 21.8697 8.34795 22.7265 9.28741 22.844L12.716 23.2725C13.6554 23.39 14.5122 22.7236 14.6297 21.7841C14.7471 20.8446 14.0807 19.9879 13.1412 19.8704L9.71267 19.4419C8.77321 19.3244 7.91643 19.9908 7.79899 20.9303Z" fill="#161616"/>
</svg>
