<svg width="28" height="42" viewBox="0 0 28 42" fill="none" xmlns="http://www.w3.org/2000/svg">
<path d="M12.2857 31.2857C11.3389 31.2857 10.5714 32.0532 10.5714 33C10.5714 33.9468 11.3389 34.7143 12.2857 34.7143H15.7143C16.6611 34.7143 17.4286 33.9468 17.4286 33C17.4286 32.0532 16.6611 31.2857 15.7143 31.2857H12.2857Z" fill="#161616"/>
<path fill-rule="evenodd" clip-rule="evenodd" d="M0.285706 11.4C0.285706 7.55966 0.285706 5.63948 1.03309 4.17265C1.69051 2.8824 2.73952 1.83339 4.02977 1.17597C5.49659 0.428589 7.41677 0.428589 11.2571 0.428589H16.7429C20.5832 0.428589 22.5034 0.428589 23.9702 1.17597C25.2605 1.83339 26.3095 2.8824 26.9669 4.17265C27.7143 5.63948 27.7143 7.55966 27.7143 11.4V30.6C27.7143 34.4404 27.7143 36.3606 26.9669 37.8274C26.3095 39.1176 25.2605 40.1666 23.9702 40.8241C22.5034 41.5714 20.5832 41.5714 16.7429 41.5714H11.2571C7.41677 41.5714 5.49659 41.5714 4.02977 40.8241C2.73952 40.1666 1.69051 39.1176 1.03309 37.8274C0.285706 36.3606 0.285706 34.4404 0.285706 30.6V11.4ZM11.2571 3.85716H16.7429C18.7196 3.85716 19.996 3.85983 20.9674 3.9392C21.8988 4.0153 22.2442 4.14448 22.4137 4.23085C23.0588 4.55956 23.5833 5.08407 23.912 5.72919C23.9984 5.89872 24.1276 6.24404 24.2037 7.17546C24.283 8.1469 24.2857 9.42326 24.2857 11.4V30.6C24.2857 32.5768 24.283 33.8531 24.2037 34.8246C24.1276 35.756 23.9984 36.1013 23.912 36.2708C23.5833 36.916 23.0588 37.4405 22.4137 37.7692C22.2442 37.8556 21.8988 37.9847 20.9674 38.0608C19.996 38.1402 18.7196 38.1429 16.7429 38.1429H11.2571C9.28038 38.1429 8.00401 38.1402 7.03257 38.0608C6.10115 37.9847 5.75583 37.8556 5.58631 37.7692C4.94118 37.4405 4.41668 36.916 4.08797 36.2708C4.00159 36.1013 3.87241 35.756 3.79631 34.8246C3.71694 33.8531 3.71428 32.5768 3.71428 30.6V11.4C3.71428 9.42326 3.71694 8.1469 3.79631 7.17546C3.87241 6.24404 4.00159 5.89872 4.08797 5.72919C4.41668 5.08407 4.94118 4.55956 5.58631 4.23085C5.75583 4.14448 6.10115 4.0153 7.03257 3.9392C8.00401 3.85983 9.28038 3.85716 11.2571 3.85716Z" fill="#161616"/>
</svg>
