<svg width="44" height="42" viewBox="0 0 44 42" fill="none" xmlns="http://www.w3.org/2000/svg">
<path d="M36.3083 0C38.9829 0 39.9528 0.278477 40.9305 0.801398C41.9083 1.32432 42.6757 2.09169 43.1986 3.06946C43.7215 4.04724 44 5.0171 44 7.69166V24.5C44 25.3284 43.3284 26 42.5 26C41.6716 26 41 25.3284 41 24.5V12.999H3V27.1542C3 28.4079 3.12238 28.9124 3.35311 29.3734L3.4007 29.4653C3.66216 29.9542 4.04584 30.3378 4.53473 30.5993C4.99307 30.8444 5.44792 30.9821 6.60487 30.9984L6.84583 31L38.877 30.999L33.4393 25.5607C32.8536 24.9749 32.8536 24.0251 33.4393 23.4393C34.0251 22.8536 34.9749 22.8536 35.5607 23.4393L43.5607 31.4393C44.1464 32.0251 44.1464 32.9749 43.5607 33.5607L35.5607 41.5607C34.9749 42.1464 34.0251 42.1464 33.4393 41.5607C32.8536 40.9749 32.8536 40.0251 33.4393 39.4393L38.878 34H7.69166C5.0171 34 4.04724 33.7215 3.06946 33.1986C2.09169 32.6757 1.32432 31.9083 0.801398 30.9305C0.278477 29.9528 0 28.9829 0 26.3083V7.69166C0 5.0171 0.278477 4.04724 0.801398 3.06946C1.32432 2.09169 2.09169 1.32432 3.06946 0.801398C4.04724 0.278477 5.0171 0 7.69166 0H36.3083ZM37.1542 3H6.84583C5.50855 3 5.02362 3.13924 4.53473 3.4007C4.04584 3.66216 3.66216 4.04584 3.4007 4.53473C3.15558 4.99307 3.01788 5.44792 3.00163 6.60487L3 6.84583V9.999H41V6.84583C41 5.59213 40.8776 5.08757 40.6469 4.62656L40.5993 4.53473C40.3378 4.04584 39.9542 3.66216 39.4653 3.4007C38.9764 3.13924 38.4914 3 37.1542 3Z" fill="#99A2AD"/>
</svg>
