<svg width="44" height="44" viewBox="0 0 44 44" fill="none" xmlns="http://www.w3.org/2000/svg">
<path d="M22 10C21.1716 10 20.5 10.6716 20.5 11.5V32.5C20.5 33.3284 21.1716 34 22 34C22.8284 34 23.5 33.3284 23.5 32.5V11.5C23.5 10.6716 22.8284 10 22 10Z" fill="#99A2AD"/>
<path d="M13.5 18C12.6716 18 12 18.6716 12 19.5V32.5C12 33.3284 12.6716 34 13.5 34C14.3284 34 15 33.3284 15 32.5V19.5C15 18.6716 14.3284 18 13.5 18Z" fill="#99A2AD"/>
<path d="M29 23.5C29 22.6716 29.6716 22 30.5 22C31.3284 22 32 22.6716 32 23.5V32.5C32 33.3284 31.3284 34 30.5 34C29.6716 34 29 33.3284 29 32.5V23.5Z" fill="#99A2AD"/>
<path fill-rule="evenodd" clip-rule="evenodd" d="M14.3194 0L30.1021 0.00131369C32.8799 0.0190217 35.5892 0.231209 38.0916 1.51294C39.9827 2.52428 41.4757 4.01734 42.4871 5.90837C43.8787 8.51048 43.9815 11.4316 44 14.3194V29.6806C43.9815 32.5684 43.8787 35.4895 42.4871 38.0916C41.4757 39.9827 39.9827 41.4757 38.0916 42.4871C35.4895 43.8787 32.5684 43.9815 29.6806 44H14.3194C11.4316 43.9815 8.51048 43.8787 5.90837 42.4871C4.01734 41.4757 2.52428 39.9827 1.51294 38.0916C0.121324 35.4895 0.0184944 32.5684 0 29.6806L0.00131369 13.8979C0.0250776 10.1702 0.374269 8.21705 1.29809 6.32784C2.34322 4.28739 3.87091 2.60259 5.90837 1.51294C8.51048 0.121324 11.4316 0.0184944 14.3194 0ZM3 15V29.6806C3.01289 32.0455 3.0127 34.5346 4.15838 36.6768C4.89012 38.0451 5.95494 39.1099 7.32317 39.8416C9.43972 40.9736 11.8679 40.9867 14.2128 40.9994H29.7872C32.1321 40.9867 34.5603 40.9736 36.6768 39.8416C38.0451 39.1099 39.1099 38.0451 39.8416 36.6768C40.9873 34.5347 40.9872 32.0455 41 29.6806V15C40.9558 12.4046 41.1035 9.6827 39.8416 7.32317C39.1099 5.95494 38.0451 4.89012 36.6768 4.15838C35.0718 3.30002 33.5182 3 29.6806 3H14.3194C11.9417 3.01314 9.47181 3.00928 7.32317 4.15838C5.95494 4.89012 4.89012 5.95494 4.15838 7.32317C2.8965 9.68269 3.04416 12.4046 3 15Z" fill="#99A2AD"/>
</svg>
