<svg width="160" height="37" viewBox="0 0 160 37" fill="none" xmlns="http://www.w3.org/2000/svg">
<g clip-path="url(#clip0_94_178)">
<path fill-rule="evenodd" clip-rule="evenodd" d="M18.3252 6.69264C18.0096 5.90047 17.464 5.22125 16.7588 4.74275C16.0536 4.26426 15.2213 4.00848 14.3694 4.00848C13.5175 4.00848 12.6851 4.26426 11.9799 4.74275C11.2747 5.22125 10.7291 5.90047 10.4135 6.69264L0.974731 31.0704L6.35429 33.146L8.40315 27.4522H20.3111L22.3634 33.146L27.7395 31.0704L18.3252 6.69264ZM14.3641 22.733H10.1158L14.3641 10.9911L18.6124 22.733H14.3641Z" fill="#99A2AD"/>
<path d="M64.4473 4H62.5071V33.1461H64.4473V4Z" fill="#99A2AD"/>
<path fill-rule="evenodd" clip-rule="evenodd" d="M121.995 8.3613C121.413 8.33917 120.835 8.45952 120.31 8.71191V4.38892H117.676V8.69439C117.152 8.44242 116.575 8.32207 115.995 8.34378C113.309 8.34378 111.673 9.97761 111.673 13.6309C111.673 17.0284 113.147 18.8164 115.554 18.8164C116.292 18.8514 117.027 18.6828 117.676 18.3291V21.9404H120.31V18.3466C120.96 18.7005 121.696 18.8691 122.435 18.834C124.67 18.834 126.316 16.9792 126.316 13.5748C126.316 9.92852 124.677 8.3613 121.995 8.3613ZM117.676 16.4253C117.244 16.582 116.787 16.6545 116.327 16.6392C114.947 16.6392 114.38 15.5102 114.38 13.6625C114.38 11.6465 114.993 10.5842 116.202 10.5842C116.711 10.546 117.22 10.6479 117.676 10.8787V16.4253ZM121.662 16.6392C121.202 16.6542 120.743 16.5816 120.31 16.4253V10.8646C120.767 10.6332 121.278 10.5313 121.787 10.5701C122.996 10.5701 123.609 11.5659 123.609 13.5924C123.609 15.4296 122.856 16.6216 121.662 16.6216V16.6392Z" fill="#99A2AD"/>
<path fill-rule="evenodd" clip-rule="evenodd" d="M90.5958 8.98942V13.947C90.6582 14.6796 90.6006 15.4175 90.4246 16.1313C90.2758 16.6172 89.9654 17.0377 89.5454 17.3234L90.2846 18.8731C92.3854 18.2735 93.1982 17.3515 93.1982 14.4168V10.7775C93.6598 10.69 94.1294 10.6477 94.599 10.6513C95.0598 10.6476 95.5198 10.6899 95.9718 10.7775V18.6662H98.6126V8.98942C97.315 8.57504 95.9614 8.36567 94.599 8.36885C93.2406 8.36434 91.8894 8.57376 90.5958 8.98942Z" fill="#99A2AD"/>
<path fill-rule="evenodd" clip-rule="evenodd" d="M137.126 17.7057C136.489 16.8326 136.18 15.7623 136.254 14.6835V11.9803C136.254 10.5183 136.086 9.97832 135.694 9.4489C135.165 8.6951 134.265 8.36903 132.619 8.36903C131.475 8.362 130.335 8.49863 129.225 8.77574L129.617 10.7111C130.303 10.6031 130.994 10.5387 131.687 10.5183C133.438 10.5183 133.638 10.7777 133.638 12.0855V12.5728C133.204 12.454 132.756 12.3939 132.307 12.394C129.666 12.394 128.272 13.6807 128.272 15.8055C128.272 17.8004 129.757 18.8943 131.579 18.8943C132.241 18.8992 132.899 18.7803 133.519 18.5437C133.84 18.4026 134.147 18.2287 134.433 18.0247C134.702 18.3873 135.055 18.6786 135.463 18.8732L137.126 17.7057ZM132.352 16.7907C131.407 16.7907 130.878 16.419 130.878 15.4513C130.878 14.4836 131.558 14.1015 132.86 14.1015C133.123 14.0948 133.386 14.1291 133.638 14.2031V14.9043C133.612 15.4493 133.659 15.9951 133.778 16.5277C133.323 16.7006 132.839 16.7897 132.352 16.7907Z" fill="#99A2AD"/>
<path fill-rule="evenodd" clip-rule="evenodd" d="M109.712 15.0688C109.712 12.9056 108.384 11.5627 105.897 11.5627C105.326 11.5729 104.759 11.6578 104.209 11.8151V8.53345H101.568V18.1401C102.791 18.6422 104.1 18.9006 105.421 18.9009C108.209 18.9009 109.712 17.4529 109.712 15.0688ZM104.209 16.7061V13.8171C104.588 13.7156 104.977 13.6626 105.368 13.6593C106.577 13.6593 106.983 14.2519 106.983 15.2055C106.983 16.1592 106.633 16.8744 105.368 16.8744C104.975 16.8889 104.582 16.8319 104.209 16.7061Z" fill="#99A2AD"/>
<path fill-rule="evenodd" clip-rule="evenodd" d="M81.2263 4.36778C80.7845 4.40617 80.3581 4.55047 79.9833 4.78851C79.6094 5.03404 79.2987 5.36437 79.0762 5.75268C77.5282 10.0371 75.9837 14.3239 74.4426 18.613L77.15 19.6087L78.1797 16.6216H84.2599L85.3103 19.6648L88.0455 18.5569L83.2471 5.51778C83.0607 5.1484 82.7695 4.84228 82.4103 4.63775C82.0519 4.43051 81.6391 4.33642 81.2263 4.36778ZM79.0517 14.0936L81.2263 7.83179L83.3879 14.1112L79.0517 14.0936Z" fill="#99A2AD"/>
<path d="M74.3943 28.2936C74.3759 27.6465 74.4883 27.0023 74.7248 26.3998C74.9613 25.7973 75.3171 25.2489 75.7707 24.7875C76.2266 24.3249 76.7729 23.9617 77.3756 23.7203C77.9783 23.479 78.6242 23.3649 79.273 23.3851C80.73 23.3851 81.8972 23.8069 82.7756 24.6508L82.0956 25.6535C81.722 25.3269 81.2924 25.0704 80.828 24.8962C80.3532 24.7121 79.8488 24.6158 79.3396 24.6122C78.8584 24.59 78.3781 24.6725 77.9319 24.8541C77.4856 25.0357 77.084 25.3121 76.7548 25.6641C76.1069 26.3817 75.7629 27.3233 75.7952 28.2901C75.7686 29.2787 76.1192 30.2403 76.7759 30.9793C77.1 31.3428 77.5004 31.63 77.9485 31.8204C78.3966 32.0107 78.8812 32.0994 79.3676 32.0801C79.9123 32.0772 80.4508 31.9638 80.9506 31.7471C81.4604 31.533 81.9236 31.2209 82.3132 30.8285L83.0308 31.7961C82.55 32.2897 81.9732 32.6793 81.3356 32.941C80.6984 33.2027 80.0143 33.3309 79.3256 33.3178C78.6665 33.3432 78.0096 33.2285 77.3981 32.9813C76.7866 32.7342 76.2344 32.3601 75.7777 31.8838C75.3212 31.4069 74.9638 30.8439 74.7263 30.2276C74.4888 29.6113 74.376 28.9539 74.3943 28.2936Z" fill="#99A2AD"/>
<path d="M86.1794 33.1466V27.4001H83.7874V26.2711H89.885V27.4001H87.4818V33.1466H86.1794Z" fill="#99A2AD"/>
<path d="M91.5129 35.8667V26.2705H92.7353V26.8806L92.6937 27.3995H92.7353C92.9425 26.9948 93.2641 26.6606 93.6601 26.4388C94.0793 26.2067 94.5505 26.086 95.0297 26.0882C95.4481 26.0719 95.8641 26.153 96.2457 26.3251C96.6273 26.4973 96.9641 26.7559 97.2289 27.0804C97.8001 27.8275 98.0897 28.7527 98.0449 29.6925C98.0905 30.6422 97.7809 31.5748 97.1761 32.308C96.8985 32.628 96.5537 32.8823 96.1665 33.0527C95.7785 33.2231 95.3577 33.3052 94.9353 33.2932C94.5081 33.3053 94.0857 33.2036 93.7105 32.9984C93.3361 32.7933 93.0225 32.4921 92.8017 32.1257H92.7777C92.8161 32.322 92.8337 32.5218 92.8297 32.7217V35.8491L91.5129 35.8667ZM92.7881 29.7346C92.7745 30.3455 92.9593 30.9443 93.3137 31.442C93.4697 31.6728 93.6817 31.8603 93.9297 31.9872C94.1777 32.1141 94.4537 32.1762 94.7321 32.1678C95.0001 32.1699 95.2649 32.1118 95.5073 31.9976C95.7497 31.8835 95.9633 31.7164 96.1329 31.5086C96.5369 31.0034 96.7401 30.3666 96.7033 29.7205C96.7353 29.0817 96.5457 28.4515 96.1681 27.9359C96.0041 27.7211 95.7913 27.5481 95.5481 27.4311C95.3041 27.3141 95.0369 27.2564 94.7665 27.2627C94.5025 27.2595 94.2401 27.3136 93.9985 27.4213C93.7561 27.5291 93.5409 27.6879 93.3657 27.8868C92.9489 28.4086 92.7425 29.0679 92.7881 29.7346Z" fill="#99A2AD"/>
<path d="M99.4417 31.2699C99.4273 30.8081 99.5761 30.356 99.8625 29.9936C100.155 29.6413 100.544 29.3839 100.983 29.2539C101.405 29.1138 101.839 29.0105 102.279 28.9453C102.699 28.8908 103.12 28.8639 103.543 28.8647H103.894V28.728C103.894 27.7252 103.393 27.2204 102.387 27.2204C101.691 27.2333 101.017 27.4665 100.461 27.8865L99.9289 26.9224C100.269 26.656 100.656 26.4572 101.071 26.3368C101.531 26.1858 102.012 26.1077 102.496 26.1054C102.861 26.0828 103.227 26.1332 103.571 26.2536C103.917 26.374 104.235 26.562 104.507 26.8066C104.753 27.0747 104.942 27.3901 105.062 27.7337C105.183 28.0773 105.231 28.4418 105.207 28.8051V33.1526H103.978V32.4514L104.016 31.908H103.991C103.78 32.318 103.463 32.6641 103.074 32.9107C102.677 33.1728 102.211 33.3107 101.736 33.3069C101.149 33.3208 100.575 33.123 100.122 32.7494C99.9009 32.5729 99.7241 32.3472 99.6065 32.0904C99.4881 31.8334 99.4321 31.5524 99.4417 31.2699ZM100.759 31.1612C100.759 31.3079 100.79 31.4528 100.851 31.5864C100.911 31.72 100.999 31.8392 101.109 31.936C101.37 32.1662 101.711 32.2835 102.059 32.2621C102.319 32.2663 102.576 32.2064 102.808 32.0878C103.04 31.9692 103.24 31.7956 103.389 31.5819C103.725 31.1516 103.907 30.6204 103.904 30.0743V29.8184H103.554C101.691 29.8184 100.759 30.266 100.759 31.1612Z" fill="#99A2AD"/>
<path d="M106.706 33.1466L109.053 29.6125L106.839 26.2712H108.349L109.623 28.3748L109.841 28.7815H109.869C109.96 28.6273 110.037 28.4905 110.1 28.3748L111.374 26.2712H112.881L110.67 29.6125L113.017 33.1466H111.526L110.085 30.8501L109.869 30.4995H109.841C109.782 30.6215 109.714 30.7387 109.638 30.8501L108.198 33.1466H106.706Z" fill="#99A2AD"/>
<path d="M114.268 34.5736C114.488 34.7619 114.766 34.8684 115.056 34.8751C115.607 34.8751 116.022 34.535 116.302 33.8548L116.652 33.0659L113.749 26.2712H115.231L116.954 30.7694L117.213 31.5969H117.252C117.312 31.3213 117.389 31.0497 117.483 30.7835L119.149 26.2712H120.575L117.346 34.3842C117.178 34.8662 116.868 35.2857 116.456 35.5868C116.065 35.862 115.596 36.0068 115.119 36.0005C114.892 36.0062 114.666 35.9742 114.449 35.9059C114.278 35.8558 114.114 35.7827 113.963 35.6885L113.798 35.5938L114.268 34.5736Z" fill="#99A2AD"/>
<path d="M122.208 33.1456V26.2702H125.048C125.641 26.2375 126.228 26.3974 126.723 26.726C126.927 26.8758 127.09 27.0742 127.199 27.3031C127.307 27.532 127.356 27.7843 127.343 28.0373C127.346 28.3575 127.256 28.6718 127.084 28.9418C126.907 29.2104 126.655 29.4203 126.359 29.5449C126.74 29.6233 127.081 29.8345 127.322 30.1409C127.593 30.5204 127.708 30.99 127.643 31.4522C127.578 31.9145 127.337 32.3338 126.972 32.6232C126.43 32.9871 125.784 33.1655 125.133 33.1316L122.208 33.1456ZM123.525 29.1767H124.818C125.136 29.2004 125.452 29.1013 125.7 28.8998C125.802 28.8004 125.88 28.6806 125.932 28.5481C125.984 28.4157 126.006 28.2738 125.998 28.1319C125.998 27.4962 125.591 27.1794 124.776 27.1818H123.525V29.1767ZM123.525 32.2235H124.926C125.299 32.2521 125.67 32.1505 125.977 31.936C126.091 31.8373 126.181 31.7153 126.244 31.5782C126.306 31.4413 126.339 31.2925 126.339 31.1419C126.339 30.9913 126.306 30.8425 126.244 30.7055C126.181 30.5685 126.091 30.4465 125.977 30.3478C125.669 30.1358 125.299 30.0345 124.926 30.0602H123.525V32.2235Z" fill="#99A2AD"/>
<path d="M129.038 31.27C129.023 30.8082 129.172 30.3561 129.458 29.9937C129.751 29.6421 130.141 29.3847 130.579 29.254C131.002 29.1139 131.437 29.0106 131.878 28.9454C132.296 28.8908 132.718 28.8638 133.139 28.8648H133.49V28.7281C133.49 27.7253 132.985 27.2205 131.98 27.2205C131.284 27.2339 130.61 27.467 130.054 27.8865L129.525 26.9224C129.863 26.656 130.25 26.4573 130.663 26.3369C131.123 26.1859 131.604 26.1078 132.089 26.1055C132.454 26.0823 132.819 26.1324 133.164 26.2529C133.51 26.3733 133.827 26.5616 134.099 26.8067C134.346 27.0743 134.535 27.3897 134.656 27.7333C134.776 28.0771 134.825 28.4418 134.799 28.8052V33.1527H133.574V32.4515L133.615 31.9081H133.587C133.374 32.3202 133.055 32.6677 132.663 32.9143C132.266 33.1763 131.8 33.3142 131.325 33.3105C130.739 33.3217 130.169 33.1227 129.718 32.7495C129.498 32.5725 129.322 32.3467 129.203 32.0899C129.086 31.8331 129.029 31.5524 129.038 31.27ZM130.355 31.1613C130.356 31.3077 130.388 31.4523 130.448 31.5857C130.509 31.7191 130.596 31.8385 130.705 31.9361C130.967 32.1665 131.31 32.2837 131.658 32.2621C131.918 32.2664 132.174 32.2065 132.406 32.0879C132.638 31.9693 132.837 31.7956 132.985 31.582C133.323 31.1528 133.506 30.6212 133.503 30.0744V29.8185H133.153C131.287 29.8185 130.355 30.2661 130.355 31.1613Z" fill="#99A2AD"/>
<path d="M137.088 33.1466V26.2711H138.404V29.0759H141.879V26.2711H143.196V33.1466H141.879V30.1979H138.404V33.1466H137.088Z" fill="#99A2AD"/>
<path d="M145.575 33.1466V26.2711H146.892V29.0759H150.367V26.2711H151.683V33.1466H150.367V30.1979H146.892V33.1466H145.575Z" fill="#99A2AD"/>
<path d="M153.369 33.1458L154.955 30.8634L155.267 30.4426C154.852 30.325 154.485 30.0797 154.217 29.7414C153.897 29.3157 153.745 28.7874 153.789 28.2568C153.833 27.7262 154.069 27.2302 154.454 26.8629C154.963 26.4671 155.597 26.2669 156.241 26.2984H158.983V33.1458H157.666V30.646H156.51L154.825 33.1318L153.369 33.1458ZM156.521 29.6958H157.662V27.1819H156.563C155.592 27.1819 155.107 27.5934 155.109 28.4161C155.097 28.5945 155.127 28.7733 155.195 28.9386C155.263 29.104 155.368 29.2514 155.501 29.3698C155.791 29.5954 156.151 29.711 156.517 29.6958H156.521Z" fill="#99A2AD"/>
<path d="M50.7293 25.9902C49.1399 27.2179 47.1819 27.8705 45.1747 27.8414C40.3344 27.8414 35.4312 24.6578 35.4312 18.5748C35.4312 12.4918 40.3344 9.3047 45.1747 9.3047C47.1817 9.27727 49.1391 9.92962 50.7293 11.1559L52.6521 6.1352C50.392 4.74175 47.7904 4.00266 45.1361 4C36.4819 4 29.8099 10.5178 29.8099 18.5748C29.8099 26.6318 36.4643 33.1461 45.1361 33.1461C47.7953 33.1411 50.401 32.397 52.6626 30.9968L50.7398 25.9831L50.7293 25.9902Z" fill="#99A2AD"/>
</g>
<defs>
<clipPath id="clip0_94_178">
<rect width="159" height="36" fill="white" transform="translate(0.837524 0.5)"/>
</clipPath>
</defs>
</svg>
