<svg width="113" height="41" viewBox="0 0 113 41" fill="none" xmlns="http://www.w3.org/2000/svg">
<path d="M6.9427 18.4784C5.5121 18.2157 4.04443 18.0788 2.66201 17.6595C1.0115 17.16 0.65941 16.2141 1.25241 14.6218C3.72322 7.99892 10.3228 3.77728 17.3819 4.3853C20.6243 4.64624 23.7053 5.90639 26.199 7.99152C27.4443 9.01764 27.6679 10.1313 26.4943 11.2611C25.2592 12.4643 23.8715 13.5009 22.3668 14.3443C17.9576 16.7567 11.7781 18.2614 6.9427 18.4784Z" fill="#99A2AD"/>
<path d="M0.310657 18.7746C1.61816 20.16 3.22607 20.5789 4.86599 20.6845C12.1299 21.1532 18.8447 19.3866 25.072 15.7344C25.6768 15.3583 26.2466 14.93 26.7747 14.4546C27.7707 13.5974 28.6215 12.6334 28.6904 11.0659C29.9216 12.7038 30.8056 14.3211 31.2045 16.1363C31.5369 17.6491 31.0284 19.0357 30.1604 20.2948C28.5599 22.6211 26.3167 24.2104 23.81 25.4392C18.5357 28.0156 13.0016 29.2164 7.11043 28.2585C6.32031 28.1166 5.5433 27.9111 4.7872 27.6441C1.70927 26.6108 0.331585 24.3974 0.311886 21.2709C0.306961 20.4368 0.310657 19.6027 0.310657 18.7746Z" fill="#99A2AD"/>
<path d="M87.4917 22.3587L92.6285 31.2227C90.6729 31.2227 89.0447 31.2574 87.4081 31.1856C87.1488 31.1744 86.8406 30.7225 86.6698 30.4068C85.523 28.2945 84.3917 26.1735 83.2926 24.0339C83.0262 23.5139 82.7085 23.291 82.141 23.3207C81.3681 23.3616 80.588 23.3306 79.6909 23.3306V26.2181C79.6909 27.5355 79.6455 28.8566 79.7076 30.1715C79.7494 31.0618 79.4185 31.3329 78.6026 31.2735C77.7941 31.2116 76.9824 31.2116 76.1739 31.2735C75.3114 31.3441 75.0988 30.9739 75.1083 30.1344C75.1394 25.1619 75.1227 20.1894 75.1239 15.2169C75.1239 13.6296 75.1418 12.0423 75.131 10.4537C75.131 9.81727 75.3592 9.39753 75.9971 9.33933C79.1963 9.07189 82.4074 8.78587 85.5863 9.46315C88.402 10.0612 90.4125 11.6919 90.8748 14.7724C91.3371 17.853 90.5523 20.4804 87.7533 22.1346C87.6604 22.2019 87.5729 22.2768 87.4917 22.3587ZM79.6945 12.8954C79.6945 15.1241 79.6825 17.1175 79.716 19.1134C79.716 19.2707 80.0194 19.5493 80.1938 19.5555C81.2594 19.5963 82.3334 19.6582 83.3918 19.5555C85.0642 19.3933 86.2003 18.1464 86.2971 16.5306C86.4034 14.7241 85.5803 13.4154 83.9078 13.1281C82.5663 12.8978 81.1758 12.9647 79.6992 12.8954H79.6945Z" fill="#99A2AD"/>
<path d="M60.4688 18.012H64.0967C65.5416 18.012 66.9852 18.0294 68.4288 18.012C69.1051 18.0021 69.3945 18.2606 69.3483 18.9753C69.3033 19.6661 69.3033 20.3592 69.3483 21.0499C69.3969 21.8244 69.0442 22.0369 68.3462 22.0294C66.0767 22.0033 63.8073 22.0195 61.5354 22.0195H60.5272C60.5272 23.3558 60.4506 24.6125 60.5527 25.8555C60.6269 26.7529 61.3007 27.1967 62.1739 27.188C64.7961 27.1631 67.4182 27.147 70.0367 27.0463C70.7433 27.0189 71.0011 27.1582 70.9744 27.8953C70.8418 31.4503 70.8272 31.1769 67.8122 31.234C65.3409 31.2813 62.8477 31.3583 60.3934 31.0923C57.2994 30.7592 55.9166 29.3944 55.7378 26.216C55.5085 22.1924 55.5085 18.1586 55.7378 14.135C55.9287 10.8311 57.6448 9.28722 60.8848 9.12065C63.648 8.97895 66.4233 9.0672 69.1926 9.12686C70.539 9.1567 70.7202 9.40903 70.9087 10.7714C71.248 13.2189 71.2237 13.2425 68.8411 13.1866C66.8381 13.1381 64.8277 13.076 62.8307 13.0772C60.9711 13.0772 60.4871 13.6067 60.4664 15.5036C60.4615 16.2817 60.4688 17.0574 60.4688 18.012Z" fill="#99A2AD"/>
<path d="M102.973 27.2482C103.759 25.2112 104.509 23.4367 105.13 21.619C106.437 17.8437 107.22 13.9078 107.457 9.92083C107.498 9.18145 107.787 8.98674 108.446 9.05822C109.335 9.15064 110.235 9.17529 111.116 9.317C111.838 9.43284 112.197 9.83826 112.169 10.6824C112.046 14.5999 111.066 18.3374 109.731 21.9801C108.902 24.2097 107.958 26.395 106.903 28.5273C105.683 31.0141 103.103 31.894 100.524 30.8514C99.4581 30.4189 98.8571 29.5156 98.3662 28.5483C96.4967 24.8837 95.1066 20.9953 94.2301 16.9782C93.7788 14.8919 93.6193 12.744 93.3201 10.6257C93.2162 9.88632 93.5822 9.44393 94.2598 9.3589C95.4407 9.20856 96.6327 9.13339 97.8222 9.06931C98.4627 9.03357 98.3662 9.58564 98.4207 9.97012C98.7459 12.2363 98.9499 14.5296 99.3987 16.7662C100.102 20.3029 101.329 23.6868 102.973 27.2482Z" fill="#99A2AD"/>
<path d="M44.7828 20.4278C44.8873 29.349 38.511 36.9486 31.0205 39.5015C30.4572 39.6931 29.8952 39.8936 29.3197 40.0301C29.1057 40.0802 28.8536 39.9599 28.6199 39.9174C28.7036 39.6556 28.7109 39.3073 28.8856 39.147C29.3455 38.7211 29.8854 38.3867 30.3797 37.9983C34.6495 34.6413 37.4841 30.2634 38.4827 24.9085C40.1331 16.065 37.2701 8.76217 30.5027 3.0164C30.0256 2.61055 29.4697 2.2974 28.9987 1.88905C28.8044 1.71994 28.7355 1.40052 28.6113 1.15C28.8696 1.08361 29.1512 0.91451 29.3836 0.968373C32.2121 1.61848 34.7356 2.93874 37.0082 4.75128C40.4454 7.48826 42.8336 10.9731 43.9552 15.2733C44.3979 16.9455 44.5184 18.6992 44.7828 20.4278Z" fill="#99A2AD"/>
<path d="M2.33093 28.477C4.53014 30.2108 6.90677 30.7859 9.37463 30.9122C15.8173 31.2407 21.7889 29.7391 27.1869 26.3065C29.2037 25.0239 30.9106 23.4322 31.8615 21.1738C32.8449 25.9708 27.613 32.9648 21.4815 35.104C14.3528 37.5934 5.85591 34.731 2.33093 28.477Z" fill="#99A2AD"/>
</svg>
