<svg width="142" height="39" viewBox="0 0 142 39" fill="none" xmlns="http://www.w3.org/2000/svg">
<g clip-path="url(#clip0_94_226)">
<path d="M95.011 9.17153C95.8539 9.05388 96.7409 9.17575 97.507 9.55284C97.9127 9.75252 98.298 10.0213 98.5948 10.3659L98.6784 10.4638L98.5936 10.5609C98.2851 10.914 97.9818 11.2738 97.6792 11.6321L97.5745 11.7559L97.4604 11.641C97.1705 11.35 96.8175 11.0605 96.4126 10.9576C95.6239 10.7565 94.654 10.832 94.0687 11.4594C93.7947 11.7528 93.7015 12.2033 93.8361 12.5811C93.9294 12.8424 94.1699 13.0276 94.4051 13.1558C94.9824 13.4717 95.6619 13.564 96.2861 13.7527C97.0032 13.9695 97.7197 14.2317 98.3144 14.7004C98.7728 15.0619 99.1297 15.5627 99.2632 16.1355C99.4822 17.0745 99.2417 18.1088 98.6222 18.8487C98.1345 19.4309 97.452 19.8299 96.7264 20.0336C95.5701 20.3577 94.2882 20.1707 93.2607 19.5539C92.8644 19.3161 92.4758 18.9957 92.1795 18.6396L92.0982 18.5418L92.1821 18.4457C92.5086 18.0738 92.8283 17.6942 93.1478 17.3157L93.2771 17.1623L93.4094 17.3667C94.1219 18.3918 95.7691 18.7684 96.8538 18.1493C97.2724 17.9109 97.6049 17.4698 97.6206 16.9685C97.6511 16.6105 97.4977 16.2433 97.215 16.0213C96.7461 15.6523 96.1221 15.5328 95.5731 15.3547C94.6557 15.1567 93.7373 14.8585 93.004 14.2517C92.4997 13.8347 92.1458 13.2326 92.0772 12.5802C91.99 11.8796 92.1732 11.1484 92.5899 10.5808C93.1466 9.78955 94.0645 9.30395 95.011 9.17153ZM138.591 17.8547C136.963 17.8377 135.335 17.8559 133.707 17.8459C133.386 18.5647 133.081 19.2957 132.772 20.019L132.734 20.1092H130.88L130.97 19.9013C132.431 16.5086 133.894 13.1166 135.356 9.72862C135.482 9.4141 135.803 9.20082 136.136 9.21137C136.481 9.19801 136.806 9.42816 136.928 9.74901C138.391 13.1342 139.855 16.5162 141.317 19.9013L141.407 20.1092H139.559L139.52 20.0196C139.209 19.3003 138.891 18.5792 138.591 17.8547ZM128.086 16.8249V9.21137H129.804V19.23C129.828 19.6184 129.56 20.0061 129.176 20.0881C128.885 20.1631 128.553 20.0735 128.36 19.8357C126.365 17.3756 124.367 14.9171 122.37 12.4583L122.369 20.1339H120.644V19.985C120.644 16.7014 120.643 13.4182 120.644 10.1392C120.614 9.65128 121.068 9.19965 121.557 9.23715C121.822 9.24582 122.057 9.3923 122.221 9.59456C124.174 12.006 126.129 14.4157 128.086 16.8249ZM113.178 18.3608C115.019 18.3643 116.859 18.3643 118.7 18.3695L118.848 18.3702V20.0876H118.7C116.642 20.0893 114.584 20.0893 112.527 20.0881C112.325 20.0881 112.139 20.1069 111.954 20.0155C111.638 19.8802 111.435 19.5463 111.452 19.2083C111.452 15.9165 111.45 12.6263 111.452 9.33441V9.18559H113.178V18.3608ZM107.583 17.8547C105.955 17.8377 104.327 17.8559 102.699 17.8459C102.378 18.5647 102.074 19.2957 101.764 20.019L101.726 20.1092H99.872L99.9617 19.9013C101.424 16.5092 102.886 13.1166 104.349 9.72862C104.474 9.4141 104.793 9.20082 105.126 9.21137C105.476 9.19801 105.798 9.42816 105.921 9.74901C107.383 13.1342 108.848 16.5162 110.309 19.9013L110.399 20.1092H108.551L108.512 20.0196C108.201 19.3003 107.882 18.5792 107.583 17.8547ZM90.825 20.1098H88.7135L86.68 16.9644C85.9347 16.9649 84.9864 16.9644 84.2411 16.9649C84.2378 17.9636 84.2425 18.9623 84.2418 19.9611V20.1098H82.5149V19.9611C82.5161 16.6592 82.5173 13.3573 82.5168 10.0556C82.5168 9.59901 82.9218 9.2027 83.3738 9.21254C84.3941 9.20903 85.4143 9.2109 86.4346 9.21137C87.4368 9.21207 88.4313 9.59151 89.1813 10.2564C90.394 11.3331 90.7981 13.2038 90.132 14.6841C89.8001 15.4215 89.2187 16.0329 88.5187 16.429L90.825 20.1098ZM74.5592 10.9382C74.5578 11.8449 74.5585 12.751 74.5585 13.6578C75.8685 13.6589 77.1787 13.6566 78.4887 13.6589H78.6374L78.6386 15.3741L78.4941 15.3782C78.4711 15.3787 78.4484 15.3782 78.4297 15.3775C77.1394 15.377 75.8486 15.377 74.5585 15.3775C74.5578 16.3715 74.5578 17.3662 74.5585 18.3602C76.5006 18.3608 78.4437 18.3614 80.3859 18.3602H80.5346V20.0881H80.3859C78.1514 20.0888 75.9172 20.0888 73.6863 20.0876C73.2145 20.0993 72.8075 19.6741 72.8335 19.2083C72.8328 16.1589 72.8309 13.1119 72.8339 10.0654C72.8246 9.60557 73.2361 9.21371 73.6898 9.21324C75.9219 9.2109 78.154 9.21254 80.3859 9.21137H80.5346V10.9375H80.3859C78.4437 10.9387 76.5013 10.937 74.5592 10.9382ZM66.6056 17.0815C67.723 14.4797 68.8433 11.8789 69.961 9.27699L69.9996 9.18676H71.8528L71.764 9.39418C70.3128 12.7838 68.8487 16.1684 67.397 19.5539C67.2464 19.9318 66.8122 20.1643 66.4182 20.0676C66.1296 20.0079 65.9041 19.7842 65.79 19.5182C64.347 16.1408 62.8895 12.7698 61.4424 9.39418L61.3534 9.18676H63.2085L63.2471 9.27699C64.3648 11.8796 65.4886 14.479 66.6056 17.0815ZM60.3266 9.33559C60.3304 12.8771 60.3278 16.4184 60.3266 19.9599V20.1086H58.6028V19.9599C58.5997 16.4184 58.6011 12.8771 58.6021 9.33559V9.18676H60.3266V9.33559ZM54.4074 16.7998V9.18676H56.1261V19.2049C56.1493 19.5932 55.8814 19.9809 55.4984 20.0629C55.2064 20.1379 54.8745 20.0483 54.6819 19.8106C52.6864 17.3503 50.689 14.892 48.6918 12.433V20.1086H46.9661V19.9599C46.9654 16.6762 46.9654 13.3929 46.9665 10.1139C46.9361 9.62667 47.3898 9.17458 47.8786 9.21207C48.1437 9.22075 48.3791 9.36652 48.5431 9.56925C50.4964 11.9809 52.4517 14.3906 54.4074 16.7998ZM36.8138 9.33559C36.8155 11.3624 36.812 13.389 36.8155 15.4156C36.8166 16.0067 37.0162 16.5877 37.353 17.0716C37.9212 17.8869 38.8771 18.424 39.8718 18.4644C40.4309 18.4873 40.9982 18.3632 41.4886 18.0919C42.2688 17.6602 42.8384 16.8735 43.0136 15.9996C43.0886 15.6259 43.075 15.2382 43.075 14.8592V9.18676H44.8019V15.3079C44.8019 15.7964 44.7426 16.2866 44.6047 16.7558C44.2334 18.0122 43.3225 19.0835 42.1566 19.6746C41.1368 20.1913 39.932 20.3196 38.8246 20.0436C37.6701 19.7565 36.63 19.0437 35.9474 18.0691C35.4176 17.3123 35.1096 16.4056 35.0844 15.4771V9.18676H36.8138V9.33559ZM134.4 16.1291C135.557 16.1296 136.715 16.1291 137.873 16.1291C137.299 14.7613 136.724 13.3936 136.148 12.0266C135.562 13.3925 134.983 14.7613 134.4 16.1291ZM103.393 16.1291C104.55 16.1296 105.708 16.1291 106.866 16.1291C106.291 14.7613 105.717 13.3936 105.14 12.0266C104.554 13.3925 103.975 14.7613 103.393 16.1291ZM84.2418 10.9382C84.2411 12.3739 84.2402 13.8089 84.2425 15.2446C84.8798 15.244 85.5185 15.244 86.1589 15.244C86.5154 15.251 86.8824 15.2353 87.2251 15.1175C87.8921 14.9025 88.466 14.363 88.6522 13.6777C88.8178 13.0686 88.6866 12.392 88.3132 11.8806C87.9045 11.2996 87.2021 10.9457 86.4938 10.9405C85.7434 10.9354 84.9922 10.9387 84.2418 10.9382Z" fill="#99A2AD"/>
<path fill-rule="evenodd" clip-rule="evenodd" d="M15.6575 0.967264V8.11193C15.6593 8.14568 15.6617 8.17943 15.663 8.21341L15.6673 8.31231L15.6671 17.8283C15.6671 22.3932 12.1954 26.3109 7.85673 27.1963C7.7755 27.2198 7.69407 27.2426 7.61218 27.2643C9.11648 27.8291 10.709 28.1172 12.3234 28.1172C17.6176 28.1172 22.4131 25.0089 24.5838 20.1786C24.9675 19.3248 25.26 18.4309 25.4572 17.5157C25.658 16.5837 25.7589 15.6328 25.7589 14.6796L25.7591 8.52348C25.7594 4.80877 22.7567 0.967264 18.8629 0.967264H15.6575Z" fill="#99A2AD"/>
<path fill-rule="evenodd" clip-rule="evenodd" d="M11.0588 17.9528L11.0592 8.26594C10.9004 4.5667 8.13345 1.05425 4.26855 0.967999H0.967896V17.3307C0.967896 23.9766 9.82212 24.806 11.0054 18.3156C11.0273 18.1953 11.045 18.0742 11.0588 17.9528Z" fill="#99A2AD"/>
<path d="M60.4588 33.0827H58.5637L58.0215 34.5801H57.0734L59.052 29.406H59.9252L62.0287 34.5801H61.0253L60.4588 33.0827ZM98.6946 37.9075V37.0802H66.867V37.9075H98.6946ZM98.6946 26.0438V26.8709H66.867V26.0438H98.6946ZM82.3121 32.3405L83.4991 34.5958H82.452L81.3685 32.4716C81.2551 32.4751 81.1424 32.4758 81.0312 32.4758H80.1362V34.5801H79.2403V29.406H81.5418C81.6706 29.406 81.7994 29.4083 81.9282 29.4137C82.0491 29.419 82.1707 29.4318 82.2892 29.4574C82.4016 29.4819 82.5119 29.5161 82.6178 29.562C82.73 29.6109 82.8326 29.6782 82.9258 29.7578C83.0923 29.9003 83.2164 30.0748 83.2987 30.2784C83.3792 30.4784 83.4212 30.6882 83.4212 30.9039C83.4212 31.0797 83.3956 31.2689 83.3378 31.435C83.283 31.5915 83.2026 31.7347 83.0956 31.8614C82.9883 31.9882 82.859 32.0906 82.7143 32.1717C82.5864 32.2436 82.4515 32.2985 82.3121 32.3405ZM67.7629 30.2333V31.518H70.0807V32.3454H67.7629V34.5801H66.867V29.406H70.4337V30.2333H67.7629ZM74.4037 33.0827H72.5084L71.966 34.5801H71.0183L72.9968 29.406H73.8699L75.9732 34.5801H74.9703L74.4037 33.0827ZM77.7554 34.5801H76.8595V29.406H77.7554V34.5801ZM85.6603 30.2333V31.518H87.9781V32.3454H85.6603V34.5801H84.7644V29.406H88.3311V30.2333H85.6603ZM92.0575 33.0827H90.1624L89.62 34.5801H88.6719L90.6506 29.406H91.5237L93.6273 34.5801H92.6241L92.0575 33.0827ZM96.292 32.5782L94.8981 34.5801H93.7898L95.7687 31.8565L93.9727 29.406H95.0743L96.2878 31.1349L97.5038 29.406H98.6138L96.8096 31.8565L98.7965 34.5801H97.6954L96.292 32.5782ZM107.938 31.1473H107.022L107.015 31.0335C107.006 30.9024 106.973 30.7773 106.909 30.6626C106.845 30.5498 106.761 30.4555 106.658 30.3778C106.545 30.2924 106.417 30.2327 106.282 30.1925C106.128 30.1465 105.968 30.1258 105.807 30.1258C105.594 30.1258 105.381 30.1599 105.185 30.2461C105.001 30.3265 104.845 30.4431 104.716 30.5959C104.573 30.7645 104.477 30.9651 104.413 31.1751C104.333 31.4374 104.303 31.7169 104.303 31.9904C104.303 32.263 104.332 32.542 104.413 32.803C104.478 33.013 104.573 33.2146 104.713 33.3852C104.839 33.5388 104.993 33.657 105.175 33.7376C105.37 33.8245 105.579 33.8603 105.792 33.8603C106.098 33.8603 106.411 33.7989 106.657 33.6059C106.889 33.4246 106.991 33.1704 107.015 32.8815L107.025 32.7699H107.937L107.925 32.9023C107.903 33.1626 107.839 33.4165 107.716 33.6478C107.602 33.8623 107.451 34.049 107.261 34.2013C107.067 34.3576 106.844 34.4705 106.607 34.5462C106.347 34.6292 106.076 34.6646 105.804 34.6646C105.46 34.6646 105.121 34.6089 104.803 34.4745C104.509 34.35 104.251 34.1706 104.037 33.9331C103.816 33.687 103.658 33.3983 103.552 33.0859C103.432 32.7335 103.384 32.3616 103.384 31.9904C103.384 31.6195 103.434 31.2478 103.555 30.8962C103.662 30.5843 103.82 30.2954 104.041 30.0493C104.254 29.8117 104.511 29.6315 104.805 29.5054C105.122 29.3695 105.46 29.3139 105.804 29.3139C106.069 29.3139 106.332 29.3505 106.584 29.4325C106.822 29.5094 107.043 29.6221 107.24 29.7762C107.43 29.9253 107.586 30.1048 107.707 30.3142C107.832 30.5299 107.901 30.7659 107.925 31.0137L107.938 31.1473ZM111.39 29.3216C111.731 29.3216 112.065 29.381 112.379 29.5142C112.679 29.6412 112.943 29.8229 113.166 30.06C113.395 30.3044 113.563 30.5915 113.68 30.9048C113.81 31.2524 113.864 31.6204 113.864 31.9904C113.864 32.3575 113.811 32.7218 113.684 33.067C113.568 33.381 113.401 33.6693 113.173 33.9153C112.951 34.1549 112.686 34.34 112.386 34.4692C112.07 34.6053 111.734 34.6646 111.39 34.6646C111.046 34.6646 110.707 34.6064 110.39 34.472C110.089 34.3445 109.825 34.1623 109.602 33.9232C109.373 33.6773 109.206 33.3892 109.09 33.0746C108.961 32.727 108.908 32.3602 108.908 31.9904C108.908 31.6186 108.963 31.2492 109.093 30.8999C109.209 30.5851 109.379 30.2969 109.611 30.0532C109.835 29.8177 110.098 29.6369 110.398 29.5114C110.713 29.3793 111.049 29.3216 111.39 29.3216ZM119.073 31.0111L117.874 34.5801H117.114L115.909 31.0079V34.5801H115.052V29.406H116.243L117.491 33.2442L118.747 29.406H119.938V34.5801H119.073V31.0111ZM122.243 32.6141V34.5801H121.347V29.406H123.31C123.558 29.406 123.805 29.4272 124.049 29.4721C124.279 29.5144 124.499 29.5923 124.698 29.7163C124.892 29.8376 125.046 30.0006 125.158 30.2005C125.287 30.432 125.328 30.7044 125.328 30.9665C125.328 31.4451 125.192 31.8886 124.814 32.1997C124.414 32.5286 123.859 32.6141 123.356 32.6141H122.243ZM129.274 33.0827H127.378L126.836 34.5801H125.888L127.867 29.406H128.74L130.843 34.5801H129.84L129.274 33.0827ZM132.502 30.9685V34.5801H131.645V29.406H132.502L134.899 33.0191V29.406H135.764V34.5801H134.907L132.502 30.9685ZM139.485 32.4032V34.5801H138.589V32.4033L136.538 29.406H137.633L139.035 31.5681L140.432 29.406H141.527L139.485 32.4032ZM60.1733 32.3167L59.4865 30.5079L58.8321 32.3167H60.1733ZM74.118 32.3167L73.4312 30.5079L72.7771 32.3167H74.118ZM80.1362 31.6409H81.4767C81.7224 31.6409 82.0795 31.6175 82.2885 31.4721C82.5749 31.2725 82.5803 30.6709 82.3447 30.4256C82.1739 30.2477 81.8884 30.195 81.5739 30.195H80.1362V31.6409ZM91.7718 32.3167L91.085 30.5079L90.4309 32.3167H91.7718ZM111.385 33.8603C111.603 33.8603 111.815 33.8213 112.014 33.7336C112.205 33.6499 112.37 33.5291 112.507 33.372C112.656 33.2019 112.762 33.0016 112.834 32.7884C112.921 32.5335 112.953 32.2603 112.953 31.9918C112.953 31.7215 112.921 31.446 112.832 31.1896C112.758 30.9778 112.654 30.7773 112.505 30.608C112.369 30.4535 112.208 30.3351 112.019 30.2543C111.822 30.1699 111.613 30.1334 111.399 30.1334C111.182 30.1334 110.969 30.1726 110.769 30.2582C110.577 30.34 110.413 30.4593 110.275 30.6157C110.127 30.7848 110.022 30.9855 109.948 31.1974C109.86 31.4517 109.827 31.7235 109.827 31.9918C109.827 32.2606 109.859 32.5333 109.945 32.7889C110.017 33.0017 110.121 33.2025 110.269 33.372C110.406 33.5283 110.569 33.6496 110.759 33.7339C110.957 33.8221 111.168 33.8603 111.385 33.8603ZM122.243 31.7791H123.377C123.629 31.7791 123.99 31.7504 124.19 31.5772C124.365 31.4257 124.417 31.203 124.417 30.9794C124.417 30.8534 124.4 30.7086 124.336 30.5976C124.283 30.506 124.213 30.4313 124.121 30.3779C124.019 30.3182 123.903 30.2834 123.786 30.2652C123.644 30.2428 123.498 30.2333 123.354 30.2333H122.243V31.7791ZM128.988 32.3167L128.301 30.5079L127.647 32.3167H128.988Z" fill="#99A2AD"/>
</g>
<defs>
<clipPath id="clip0_94_226">
<rect width="141" height="37.2643" fill="white" transform="translate(0.743774 0.867859)"/>
</clipPath>
</defs>
</svg>
