<svg width="70" height="45" viewBox="0 0 70 45" fill="none" xmlns="http://www.w3.org/2000/svg">
<g clip-path="url(#clip0_94_199)">
<path fill-rule="evenodd" clip-rule="evenodd" d="M40.4235 16.4311C40.5069 16.365 40.557 16.3319 40.6237 16.2823C43.4444 14.4137 44.7964 11.834 44.4292 8.44409C44.1789 6.12898 43.1941 4.19426 41.3581 2.72248C39.3051 1.08539 36.9017 0.440488 34.3146 0.390847C31.9279 0.341277 26.9875 0.390847 26.8873 0.407441V25.0631C27.5215 25.0631 28.1224 25.0631 28.7734 25.0631V2.07757L33.814 2.04453C35.0991 2.06105 36.3676 2.2099 37.586 2.65639C41.4583 4.04541 42.877 7.3527 42.4263 10.5772C42.1259 12.7601 40.8574 14.331 38.9546 15.4224C38.6543 15.5878 38.3371 15.7366 38.02 15.9019L44.1789 24.9142C44.2289 24.9804 44.3124 25.0796 44.3791 25.0796C45.0301 25.0961 45.681 25.0796 46.3987 25.0796L40.4235 16.4311Z" fill="#99A2AD"/>
<path fill-rule="evenodd" clip-rule="evenodd" d="M12.7664 0.0435791L1.21643 25.0961C1.76726 25.0961 2.25129 25.0796 2.73525 25.0961C3.01903 25.1127 3.15256 25.0134 3.26942 24.7655L12.7163 3.97925L22.2133 24.7655C22.2634 24.8812 22.3635 25.0631 22.4469 25.0631C23.0645 25.0961 23.682 25.0796 24.333 25.0796L12.7664 0.0435791Z" fill="#99A2AD"/>
<path fill-rule="evenodd" clip-rule="evenodd" d="M69.6483 24.6828L62.3716 12.6939C62.2381 12.479 62.2381 12.3136 62.3716 12.0986L69.348 0.407471C68.7307 0.407471 68.1633 0.423994 67.612 0.407471C67.3617 0.407471 67.2281 0.490158 67.1114 0.68858L60.2517 12.1317C60.135 12.3302 60.135 12.4624 60.2517 12.6609L67.612 24.7985C67.6788 24.9143 67.7956 25.0796 67.8792 25.0796C68.5303 25.1128 69.1645 25.0962 69.8655 25.0962C69.7819 24.9143 69.7151 24.7985 69.6483 24.6828Z" fill="#99A2AD"/>
<path fill-rule="evenodd" clip-rule="evenodd" d="M57.7314 11.9498L50.8882 0.65548C50.8215 0.539746 50.688 0.390894 50.5711 0.390894C49.9536 0.357847 49.3193 0.37437 48.635 0.37437L55.6117 11.8837C55.7619 12.1152 55.7452 12.2805 55.6117 12.5121L48.3012 24.7159C48.2344 24.8316 48.1677 24.9473 48.0842 25.0962C48.685 25.0962 49.2191 25.0797 49.7533 25.0962C50.0036 25.1127 50.1205 25.0135 50.254 24.7985C52.7409 20.681 55.2278 16.58 57.7147 12.4789C57.8482 12.297 57.8649 12.1483 57.7314 11.9498Z" fill="#99A2AD"/>
<path fill-rule="evenodd" clip-rule="evenodd" d="M35.3156 15.1743C35.349 15.1413 35.3657 15.1247 35.3823 15.1247C35.4658 15.1082 35.5659 15.0751 35.6661 15.0586C37.4019 14.6617 38.8707 13.8348 39.7887 12.2474C41.2908 9.68423 40.6232 4.95487 35.7829 3.91305C34.8983 3.73115 34.0304 3.68158 33.1458 3.68158L30.7423 3.73115C30.7257 3.73115 30.7089 3.74774 30.6923 3.76427V25.0796C31.3098 25.0796 31.9107 25.0796 32.5616 25.0796V14.2152L39.8888 24.815C39.9556 24.9142 40.0891 25.0796 40.1892 25.0796C40.8402 25.0961 41.4744 25.0961 42.1921 25.0961L35.3156 15.1743ZM32.5616 13.901V5.41788C34.2641 5.35171 35.9331 5.31867 37.2517 6.57543C38.5535 7.79915 38.7205 9.35355 38.2698 10.9741C37.8192 12.6112 36.5841 13.4215 34.9817 13.7026C34.1973 13.8514 33.3961 13.8348 32.5616 13.901Z" fill="#99A2AD"/>
<path fill-rule="evenodd" clip-rule="evenodd" d="M12.6836 8.24567L7.80994 18.9116H17.5239L12.6836 8.24567ZM12.6169 12.5285L14.7532 17.2414H10.4804L12.6169 12.5285Z" fill="#99A2AD"/>
<path fill-rule="evenodd" clip-rule="evenodd" d="M58.9 13.8845L52.0903 25.0961C52.6912 25.0961 53.2253 25.0796 53.7594 25.0961C54.0097 25.0961 54.1432 25.03 54.2601 24.815L58.8002 17.2249L63.4232 24.8316C63.49 24.9473 63.6405 25.0796 63.7403 25.0961C64.3577 25.1292 64.9919 25.1127 65.6767 25.1127L58.9 13.8845Z" fill="#99A2AD"/>
<path fill-rule="evenodd" clip-rule="evenodd" d="M63.7063 0.374328C63.4391 0.357804 63.3055 0.457015 63.1719 0.67203L59.1662 7.33611L55.1104 0.688554C55.0436 0.572749 54.9268 0.407445 54.8434 0.407445C54.1924 0.374328 53.5582 0.390852 52.8405 0.390852L59.0825 10.7096L65.3249 0.374328C64.7413 0.390851 64.2238 0.407445 63.7063 0.374328Z" fill="#99A2AD"/>
<path fill-rule="evenodd" clip-rule="evenodd" d="M20.2944 24.9804L18.375 20.7802C18.325 20.681 18.158 20.5983 18.0412 20.5983H7.29243C7.17557 20.5983 6.99199 20.714 6.92519 20.8298L4.98914 25.0796C5.55656 25.0796 6.07399 25.0631 6.57468 25.0796C6.82506 25.0962 6.92519 24.9969 7.02539 24.7819L8.04351 22.5331C8.14364 22.318 8.24376 22.2354 8.49414 22.2354H16.7226C16.9897 22.2354 17.0898 22.3346 17.19 22.5496L18.2415 24.815C18.2916 24.9143 18.4084 25.0465 18.4919 25.0465C19.0927 25.0631 19.6936 25.0631 20.2944 25.0631C20.2944 25.03 20.2944 24.9969 20.2944 24.9804Z" fill="#99A2AD"/>
<path d="M8.2557 39.0404H9.12076C9.83014 39.0404 9.43224 38.6347 9.86473 38.6347H9.98588V39.7219H9.83014C9.41495 39.7219 9.79555 39.3 9.12076 39.3H8.2557V40.7928C8.2557 41.2796 8.63631 40.955 8.63631 41.2147V41.3282H7.16565V41.2147C7.16565 40.955 7.54632 41.2796 7.54632 40.7928V37.7098C7.54632 37.2231 7.16565 37.5476 7.16565 37.2879V37.1906H10.0032C10.1416 37.1906 10.3319 37.1744 10.4703 37.1095V38.1642H10.2973C9.84744 38.1642 10.2627 37.4665 9.2765 37.4665H8.2557V39.0404Z" fill="#99A2AD"/>
<path d="M15.6031 41.3282V41.2155C15.6031 40.9579 15.9671 41.2799 15.9671 40.7808V37.657C15.9671 37.1578 15.6031 37.4959 15.6031 37.2222V37.1095H17.0094V37.2222C17.0094 37.4798 16.6455 37.1578 16.6455 37.657V40.7808C16.6455 41.2799 17.0094 40.9418 17.0094 41.2155V41.3282H15.6031Z" fill="#99A2AD"/>
<path d="M18.7261 40.7808C18.7261 41.2799 19.0691 40.9418 19.0691 41.2155V41.3282H17.7125V41.2155C17.7125 40.9579 18.0712 41.2799 18.0712 40.7808V37.657C18.0712 37.1578 17.7281 37.4959 17.7281 37.2222V37.1095H19.7241C20.1919 37.1095 21.0651 37.3188 21.0651 38.124C21.0651 38.8324 20.3946 39.0901 19.7397 39.1062V39.1223C20.0359 39.1545 20.1451 39.3799 20.3011 39.6053L21.0339 40.7325C21.377 41.2638 21.5797 40.9257 21.5797 41.1994V41.3121H20.6285L19.8177 39.9917C19.459 39.396 19.381 39.1706 18.9444 39.1706H18.7261V40.6251V40.7808ZM19.3498 38.9451C19.8332 38.9451 20.3634 38.8324 20.3634 38.1723C20.3634 37.6247 19.9424 37.3832 19.537 37.3832H18.7261V38.9451H19.3498Z" fill="#99A2AD"/>
<path d="M23.3729 39.0404H24.2379C24.9473 39.0404 24.5494 38.6347 24.9993 38.6347H25.1204V39.7219H24.9646C24.5494 39.7219 24.93 39.3 24.2379 39.3H23.3729V40.7928C23.3729 41.2796 23.7535 40.955 23.7535 41.2147V41.3282H22.2828V41.2147C22.2828 40.955 22.6635 41.2796 22.6635 40.7928V37.7098C22.6635 37.2231 22.2828 37.5476 22.2828 37.2879V37.1906H25.1204C25.2588 37.1906 25.4491 37.1744 25.5875 37.1095V38.1642H25.4145C24.9646 38.1642 25.3799 37.4665 24.3937 37.4665H23.3729V39.0404Z" fill="#99A2AD"/>
<path d="M31.4445 40.5744C31.3941 40.6545 31.2764 40.7828 31.2764 40.8791C31.2764 41.1037 31.6461 40.9753 31.6461 41.1839V41.2962H30.3688V41.1839C30.3688 40.9593 30.5368 41.248 30.9402 40.7187L32.0999 39.1788L30.9066 37.5907C30.6041 37.1897 30.4192 37.4624 30.4192 37.2218V37.1095H31.9487V37.2218C31.9487 37.4303 31.6629 37.302 31.6629 37.4784C31.6629 37.5587 31.7638 37.6549 31.7975 37.703L32.5538 38.7136L33.1252 37.9596C33.1925 37.8634 33.3942 37.6228 33.3942 37.5105C33.3942 37.2538 33.058 37.4624 33.058 37.2378V37.1255H34.3522V37.2378C34.3522 37.4945 34.1169 37.2058 33.6463 37.7993L32.7387 38.9702L34.1001 40.815C34.4027 41.216 34.5875 40.9914 34.5875 41.216V41.3282H32.9908V41.216C32.9908 41.0074 33.3606 41.1518 33.3606 40.9593C33.3606 40.8951 33.2765 40.7989 33.2261 40.7508L32.2681 39.4835L31.4445 40.5744Z" fill="#99A2AD"/>
<path d="M12.4418 37.3519H11.9977V37.1095H12.9651C12.9968 37.1095 14.4559 40.7625 14.4559 40.7625C14.6939 41.2959 14.9 40.9565 14.9 41.2313V41.3282H13.4885V41.2313C13.4885 41.0049 13.8216 41.1828 13.8216 40.9565C13.8216 40.8595 13.7899 40.714 13.7423 40.6332L13.3141 39.5503L12.0452 39.5341L11.6012 40.5523C11.5695 40.6332 11.4901 40.7949 11.4901 40.8918C11.4901 41.1504 11.8073 40.9727 11.8073 41.2151V41.3121H10.6813V41.2151C10.6813 40.9727 10.9033 41.2636 11.1888 40.617L12.4418 37.3519ZM12.7113 37.8692L12.1562 39.2593H13.2347L12.7113 37.8692Z" fill="#99A2AD"/>
<path d="M27.2166 37.3519H26.7741V37.1095H27.738C27.7696 37.1095 29.2232 40.7625 29.2232 40.7625C29.4603 41.2959 29.6656 40.9565 29.6656 41.2313V41.3282H28.2594V41.2313C28.2594 41.0049 28.5912 41.1828 28.5912 40.9565C28.5912 40.8595 28.5596 40.714 28.5122 40.6332L28.0856 39.5503L26.8216 39.5341L26.3791 40.5523C26.3475 40.6332 26.2685 40.7949 26.2685 40.8918C26.2685 41.1504 26.5846 40.9727 26.5846 41.2151V41.3121H25.4469V41.2151C25.4469 40.9727 25.6681 41.2636 25.9525 40.617L27.2166 37.3519ZM27.4852 37.8692L26.9322 39.2593H28.0066L27.4852 37.8692Z" fill="#99A2AD"/>
<path d="M6.94181 35.3516C6.85835 35.3516 6.79163 35.2734 6.79163 35.1758C6.79163 35.0781 6.85835 35 6.94181 35H34.665C34.7484 35 34.8152 35.0781 34.8152 35.1758C34.8152 35.2734 34.7484 35.3516 34.665 35.3516H6.94181Z" fill="#99A2AD"/>
<path d="M6.94181 43.4375C6.85835 43.4375 6.79163 43.3594 6.79163 43.2617C6.79163 43.1641 6.85835 43.0859 6.94181 43.0859H34.665C34.7484 43.0859 34.8152 43.1641 34.8152 43.2617C34.8152 43.3594 34.7484 43.4375 34.665 43.4375H6.94181Z" fill="#99A2AD"/>
<path d="M1.51555 41.3282H0.837524L2.60792 37.1095H3.28588L5.05627 41.3282H4.39709L3.94506 40.2411H1.96752L1.51555 41.3282ZM3.7756 39.7705L2.96574 37.6937L2.13704 39.7705H3.7756Z" fill="#99A2AD"/>
<path d="M42.3219 39.8897C42.2434 40.4554 41.9296 41.3282 40.6739 41.3282C39.5126 41.3282 38.8063 40.5524 38.8063 39.2916C38.8063 37.1742 40.3287 37.1095 40.6582 37.1095C41.8981 37.1095 42.2121 37.853 42.2748 38.4511H41.7569C41.7255 38.1601 41.5528 37.5459 40.6582 37.5459C39.6852 37.5459 39.3713 38.3864 39.3713 39.2593C39.3713 40.1806 39.8735 40.8756 40.6897 40.8756C41.3174 40.8756 41.7726 40.4554 41.804 39.8897H42.3219Z" fill="#99A2AD"/>
<path d="M45.1344 37.1095C45.9469 37.1095 46.8922 37.5925 46.8922 39.2189C46.8922 41.296 45.356 41.3282 45.1344 41.3282C44.8981 41.3282 43.3766 41.296 43.3766 39.2189C43.3766 37.818 44.1151 37.1095 45.1344 37.1095ZM45.1344 40.8613C45.3855 40.8613 46.3604 40.7969 46.3604 39.2028C46.3604 38.2689 45.9764 37.5442 45.1344 37.5442C44.0118 37.5442 43.9084 38.768 43.9084 39.2028C43.9084 39.8468 44.0856 40.8613 45.1344 40.8613Z" fill="#99A2AD"/>
<path d="M48.4907 37.7884V37.95V41.3282H47.9469V37.1095H48.7709L50.0563 40.5847L51.3417 37.1095H52.1656V41.3282H51.6219V37.95L51.6383 37.7884H51.6219L50.287 41.3282H49.8256L48.4907 37.7884Z" fill="#99A2AD"/>
<path d="M55.3456 37.1095C56.2325 37.1095 56.8063 37.449 56.8063 38.3218C56.8063 39.1138 56.4063 39.6472 55.2761 39.6472H54.1457V41.3282H53.5719V37.1095H55.3456ZM54.1632 39.1623H55.2239C55.9194 39.1623 56.215 38.8713 56.215 38.3218C56.215 37.8045 55.8846 37.5783 55.2239 37.5783H54.1632V39.1623Z" fill="#99A2AD"/>
<path d="M57.6526 41.3282H57.0875L58.5627 37.1095H59.128L60.6031 41.3282H60.0378L59.6617 40.2291H58.0135L57.6526 41.3282ZM59.5358 39.7604L58.8608 37.6752L58.1862 39.7604H59.5358Z" fill="#99A2AD"/>
<path d="M61.8779 41.3282H61.3063V37.1095H61.9468L64.2503 40.4554V37.1095H64.8219V41.3282H64.1814L61.8779 37.9824V41.3282Z" fill="#99A2AD"/>
<path d="M68.3959 37.1095H69.0406L67.5571 39.5664V41.3282H67.0248V39.5664L65.525 37.1095H66.1698L67.2828 39.0653L68.3959 37.1095Z" fill="#99A2AD"/>
</g>
<defs>
<clipPath id="clip0_94_199">
<rect width="68.9062" height="45" fill="white" transform="translate(0.837524)"/>
</clipPath>
</defs>
</svg>
