<svg width="100" height="39" viewBox="0 0 100 39" fill="none" xmlns="http://www.w3.org/2000/svg">
<path d="M0.170898 10.2163C0.170898 9.3576 0.648912 8.92825 1.47482 8.92825H15.4341C16.3034 8.92825 16.738 9.3576 16.7371 10.2163V11.2952C16.7371 12.1557 16.3034 12.6272 15.4341 12.6272H4.13066V21.8582H13.0431C13.9115 21.8582 14.3461 22.2876 14.347 23.1472V24.2215C14.347 25.0811 13.9115 25.5535 13.0431 25.5535H4.13066V35.3056H15.4341C16.3071 35.3056 16.7371 35.7771 16.7371 36.6368V37.7101C16.7371 38.5697 16.3034 38.9991 15.4341 38.9991H1.47851C0.652603 38.9991 0.17459 38.5697 0.17459 37.711L0.170898 10.2163ZM24.8652 8.92825H26.1691C27.0421 8.92825 27.5173 9.3576 27.5173 10.2163V23.5343L37.6903 9.83098C38.0816 9.27136 38.5162 8.92825 39.3855 8.92825H41.257C42.0838 8.92825 42.345 9.92089 41.9094 10.475L33.3015 21.4729L42.1281 37.4964C42.4751 38.1404 42.1705 38.9991 41.3003 38.9991H39.6024C38.6888 38.9991 38.2551 38.7422 37.8638 37.9688L30.7767 24.737L27.5173 28.948V37.711C27.5173 38.5697 27.0393 38.9991 26.1691 38.9991H24.8652C24.0393 38.9991 23.5612 38.5697 23.5612 37.711V10.2163C23.5612 9.3576 24.0393 8.92825 24.8652 8.92825ZM52.7302 12.6217H47.0789C46.206 12.6217 45.7741 12.1502 45.7741 11.2906V10.2172C45.7741 9.3576 46.2087 8.92825 47.0789 8.92825H62.3818C63.252 8.92825 63.6867 9.3576 63.6857 10.2163V11.2952C63.6857 12.1557 63.252 12.6272 62.3818 12.6272H56.6853V25.1691V37.711C56.6853 38.5697 56.2507 38.9991 55.3805 38.9991H54.0784C53.2045 38.9991 52.7311 38.5697 52.7311 37.711L52.7302 12.6217ZM68.8129 17.6923C68.8129 11.5493 72.7255 8.45578 77.9431 8.45578C83.1597 8.45578 87.0724 11.5493 87.0724 17.6923V37.712C87.0724 38.5706 86.6387 39 85.7685 39H84.4636C83.5943 39 83.1597 38.5706 83.1597 37.712V28.8617H72.7255V37.711C72.7255 38.5697 72.2918 38.9991 71.4216 38.9991H70.1186C69.2493 38.9991 68.8138 38.5697 68.8129 37.711V17.6923ZM72.7255 25.1673H83.1597V18.0794C83.1597 13.6547 80.8121 12.1511 77.9431 12.1511C75.0732 12.1511 72.7255 13.6547 72.7255 18.0794V25.1673ZM94.31 2.60051e-05C93.2255 0.00749202 92.1676 0.334257 91.2699 0.939054C90.3721 1.54385 89.6748 2.39956 89.2659 3.39811C88.9601 4.14449 88.8242 4.94887 88.8678 5.75362C88.9114 6.55837 89.1335 7.34357 89.5182 8.05296C89.9029 8.76235 90.4407 9.37838 91.093 9.85691C91.7452 10.3354 92.4959 10.6646 93.2912 10.8209C94.3552 11.0289 95.4573 10.9187 96.4583 10.5041C97.4593 10.0895 98.3141 9.38912 98.9148 8.49156C99.5164 7.59434 99.8376 6.54023 99.8376 5.46136C99.8317 4.00837 99.2463 2.61703 98.2097 1.59265C97.6968 1.08553 97.0884 0.683859 96.4193 0.41059C95.7501 0.137321 95.0334 -0.00219064 94.31 2.60051e-05ZM94.31 8.70624C93.6659 8.70204 93.0375 8.50816 92.5042 8.14909C91.9709 7.79003 91.5566 7.28189 91.3136 6.68886C91.0707 6.09587 91.0095 5.44474 91.1377 4.81728C91.266 4.18983 91.5779 3.61406 92.0343 3.16233C92.3755 2.82473 92.7878 2.5665 93.2414 2.40623C93.695 2.24597 94.1787 2.18764 94.6577 2.23545C95.1367 2.28327 95.5991 2.43603 96.0116 2.68275C96.4241 2.92947 96.7764 3.26402 97.0433 3.66232C97.4004 4.19442 97.5915 4.82101 97.5924 5.46136C97.59 6.10509 97.3959 6.73369 97.0346 7.2679C96.6733 7.8021 96.1609 8.21799 95.5622 8.46313C95.1654 8.62551 94.7391 8.70807 94.31 8.70624Z" fill="#99A2AD"/>
</svg>
